<?xml version="1.0" encoding="UTF-8"?>
<svg width="100px" height="100px" viewBox="0 0 200 200" version="1.1" xmlns="http://www.w3.org/2000/svg" xmlns:xlink="http://www.w3.org/1999/xlink">
    <!-- Generator: Sketch 43.2 (39069) - http://www.bohemiancoding.com/sketch -->
    <title>column-2</title>
    <desc>Created with Sketch.</desc>
    <defs></defs>
    <g id="Page-1" stroke="none" stroke-width="1" fill="none" fill-rule="evenodd">
        <g id="Column-2" transform="translate(-20.000000, -16.000000)">
            <rect id="Rectangle" fill="#32373C" x="20" y="16" width="199.997406" height="200" rx="2"></rect>
            <path d="M80,95.0071897 C80,92.7940799 81.7830797,91 83.9945832,91 L156.005417,91 C158.211564,91 160,92.7942683 160,95.0071897 L160,136.99281 C160,139.20592 158.21692,141 156.005417,141 L83.9945832,141 C81.7884358,141 80,139.205732 80,136.99281 L80,95.0071897 Z M82,97.0017284 L82,134.998272 C82,137.210864 83.7885341,139 85.9948028,139 L119,139 L119,93 L85.9948028,93 C83.7845869,93 82,94.7916349 82,97.0017284 Z M121,93 L121,139 L154.005197,139 C156.215413,139 158,137.208365 158,134.998272 L158,97.0017284 C158,94.7891365 156.211466,93 154.005197,93 L121,93 Z" id="Combined-Shape" fill="#8BA0AA"></path>
        </g>
    </g>
</svg>