<?xml version="1.0" encoding="UTF-8"?>
<svg width="100px" height="100px" viewBox="0 0 200 200" version="1.1" xmlns="http://www.w3.org/2000/svg" xmlns:xlink="http://www.w3.org/1999/xlink">
    <!-- Generator: Sketch 43.2 (39069) - http://www.bohemiancoding.com/sketch -->
    <title>divider</title>
    <desc>Created with Sketch.</desc>
    <defs></defs>
    <g id="Page-1" stroke="none" stroke-width="1" fill="none" fill-rule="evenodd">
        <g id="Divider" transform="translate(-20.000000, -20.000000)">
            <rect id="Rectangle" fill="#32373C" x="20" y="20" width="199.997406" height="200" rx="2"></rect>
            <g id="editor-insertmore" transform="translate(80.000000, 80.000000)" fill-rule="nonzero" fill="#8BA0AA">
                <path d="M80,22.8571429 L80,0 L0,0 L0,22.8571429 L80,22.8571429 Z M17.1428571,45.7142857 L17.1428571,34.2857143 L0,34.2857143 L0,45.7142857 L17.1428571,45.7142857 Z M51.4285714,45.7142857 L51.4285714,34.2857143 L28.5714286,34.2857143 L28.5714286,45.7142857 L51.4285714,45.7142857 Z M80,45.7142857 L80,34.2857143 L62.8571429,34.2857143 L62.8571429,45.7142857 L80,45.7142857 Z M80,80 L80,57.1428571 L0,57.1428571 L0,80 L80,80 Z" id="Shape"></path>
            </g>
        </g>
    </g>
</svg>