<?xml version="1.0" encoding="UTF-8"?>
<svg width="100px" height="100px" viewBox="0 0 200 200" version="1.1" xmlns="http://www.w3.org/2000/svg" xmlns:xlink="http://www.w3.org/1999/xlink">
    <!-- Generator: Sketch 43.2 (39069) - http://www.bohemiancoding.com/sketch -->
    <title>image</title>
    <desc>Created with Sketch.</desc>
    <defs></defs>
    <g id="Page-1" stroke="none" stroke-width="1" fill="none" fill-rule="evenodd">
        <g id="Image" transform="translate(-20.000000, -20.000000)">
            <rect id="Rectangle" fill="#32373C" x="20" y="20" width="199.997406" height="200" rx="2"></rect>
            <g id="format-image" transform="translate(80.000000, 80.000000)" fill-rule="nonzero" fill="#8BA0AA">
                <path d="M5.55555556,0 L74.4444444,0 C77.5111111,0 80,2.48888889 80,5.55555556 L80,74.4444444 C80,77.5111111 77.5111111,80 74.4444444,80 L5.55555556,80 C2.48888889,80 0,77.5111111 0,74.4444444 L0,5.55555556 C0,2.48888889 2.48888889,0 5.55555556,0 Z M71.1111111,71.1111111 L71.1111111,8.88888889 L8.88888889,8.88888889 L8.88888889,71.1111111 L71.1111111,71.1111111 Z M40,22.2222222 C40,17.3333333 36,13.3333333 31.1111111,13.3333333 C26.2222222,13.3333333 22.2222222,17.3333333 22.2222222,22.2222222 C22.2222222,27.1111111 26.2222222,31.1111111 31.1111111,31.1111111 C36,31.1111111 40,27.1111111 40,22.2222222 Z M53.3333333,44.4444444 C53.3333333,44.4444444 53.3333333,17.7777778 66.6666667,17.7777778 L66.6666667,62.2222222 C66.6666667,64.6666667 64.6666667,66.6666667 62.2222222,66.6666667 L17.7777778,66.6666667 C15.3333333,66.6666667 13.3333333,64.6666667 13.3333333,62.2222222 L13.3333333,31.1111111 C22.2222222,31.1111111 26.6666667,48.8888889 26.6666667,48.8888889 C26.6666667,48.8888889 31.1111111,35.5555556 40,35.5555556 C48.8888889,35.5555556 53.3333333,44.4444444 53.3333333,44.4444444 Z" id="Shape"></path>
            </g>
        </g>
    </g>
</svg>