<?xml version="1.0" encoding="UTF-8"?>
<svg width="100px" height="100px" viewBox="0 0 200 200" version="1.1" xmlns="http://www.w3.org/2000/svg" xmlns:xlink="http://www.w3.org/1999/xlink">
    <!-- Generator: Sketch 43.2 (39069) - http://www.bohemiancoding.com/sketch -->
    <title>posttype</title>
    <desc>Created with Sketch.</desc>
    <defs></defs>
    <g id="Page-1" stroke="none" stroke-width="1" fill="none" fill-rule="evenodd">
        <g id="Posttype" transform="translate(-20.000000, -20.000000)">
            <rect id="Rectangle" fill="#32373C" x="20" y="20" width="199.997406" height="200" rx="2"></rect>
            <g id="admin-post" transform="translate(81.000000, 81.000000)" fill-rule="nonzero" fill="#8BA0AA">
                <path d="M40.9555556,8.97777778 L49.0444444,0.888888889 L77.3111111,29.1111111 L69.1777778,37.2 C64.5111111,34.1777778 58.1555556,34.6666667 54.0222222,38.8 L50.6888889,42.1333333 C46.6,46.2666667 46.0666667,52.5777778 49.1333333,57.2888889 L41,65.3777778 L30.2888889,54.6666667 L17.8444444,67.0666667 C15.9777778,68.9333333 2.82222222,79.1111111 0.955555556,77.2444444 C-0.911111111,75.3777778 9.22222222,62.1777778 11.0888889,60.3111111 L23.4888889,47.9111111 L12.7777778,37.1555556 L20.9111111,29.0666667 C25.5777778,32.1333333 31.9333333,31.6 36.0222222,27.4666667 L39.3555556,24.1333333 C43.4888889,20.0444444 44.0222222,13.6888889 40.9555556,8.97777778 L40.9555556,8.97777778 Z" id="Shape"></path>
            </g>
        </g>
    </g>
</svg>