<?xml version="1.0" encoding="UTF-8"?>
<svg width="100px" height="100px" viewBox="0 0 200 200" version="1.1" xmlns="http://www.w3.org/2000/svg" xmlns:xlink="http://www.w3.org/1999/xlink">
    <!-- Generator: Sketch 43.2 (39069) - http://www.bohemiancoding.com/sketch -->
    <title>share</title>
    <desc>Created with Sketch.</desc>
    <defs></defs>
    <g id="Page-1" stroke="none" stroke-width="1" fill="none" fill-rule="evenodd">
        <g id="Share" transform="translate(-20.000000, -20.000000)">
            <rect id="Rectangle" fill="#32373C" x="20" y="20" width="199.997406" height="200" rx="2"></rect>
            <g id="share" transform="translate(80.000000, 80.000000)" fill-rule="nonzero" fill="#8BA0AA">
                <path d="M62.5,50 C70.8,50 77.5,56.7 77.5,65 C77.5,73.3 70.8,80 62.5,80 C54.2,80 47.5,73.3 47.5,65 C47.5,63.8 47.65,62.7 47.95,61.55 L26.05,50.05 C23.3,53.1 19.4,55 15,55 C6.7,55 0,48.3 0,40 C0,31.7 6.7,25 15,25 C19.4,25 23.3,26.95 26.05,29.95 L47.95,18.45 C47.65,17.3 47.5,16.2 47.5,15 C47.5,6.7 54.2,1.77635684e-15 62.5,1.77635684e-15 C70.8,1.77635684e-15 77.5,6.7 77.5,15 C77.5,23.3 70.8,30 62.5,30 C58.1,30 54.2,28.05 51.45,25.05 L29.55,36.55 C29.85,37.7 30,38.8 30,40 C30,41.2 29.85,42.3 29.55,43.45 L51.45,54.95 C54.2,51.9 58.1,50 62.5,50 L62.5,50 Z" id="Shape"></path>
            </g>
        </g>
    </g>
</svg>
