<?xml version="1.0" encoding="UTF-8"?>
<svg width="100px" height="100px" viewBox="0 0 200 200" version="1.1" xmlns="http://www.w3.org/2000/svg" xmlns:xlink="http://www.w3.org/1999/xlink">
    <!-- Generator: Sketch 43.2 (39069) - http://www.bohemiancoding.com/sketch -->
    <title>woocommerce</title>
    <desc>Created with Sketch.</desc>
    <defs></defs>
    <g id="Page-1" stroke="none" stroke-width="1" fill="none" fill-rule="evenodd">
        <g id="Woocommerce" transform="translate(-20.000000, -20.000000)">
            <rect id="Rectangle" fill="#32373C" x="20" y="20" width="199.997406" height="200" rx="2"></rect>
            <g id="cart" transform="translate(80.000000, 82.000000)" fill-rule="nonzero" fill="#8BA0AA">
                <path d="M22.2222222,48.8888889 L62.2222222,48.8888889 C64.6666667,48.8888889 66.6666667,50.8888889 66.6666667,53.3333333 C66.6666667,55.7777778 64.6666667,57.7777778 62.2222222,57.7777778 L17.7777778,57.7777778 C15.3333333,57.7777778 13.3333333,55.7777778 13.3333333,53.3333333 L13.3333333,8.88888889 L4.44444444,8.88888889 C2,8.88888889 0,6.88888889 0,4.44444444 C0,2 2,0 4.44444444,0 L17.7777778,0 C20.2222222,0 22.2222222,2 22.2222222,4.44444444 L22.2222222,13.3333333 L80,13.3333333 L62.2222222,44.4444444 L22.2222222,44.4444444 L22.2222222,48.8888889 Z M20,62.2222222 C23.6888889,62.2222222 26.6666667,65.2 26.6666667,68.8888889 C26.6666667,72.5777778 23.6888889,75.5555556 20,75.5555556 C16.3111111,75.5555556 13.3333333,72.5777778 13.3333333,68.8888889 C13.3333333,65.2 16.3111111,62.2222222 20,62.2222222 Z M60,62.2222222 C63.6888889,62.2222222 66.6666667,65.2 66.6666667,68.8888889 C66.6666667,72.5777778 63.6888889,75.5555556 60,75.5555556 C56.3111111,75.5555556 53.3333333,72.5777778 53.3333333,68.8888889 C53.3333333,65.2 56.3111111,62.2222222 60,62.2222222 Z" id="Shape"></path>
            </g>
        </g>
    </g>
</svg>