<?xml version="1.0" encoding="UTF-8"?>
<svg width="100px" height="100px" viewBox="0 0 200 200" version="1.1" xmlns="http://www.w3.org/2000/svg" xmlns:xlink="http://www.w3.org/1999/xlink">
    <!-- Generator: Sketch 43.2 (39069) - http://www.bohemiancoding.com/sketch -->
    <title>wordpress</title>
    <desc>Created with Sketch.</desc>
    <defs></defs>
    <g id="Page-1" stroke="none" stroke-width="1" fill="none" fill-rule="evenodd">
        <g id="WordPress" transform="translate(-20.000000, -20.000000)">
            <rect id="Rectangle" fill="#32373C" x="20" y="20" width="199.997406" height="200" rx="2"></rect>
            <g id="wordpress" transform="translate(79.000000, 80.000000)" fill-rule="nonzero" fill="#8BA0AA">
                <path d="M80,40 C80,17.92 62.08,0 40,0 C17.92,0 0,17.92 0,40 C0,62.08 17.92,80 40,80 C62.08,80 80,62.08 80,40 Z M40,4.04 C59.88,4.04 75.96,20.12 75.96,40 C75.96,59.88 59.88,75.96 40,75.96 C20.12,75.96 4.04,59.88 4.04,40 C4.04,20.12 20.12,4.04 40,4.04 L40,4.04 Z M32.04,59.28 L19.84,26.44 C21.8,26.32 24.04,26.12 24.04,26.12 C25.76,25.92 25.56,22.08 23.8,22.16 C23.8,22.16 18.64,22.56 15.28,22.56 C14.68,22.56 13.96,22.56 13.2,22.52 C18.96,13.84 28.8,8.12 40,8.12 C48.36,8.12 55.96,11.28 61.64,16.48 C59.24,16.16 55.84,17.88 55.84,22.16 C55.84,24.8 57.36,27.04 59,29.68 C60.24,31.84 61,34.56 61,38.52 C61,43.88 55.92,56.44 55.92,56.44 L45.08,26.44 C47,26.32 48.08,25.8 48.08,25.8 C49.8,25.6 49.6,21.4 47.88,21.48 C47.88,21.48 42.68,21.92 39.32,21.92 C36.2,21.92 30.88,21.48 30.88,21.48 C29.16,21.4 28.96,25.72 30.68,25.8 L34.04,26.12 L38.52,38.28 L32.04,59.28 Z M56.12,67.88 L66.56,40 C66.56,40 69.24,33.24 68.12,24.76 C70.64,29.32 71.88,34.44 71.88,40 C71.88,51.84 65.64,62.32 56.12,67.88 L56.12,67.88 Z M10.72,27.08 L26,69 C15.32,63.8 8.12,52.68 8.12,40 C8.12,35.36 8.92,31.08 10.72,27.08 Z M40.52,45.2 L49.68,70.2 C46.68,71.28 43.4,71.88 40,71.88 C37.12,71.88 34.36,71.44 31.76,70.68 L40.52,45.2 Z" id="Shape"></path>
            </g>
        </g>
    </g>
</svg>
