<?xml version="1.0" encoding="UTF-8"?>
<svg width="436px" height="221px" viewBox="0 0 436 221" version="1.1" xmlns="http://www.w3.org/2000/svg" xmlns:xlink="http://www.w3.org/1999/xlink">
    <!-- Generator: Sketch 42 (36781) - http://www.bohemiancoding.com/sketch -->
    <title>Logo-white</title>
    <desc>Created with Sketch.</desc>
    <defs>
        <polygon id="path-1" points="0 95.2687645 0 0.396170803 67.7313849 0.396170803 67.7313849 95.2687645 3.44387119e-15 95.2687645"></polygon>
        <polygon id="path-3" points="45.734017 0.545117967 45.734017 23.2817864 0.301965937 23.2817864 0.301965937 0.545117967"></polygon>
    </defs>
    <g id="Page-1" stroke="none" stroke-width="1" fill="none" fill-rule="evenodd">
        <g id="Logo-white">
            <path d="M115.997982,60.2862234 C116.64976,60.6711236 117.395106,60.8720798 118.146831,60.8720798 C118.353103,60.8720798 118.560439,60.8561309 118.765648,60.8263596 C120.034118,60.6370993 121.135656,59.8949436 121.787434,58.7891528 C122.513641,57.5589606 123.270682,56.3287684 124.038356,55.1379168 C124.651858,54.1884253 124.85813,53.056053 124.618897,51.9513255 C124.380726,50.8465981 123.725758,49.9013596 122.77733,49.2910482 C121.825712,48.677547 120.695466,48.473401 119.590738,48.710508 C118.487074,48.9497416 117.541836,49.60471 116.930461,50.5542015 C116.106434,51.8333036 115.288787,53.1602526 114.500911,54.4967708 C113.927814,55.4685908 113.766198,56.6062793 114.049026,57.7003742 C114.332916,58.7955324 115.025099,59.7141893 115.997982,60.2862234" id="Fill-1" fill="#FFFFFF" fill-rule="nonzero"></path>
            <g id="Group-5" transform="translate(0.000000, 77.184195)">
                <g id="Fill-3-Clipped">
                    <g>
                        <mask id="mask-2" fill="white">
                            <use xlink:href="#path-1"></use>
                        </mask>
                        <g id="path-1"></g>
                        <path d="M54.2800783,9.01070608 C47.7899372,3.34778151 39.2944871,0.396170803 30.4449713,0.396170803 C20.7682389,0.396170803 13.6879883,3.5838253 8.37806618,9.48279367 C0.707706083,17.7432633 -0.000425304136,31.4306136 -0.000425304136,45.5911148 C-0.000425304136,54.5597158 1.29781557,63.7632973 4.83847251,72.2587474 C6.25367202,75.6803192 7.90597859,78.1587791 10.619419,80.4011951 C12.7448764,82.0513752 17.5816477,83.467638 20.4141732,83.467638 C22.3025236,83.467638 23.835745,82.6436112 25.015964,81.4633922 C28.0834701,78.3948229 29.0287085,74.0290759 29.0287085,68.9551976 C29.0287085,60.3406623 28.9106866,52.6713655 29.0287085,42.5236088 C29.0287085,39.2189956 29.2647523,31.1956331 27.25838,28.3631075 C25.2520078,25.530582 22.6565893,24.1143192 19.4710613,24.2323411 C16.2844701,24.3514263 14.3950564,25.4125601 14.5152049,29.5433265 C14.9872925,48.6596842 15.1031878,51.1360175 15.222273,68.9551976 L15.222273,71.3156355 C15.222273,74.8541659 13.9250954,75.0902097 12.5088326,71.7866599 C8.84909051,63.2912097 7.1978472,53.8515844 7.3158691,44.292874 C7.3158691,32.6097693 7.5519129,20.3386818 14.3950564,13.376453 C18.5258229,9.12872798 22.5385674,7.35839951 29.8537985,7.59444331 C36.6980054,7.83155036 42.598037,12.0792754 46.0196088,18.3333727 C48.7330491,23.170144 51.5655747,34.2631392 51.5655747,46.1812243 C51.5655747,52.7893873 51.5655747,60.1046185 49.3252852,66.947762 C44.9574117,80.519217 36.6980054,88.6606015 22.6565893,88.6606015 C20.2961513,88.6606015 19.1169956,89.9588423 18.8798886,91.1390613 C18.5258229,93.0263484 20.0601075,94.0885455 22.0664798,94.678655 C24.1898107,95.2687645 26.9043144,95.2687645 28.5566209,95.2687645 C37.052071,95.1507426 46.7277401,91.4920637 54.7521659,83.2326574 C59.9440662,77.8047134 67.7313849,65.5336258 67.7313849,44.1748521 C67.7313849,29.4253046 62.3045041,15.9729348 54.2800783,9.01070608" id="Fill-3" fill="#FFFFFF" fill-rule="nonzero" mask="url(#mask-2)"></path>
                    </g>
                </g>
            </g>
            <path d="M153.749997,86.1949007 C157.642593,86.1949007 160.829184,82.8924141 160.829184,78.9966282 C160.829184,74.984947 157.642593,71.6824603 153.749997,71.6824603 C149.973296,71.6824603 146.787768,74.984947 146.787768,78.9966282 C146.787768,82.8924141 149.973296,86.1949007 153.749997,86.1949007" id="Fill-6" fill="#FFFFFF" fill-rule="nonzero"></path>
            <path d="M153.749997,71.682035 C157.642593,71.682035 160.829184,74.9845217 160.829184,78.9972662 C160.829184,82.8919888 157.642593,86.1944754 153.749997,86.1944754 C149.973296,86.1944754 146.786705,82.8919888 146.786705,78.9972662 C146.786705,74.9845217 149.973296,71.682035 153.749997,71.682035" id="Fill-8" fill="#FFFFFF" fill-rule="nonzero"></path>
            <path d="M330.391351,114.190652 C331.014422,113.830207 331.634303,113.461255 332.25312,113.089114 C332.343497,112.846691 332.434938,112.610647 332.525315,112.362907 C332.39666,111.828087 332.230792,111.280508 332.042595,110.651058 C331.925636,110.268284 331.807614,109.871688 331.689592,109.45808 C331.394006,108.425654 331.086724,107.340065 330.815592,106.222579 C330.252064,106.569202 329.693853,106.911572 329.135641,107.249688 C329.899062,109.561216 330.249938,112.024791 330.391351,114.190652" id="Fill-12" fill="#FFFFFF" fill-rule="nonzero"></path>
            <g id="Group-16" transform="translate(390.216545, 96.322881)">
                <g id="Fill-14-Clipped">
                    <g>
                        <mask id="mask-4" fill="white">
                            <use xlink:href="#path-3"></use>
                        </mask>
                        <g id="path-3"></g>
                        <path d="M42.6569416,0.592873966 C34.5910487,0.0208399027 26.9951168,4.6885528 19.7107202,9.19146034 C13.5278613,13.0138813 7.68418248,16.6257766 2.20626521,16.737419 C1.57681509,16.7246599 0.942048662,16.6587377 0.301965937,16.557728 C0.993085158,18.0345966 1.70334307,19.5476161 2.3859562,21.0000297 C2.7559708,21.7879056 3.11216302,22.544947 3.45772263,23.2817864 C3.78839659,23.2562681 4.12013382,23.2275601 4.44974453,23.1860929 L4.45612409,23.1765236 L4.64538443,22.879874 C6.2413382,20.3620735 8.42952798,16.9139202 12.6591776,16.9139202 C13.7032993,16.9139202 14.7484842,17.1467742 15.7681509,17.6050394 L15.8564015,17.6454433 L15.9435888,17.689037 C16.3720827,17.9027523 16.7708054,18.1558083 17.145073,18.432256 C19.1822798,17.2892511 21.1939684,16.0452365 23.1865182,14.813981 C29.8893114,10.6715187 36.1838127,6.7661635 42.1997397,7.1872146 C44.0274842,7.31799562 45.6000462,5.94001022 45.7265742,4.11864526 C45.7318905,4.04102725 45.7350803,3.96340925 45.7350803,3.88579124 C45.734017,2.16543601 44.4006886,0.714085645 42.6569416,0.592873966" id="Fill-14" fill="#FFFFFF" fill-rule="nonzero" mask="url(#mask-4)"></path>
                    </g>
                </g>
            </g>
            <path d="M353.142464,100.294583 C353.253044,101.485435 353.351927,102.492343 353.625185,103.479048 C356.812839,103.497124 360.128085,104.711367 363.562416,106.480632 C362.955294,104.043639 362.521484,101.440778 362.808564,98.8687513 C359.786778,97.650255 356.70864,96.8655689 353.557136,96.8655689 C353.26155,96.8655689 352.970216,96.8836443 352.67782,96.8974667 C352.935129,98.1223426 353.046771,99.2696005 353.142464,100.294583" id="Fill-17" fill="#FFFFFF" fill-rule="nonzero"></path>
            <path d="M420.994848,162.369636 C413.117153,161.818867 405.697722,166.369621 398.58451,170.766203 C392.545191,174.500373 386.838673,178.028271 381.488347,178.136724 C376.180552,178.028271 370.468717,174.487614 364.421955,170.741748 C361.258756,168.781096 358.042393,166.794926 354.759045,165.240439 C353.075904,165.728475 351.307702,165.981531 349.502286,165.981531 C348.477303,165.981531 347.439561,165.898597 346.416705,165.735918 C343.95951,165.370157 341.712841,164.299454 339.836187,162.670539 C333.778792,163.764634 328.026554,167.31167 322.434868,170.770456 C316.300919,174.563106 310.50934,178.146293 305.087775,178.146293 C303.304688,178.146293 301.859717,179.592327 301.859717,181.374351 C301.859717,183.157439 303.304688,184.60241 305.087775,184.60241 C312.343464,184.60241 319.201493,180.362127 325.830921,176.262196 C332.055247,172.41213 337.932951,168.776843 343.531016,168.776843 C348.992985,168.776843 354.836664,172.397244 361.022712,176.229235 C367.366123,180.160108 373.917934,184.221763 380.784469,184.571575 C381.01307,184.603473 381.250177,184.608789 381.488347,184.59603 C381.54151,184.598157 381.588294,184.600283 381.634014,184.60241 L381.711632,184.60241 L381.712695,184.60241 L381.715885,184.60241 L381.720138,184.60241 C381.723328,184.603473 381.730771,184.603473 381.73715,184.60241 C381.889196,184.60241 382.038053,184.591777 382.184783,184.572638 C389.091722,184.227079 395.639279,180.17712 401.9795,176.259006 C408.524931,172.212237 414.673766,168.412145 420.548279,168.810867 C422.333493,168.942711 423.868841,167.591308 423.992179,165.813536 C423.997496,165.736982 423.999622,165.66149 423.999622,165.584935 C423.998559,163.904984 422.697128,162.487658 420.994848,162.369636" id="Fill-19" fill="#FFFFFF" fill-rule="nonzero"></path>
            <path d="M422.949972,131.64726 C415.219006,131.101808 407.917597,135.364418 400.910711,139.685508 C401.26265,142.042756 401.308371,144.726426 401.034049,147.371817 C401.85276,146.873148 402.668281,146.370226 403.479548,145.867304 C410.181278,141.724842 416.476843,137.826929 422.49277,138.240537 C424.320514,138.373445 425.893076,136.993333 426.019604,135.171968 C426.02492,135.09435 426.027047,135.016732 426.027047,134.940177 C426.027047,133.218759 424.692655,131.767409 422.949972,131.64726" id="Fill-21" fill="#FFFFFF" fill-rule="nonzero"></path>
            <path d="M101.708401,96.397628 C101.963583,96.5050173 102.216639,96.6124066 102.464379,96.7272387 C102.583464,96.781465 102.701486,96.838881 102.819508,96.8962971 C103.054488,97.0090027 103.284153,97.1248981 103.510627,97.2439832 C103.61908,97.3013993 103.727532,97.3566888 103.834921,97.4162314 C104.078408,97.5491389 104.317642,97.6852363 104.553685,97.8245234 C104.63024,97.8702436 104.709985,97.9149005 104.787603,97.9616839 C105.429812,98.349774 106.03587,98.7538129 106.605778,99.1621049 C106.608968,99.1642314 106.612157,99.1663579 106.615347,99.1684844 C106.900301,99.3726304 107.174622,99.5767764 107.440437,99.7819856 C107.460639,99.7968713 107.480841,99.8128202 107.49998,99.8287691 C107.761542,100.028662 108.014598,100.228555 108.257021,100.426321 C109.078921,91.974465 110.946007,83.6406304 113.844454,75.6629881 C114.231481,74.6018543 114.180445,73.4535331 113.703041,72.4296134 C113.225637,71.4046304 112.377155,70.6284504 111.313895,70.2424869 C110.252761,69.8565234 109.103376,69.9086231 108.081583,70.386027 C107.0566,70.8644942 106.28042,71.7140392 105.896583,72.7741097 C103.185269,80.2360708 101.303299,87.9861754 100.267683,95.8564285 C100.268746,95.8564285 100.268746,95.8574917 100.270873,95.8574917 C100.65152,95.9818932 101.021535,96.1190538 101.38517,96.2636572 C101.495749,96.3061876 101.599948,96.352971 101.708401,96.397628" id="Fill-23" fill="#FFFFFF" fill-rule="nonzero"></path>
            <path d="M107.440012,99.7815603 C107.174197,99.5774144 106.899876,99.3722051 106.615985,99.1691224 C106.899876,99.3722051 107.174197,99.5774144 107.440012,99.7815603" id="Fill-25" fill="#FFFFFF" fill-rule="nonzero"></path>
            <path d="M100.271298,95.8577044 C100.650882,95.9821058 101.02196,96.1192664 101.385595,96.2638698 C101.02196,96.1192664 100.650882,95.9821058 100.271298,95.8577044" id="Fill-27" fill="#FFFFFF" fill-rule="nonzero"></path>
            <path d="M108.257127,100.426428 L108.257127,100.426428 C108.013641,100.227598 107.761648,100.028768 107.500086,99.8288754 C107.761648,100.028768 108.014704,100.228661 108.257127,100.426428" id="Fill-29" fill="#FFFFFF" fill-rule="nonzero"></path>
            <path d="M104.553366,97.8243107 C104.317323,97.6850236 104.079152,97.5489263 103.834602,97.4160187 C104.079152,97.5489263 104.317323,97.6850236 104.553366,97.8243107" id="Fill-31" fill="#FFFFFF" fill-rule="nonzero"></path>
            <path d="M103.510946,97.2438769 C103.284472,97.1247917 103.053744,97.0088964 102.819827,96.8961908 C103.053744,97.0078331 103.284472,97.1247917 103.510946,97.2438769" id="Fill-33" fill="#FFFFFF" fill-rule="nonzero"></path>
            <path d="M106.606203,99.1616796 C106.036296,98.7533876 105.430237,98.3493487 104.786965,97.9612586 C105.429174,98.3493487 106.036296,98.7533876 106.606203,99.1616796" id="Fill-35" fill="#FFFFFF" fill-rule="nonzero"></path>
            <path d="M102.464273,96.7268134 C102.216533,96.6130445 101.963477,96.504592 101.708294,96.3972027 C101.963477,96.504592 102.217596,96.6130445 102.464273,96.7268134" id="Fill-37" fill="#FFFFFF" fill-rule="nonzero"></path>
            <path d="M302.813036,165.399503 C302.153815,165.203863 301.508416,164.979515 300.876839,164.733902 C300.82155,164.712636 300.76626,164.691371 300.710971,164.669043 C300.090027,164.422366 299.485031,164.150172 298.894922,163.854585 C298.848138,163.83013 298.801355,163.806739 298.753508,163.782284 C298.148513,163.473938 297.56053,163.143264 296.990623,162.784945 C295.309608,165.571751 293.49037,168.296887 291.529718,170.946532 C275.321377,192.848632 251.594722,207.121838 224.721881,211.137773 C183.596034,217.288734 144.449978,197.814057 123.512255,164.750914 C122.366061,164.321357 121.274092,163.718488 120.270374,163.00823 C120.255489,162.997598 120.238477,162.986965 120.222528,162.976332 C119.584572,162.51913 118.983829,162.021525 118.430934,161.499464 C118.388404,161.460123 118.346936,161.420782 118.305469,161.380379 C118.038591,161.124133 117.781282,160.863634 117.539922,160.598882 C117.530353,160.589313 117.520783,160.577617 117.512277,160.566984 C117.290056,160.322435 117.080593,160.074695 116.881764,159.825892 C116.830727,159.762096 116.780754,159.699364 116.730781,159.635568 C116.530888,159.376133 116.337374,159.116697 116.164063,158.859388 C115.418718,157.778053 114.783951,156.666945 114.260827,155.521814 C113.703679,156.221439 113.135898,156.889167 112.560674,157.532439 C112.552168,157.542009 112.542598,157.551578 112.533029,157.562211 C111.965248,158.195914 111.386834,158.797719 110.802041,159.374006 C129.17199,196.365897 167.367491,220.724128 209.594876,220.724128 C214.998365,220.724128 220.470966,220.324342 225.972275,219.503505 C255.077963,215.15477 280.773776,199.697091 298.326078,175.976817 C300.733299,172.72643 302.938501,169.369717 304.955506,165.93007 C304.243121,165.786529 303.543496,165.612155 302.855567,165.411199 C302.841744,165.406945 302.827922,165.403756 302.813036,165.399503" id="Fill-39" fill="#FFFFFF" fill-rule="nonzero"></path>
            <path d="M116.881657,159.825679 C117.080487,160.074482 117.289949,160.322222 117.512171,160.566772 C117.289949,160.322222 117.080487,160.074482 116.881657,159.825679" id="Fill-41" fill="#FFFFFF" fill-rule="nonzero"></path>
            <path d="M116.164169,158.858963 C116.337481,159.116272 116.530994,159.375708 116.730887,159.635143 C116.530994,159.376771 116.337481,159.116272 116.164169,158.858963" id="Fill-43" fill="#FFFFFF" fill-rule="nonzero"></path>
            <path d="M118.430828,161.499464 C118.984786,162.021525 119.584465,162.51913 120.223485,162.976332 C119.583402,162.520194 118.984786,162.021525 118.430828,161.499464" id="Fill-45" fill="#FFFFFF" fill-rule="nonzero"></path>
            <path d="M112.561099,157.532014 C113.136323,156.889805 113.703041,156.222077 114.261252,155.521389 C113.703041,156.222077 113.136323,156.890868 112.561099,157.532014" id="Fill-47" fill="#FFFFFF" fill-rule="nonzero"></path>
            <path d="M298.895347,163.854479 C299.485457,164.150065 300.090452,164.42226 300.711396,164.67 C300.091515,164.42226 299.485457,164.150065 298.895347,163.854479" id="Fill-49" fill="#FFFFFF" fill-rule="nonzero"></path>
            <path d="M112.533029,157.562104 C111.964185,158.193681 111.386834,158.797613 110.802041,159.3739 C111.386834,158.797613 111.965248,158.195808 112.533029,157.562104" id="Fill-51" fill="#FFFFFF" fill-rule="nonzero"></path>
            <path d="M123.512468,164.750489 C122.367336,164.323058 121.273242,163.717 120.270587,163.007805 C121.274305,163.718063 122.366273,164.321995 123.512468,164.750489" id="Fill-53" fill="#FFFFFF" fill-rule="nonzero"></path>
            <path d="M302.855567,165.41088 C303.542433,165.611836 304.243121,165.787274 304.955506,165.929751 C304.243121,165.787274 303.542433,165.611836 302.855567,165.41088" id="Fill-55" fill="#FFFFFF" fill-rule="nonzero"></path>
            <path d="M118.30515,161.38006 C118.038272,161.124877 117.782026,160.864378 117.539603,160.599627 C117.780963,160.864378 118.038272,161.123814 118.30515,161.38006" id="Fill-57" fill="#FFFFFF" fill-rule="nonzero"></path>
            <path d="M300.87652,164.733902 C301.50916,164.979515 302.153496,165.203863 302.812717,165.399503 C302.153496,165.203863 301.50916,164.979515 300.87652,164.733902" id="Fill-59" fill="#FFFFFF" fill-rule="nonzero"></path>
            <path d="M296.991048,162.784945 L296.991048,162.784945 C297.559892,163.143264 298.148938,163.473938 298.75287,163.78122 C298.150002,163.472875 297.559892,163.143264 296.991048,162.784945" id="Fill-61" fill="#FFFFFF" fill-rule="nonzero"></path>
            <path d="M310.88297,94.9439384 C314.040853,94.9620139 316.821279,95.8168752 319.199792,96.9960309 C319.079644,96.0178314 318.948863,95.0385686 318.802133,94.0593058 C318.626695,92.8844032 318.426802,91.7169433 318.215213,90.5526732 C317.96641,90.706846 317.71867,90.8599555 317.468804,91.0141282 C315.302943,92.352773 313.115816,93.7041769 310.88297,94.9439384" id="Fill-63" fill="#FFFFFF" fill-rule="nonzero"></path>
            <path d="M314.303265,75.2591618 C311.673823,67.3952883 308.162937,59.8599623 303.789747,52.7254854 C303.097565,51.5984294 301.906713,50.8562737 300.59146,50.7297457 C296.08111,50.118371 291.550557,50.7244294 287.491029,52.4894416 C284.787158,53.6654075 282.339533,55.3166509 280.216202,57.3995779 C279.970589,57.640938 279.555918,57.7015438 279.250762,57.5420547 C276.612813,56.1725754 273.788793,55.3081448 270.860574,54.9753443 C267.950431,54.639354 265.00839,54.847753 262.115258,55.5877822 C261.761192,55.6792226 261.386925,55.5303662 261.197664,55.2326533 C259.599584,52.7286752 257.586832,50.5670669 255.214699,48.8116241 C252.845755,47.059371 250.19292,45.7664465 247.32956,44.9690012 C246.996759,44.8764976 246.734134,44.5468869 246.720312,44.200264 C246.584214,41.2210085 245.92074,38.3448893 244.747964,35.6559039 C243.577314,32.9562859 241.926071,30.5086606 239.838891,28.3789501 C239.597531,28.133337 239.534798,27.7165389 239.693224,27.41032 C241.06802,24.7649282 241.93245,21.9409088 242.262061,19.0222591 C242.772426,14.5586922 242.003689,9.98667275 240.039847,5.80380657 C239.503964,4.65973844 238.493866,3.82082603 237.271117,3.50503771 C222.914976,-0.211057178 208.142037,-0.975541363 193.357402,1.22966058 C169.172482,4.84368248 147.421365,16.0132324 130.457046,33.5304465 C129.670234,34.3417141 129.245993,35.4102908 129.265132,36.5415998 C129.283207,37.6707822 129.740409,38.7265998 130.54636,39.5049063 C131.356565,40.2949088 132.445343,40.7170231 133.55964,40.7021375 C134.693076,40.6829988 135.749956,40.2257968 136.53039,39.4145292 C152.192214,23.2434027 172.275076,12.9329672 194.608859,9.59539294 C207.549801,7.66025912 220.496059,8.1972056 233.099947,11.1839039 C233.856988,13.42632 234.119613,15.7835681 233.859115,18.0663881 C233.644336,19.961118 233.080808,21.7941788 232.185543,23.5166606 C230.33228,27.0902786 230.980869,31.4241277 233.798509,34.3013102 C235.156292,35.6846119 236.229122,37.2741861 236.99148,39.0264392 C237.752774,40.7712494 238.181268,42.6404611 238.267392,44.584101 C238.452399,48.6042883 241.180725,52.0322397 245.059499,53.1167652 C246.926584,53.6356363 248.650129,54.4745487 250.183351,55.611174 C251.718699,56.7456727 253.025445,58.1481131 254.066377,59.777028 C256.196088,63.1241715 260.370448,64.7711618 264.21945,63.7791399 C266.090789,63.297483 268.003594,63.1635122 269.902577,63.3782908 C271.802623,63.5951959 273.636747,64.1576606 275.351786,65.0476095 C278.93072,66.9083151 283.267759,66.2618528 286.139626,63.4367701 C287.521864,62.0811131 289.110375,61.0082835 290.861565,60.2469891 C292.96682,59.3325852 295.29855,58.8945219 297.667494,58.9636338 C301.527129,65.5654173 304.582939,72.5350888 306.853,79.7939672 C307.731253,79.2612737 308.619076,78.7126314 309.516467,78.1586727 C311.065638,77.1996119 312.663718,76.2139696 314.303265,75.2591618" id="Fill-65" fill="#FFFFFF" fill-rule="nonzero"></path>
            <path d="M384.314387,151.213696 L384.314387,151.213696 C384.289932,151.411462 384.247401,151.611355 384.195302,151.811248 C384.188922,151.83464 384.184669,151.856968 384.177226,151.88036 C384.124063,152.070684 384.058141,152.256754 383.981586,152.441762 C383.968827,152.473659 383.956068,152.504494 383.942246,152.535328 C383.862501,152.716083 383.773187,152.891521 383.672178,153.061642 C383.654102,153.091414 383.636027,153.119058 383.619015,153.147766 C383.512689,153.317888 383.397856,153.480567 383.270265,153.632613 C383.253253,153.652815 383.235178,153.671954 383.218165,153.691092 C383.082068,153.848455 382.938528,153.995185 382.781165,154.124903 C382.775849,154.129156 382.770533,154.132345 382.765217,154.136599 C382.608917,154.265253 382.439859,154.376895 382.263358,154.471526 C382.246345,154.482158 382.229333,154.493854 382.210195,154.503423 C382.036883,154.592737 381.854002,154.660786 381.662616,154.713949 C381.632844,154.723518 381.60201,154.733088 381.571175,154.739467 C381.381915,154.785187 381.184148,154.809642 380.978939,154.813895 C380.961927,154.813895 380.944915,154.820275 380.926839,154.820275 C380.905574,154.820275 380.881119,154.813895 380.859854,154.812832 C380.6791,154.808579 380.494092,154.793693 380.303769,154.75329 C378.297397,154.516182 378.297397,151.920764 378.414355,149.679411 C378.473898,149.11801 378.672727,148.535343 378.960871,147.956929 C379.247951,147.378516 379.624345,146.803292 380.037954,146.256776 C380.342046,145.854864 380.665277,145.477406 380.988509,145.118024 C381.544594,144.501333 382.097489,143.952691 382.544058,143.542273 C383.473348,145.608187 384.494078,147.673039 384.417523,150.13236 C384.406891,150.484299 384.373929,150.843681 384.314387,151.213696 M351.629764,151.213696 C351.604246,151.412526 351.561715,151.612418 351.509616,151.812311 C351.504299,151.835703 351.500046,151.856968 351.493667,151.88036 C351.43944,152.070684 351.373518,152.257818 351.2959,152.442825 C351.284204,152.474723 351.271445,152.504494 351.257623,152.535328 C351.177878,152.716083 351.088564,152.891521 350.986491,153.060579 C350.969479,153.091414 350.951404,153.119058 350.932265,153.147766 C350.827002,153.317888 350.71217,153.480567 350.584579,153.632613 C350.56863,153.652815 350.550555,153.671954 350.533543,153.691092 C350.397445,153.848455 350.252842,153.995185 350.095479,154.124903 C350.090163,154.129156 350.08591,154.132345 350.081657,154.136599 C349.923231,154.265253 349.755236,154.376895 349.578735,154.471526 C349.560659,154.482158 349.543647,154.493854 349.525572,154.503423 C349.35226,154.592737 349.168316,154.660786 348.977993,154.715012 C348.947158,154.723518 348.917387,154.733088 348.886552,154.739467 C348.696229,154.785187 348.498462,154.809642 348.294316,154.813895 C348.276241,154.813895 348.260292,154.820275 348.241153,154.820275 C348.220951,154.820275 348.196496,154.813895 348.175231,154.812832 C347.994477,154.808579 347.80947,154.793693 347.618083,154.75329 C347.367153,154.724582 347.148122,154.657596 346.955672,154.558713 C346.764285,154.461956 346.600543,154.332238 346.459129,154.175939 C345.619153,153.24027 345.641482,151.361489 345.729732,149.679411 C345.789275,149.11801 345.988105,148.535343 346.275185,147.956929 C346.563328,147.378516 346.939723,146.803292 347.352268,146.256776 C347.764813,145.711324 348.214572,145.194579 348.649445,144.733124 C348.867414,144.502397 349.081129,144.286555 349.285275,144.087725 C349.488358,143.886769 349.682934,143.704951 349.859436,143.542273 C350.125251,144.133445 350.398509,144.723555 350.650501,145.32217 C350.777029,145.620946 350.897178,145.922912 351.010946,146.229131 C351.574474,147.755973 351.924287,149.368939 351.629764,151.213696 M249.326044,108.496148 C248.147951,107.553036 247.084691,106.372818 246.731689,105.547727 C245.787513,103.423333 245.433448,101.534983 246.141579,100.354764 C246.612603,99.5286107 248.027803,99.4116521 248.617912,100.70883 C249.680109,102.833224 249.563151,104.839596 249.326044,108.496148 M95.9326642,110.856586 C97.348927,109.088384 100.889584,107.435015 102.422805,110.502521 C104.665221,115.223397 103.130937,121.359472 101.24365,126.432287 C100.534455,128.320637 98.8821484,130.563054 97.1139465,132.333382 C95.9326642,133.512538 94.0453771,134.456713 92.3920073,134.574735 C90.6216788,134.692757 89.2075426,133.866603 89.3255645,131.271185 C89.4435864,123.954891 91.2128516,116.757681 95.9326642,110.856586 M312.101998,110.856586 C313.51826,109.088384 317.057854,107.435015 318.591075,110.502521 C320.834555,115.223397 319.30027,121.359472 317.41192,126.432287 C316.704852,128.320637 315.051482,130.563054 313.282217,132.333382 C312.101998,133.512538 310.213647,134.456713 308.561341,134.574735 C306.791012,134.692757 305.376876,133.866603 305.493835,131.271185 C305.611856,123.954891 307.383248,116.757681 312.101998,110.856586 M404.020854,118.290903 C401.660416,117.228706 400.362175,119.471122 398.709869,122.067603 C396.93954,125.136173 395.407382,127.022397 392.809837,129.264813 C392.220791,127.84855 391.512659,126.432287 390.92255,125.016024 C388.563175,119.943209 384.078343,110.502521 382.308015,106.490839 C380.419664,102.125092 381.720032,98.7035207 379.595637,94.92682 C378.178311,92.4483601 376.644027,91.9762725 374.75674,92.0942944 C373.105496,92.2133796 370.981102,92.9215109 368.97473,95.7529732 C366.49627,99.0575864 367.558467,103.18729 368.97473,108.143146 C369.446818,109.794389 369.918905,111.093693 370.154949,112.744937 C369.263937,115.307394 368.476061,117.142582 367.595681,119.722051 C367.07681,120.396158 366.570698,121.210616 366.025246,122.067603 C364.254917,125.136173 362.721696,127.022397 360.125214,129.264813 C359.535105,127.84855 358.826973,126.432287 358.237927,125.016024 C355.877489,119.943209 351.39372,110.502521 349.623392,106.490839 C347.735041,102.125092 349.033282,98.7035207 346.909951,94.92682 C345.493689,92.4483601 343.959404,91.9762725 342.072117,92.0942944 C340.41981,92.2133796 338.296479,92.9215109 336.290107,95.7529732 C333.811647,99.0575864 334.873844,103.18729 336.290107,108.143146 C336.761131,109.794389 337.234282,111.093693 337.469263,112.744937 C336.654805,115.087299 335.926472,116.817224 335.135406,119.069209 C334.730304,119.941083 334.407073,120.994774 334.049818,122.067603 C330.746268,132.333382 326.733523,145.431686 317.764922,152.864939 C316.112616,154.162117 313.872326,155.460358 311.62991,155.57838 C309.387494,155.697465 307.736251,154.281202 306.791012,151.802742 C305.611856,148.617214 304.903725,143.778316 305.02281,140.356745 C306.085007,140.947917 307.264163,141.182898 308.561341,141.064876 C311.747932,140.947917 315.523569,138.941545 318.591075,135.282866 C322.721842,130.917119 324.964258,125.724156 325.553304,119.825187 C325.90737,116.875703 325.90737,107.908165 322.249754,104.839596 C318.118988,101.298939 313.51826,98.7035207 307.499144,100.11872 C301.717134,101.534983 297.234428,105.664686 294.519925,110.739628 C293.157888,113.366944 292.051034,116.080384 291.195109,118.859747 C290.693251,119.769898 290.305161,120.906523 289.918134,122.067603 C286.37854,132.451404 283.547078,140.71081 278.826202,150.505564 C277.292981,153.691092 275.168586,153.808051 275.286608,151.095674 C275.522652,141.064876 276.230783,131.035141 277.056937,118.172881 C277.292981,114.987353 277.882027,111.093693 276.348805,108.496148 C274.578477,105.547727 272.10108,104.01238 268.914489,103.895421 C266.318007,103.895421 264.667827,104.366445 262.424348,106.255859 C261.12717,107.198971 260.299954,107.908165 258.766732,108.615234 C256.996404,109.441387 256.288273,109.441387 255.345161,109.20428 C255.461056,107.788017 255.580141,105.782708 255.580141,104.249487 C255.580141,98.7035207 252.984723,93.3925353 246.965606,93.3925353 C243.466416,93.3925353 240.999652,95.3383017 239.903431,98.7205328 C237.256976,84.8960219 225.937506,76.8726594 210.152343,76.8726594 C198.824367,76.8726594 190.209832,80.6493601 184.310864,87.138438 C176.921204,95.0958783 173.484747,107.109657 173.24126,120.636455 C173.071139,121.100036 172.90846,121.581693 172.746844,122.067603 C169.207251,132.451404 166.374725,140.71081 161.655976,150.505564 C160.121691,153.691092 157.996234,153.808051 158.115319,151.095674 C158.350299,141.064876 159.177516,131.035141 159.767625,120.061231 C159.885647,116.757681 161.064803,108.850214 159.177516,105.782708 C157.407187,102.833224 154.929791,101.298939 151.7432,101.180917 C148.557672,101.062895 146.668258,102.007071 146.433277,106.136774 C146.219562,110.875725 145.989898,115.60617 145.757044,120.348311 C145.578416,120.862929 145.413611,121.403066 145.255185,121.949582 C141.831487,132.21536 139.001088,140.474766 133.927209,150.387543 C131.919774,154.399224 130.622596,153.453985 130.85864,151.095674 C131.329664,140.120701 132.865012,101.534983 133.454058,90.5600097 C133.573144,87.2575231 134.516255,79.2341606 132.627905,76.2825499 C130.741681,73.334129 128.263221,71.7998443 125.07663,71.6818224 C121.891102,71.5638005 120.002752,72.5079757 119.88473,76.6366156 C119.592333,84.7461022 118.892708,104.161236 118.23455,120.9969 C118.117591,121.347776 118.000633,121.706095 117.880484,122.067603 C114.577998,132.333382 110.56419,145.431686 101.597715,152.864939 C99.9443455,154.162117 97.7029927,155.460358 95.4605766,155.57838 C93.2192238,155.697465 91.5679805,154.281202 90.6216788,151.802742 C89.4435864,148.617214 88.735455,143.778316 88.8534769,140.356745 C89.915674,140.947917 91.0948297,141.182898 92.3920073,141.064876 C95.5785985,140.947917 99.3552993,138.941545 102.422805,135.282866 C106.553572,130.917119 108.795988,125.724156 109.385034,119.825187 C109.7391,116.875703 109.7391,107.908165 106.080421,104.839596 C101.950718,101.298939 97.348927,98.7035207 91.3298102,100.11872 C85.5488637,101.534983 81.0650949,105.664686 78.3505912,110.739628 C75.0470414,117.110684 73.1576277,123.954891 73.0417324,131.153163 C73.0417324,139.295611 73.9848443,149.207324 80.0028978,155.932445 C84.4866667,160.889365 91.920983,162.65863 98.8821484,161.124345 C100.770499,160.77028 102.894893,159.828231 104.665221,158.411968 C109.87945,154.396034 114.113353,148.127051 117.394574,141.261579 C117.313766,143.03935 117.237212,144.605533 117.170226,145.90271 C117.053268,149.797433 117.99638,153.09992 120.120774,156.168489 C121.537036,158.292883 124.486521,160.652258 127.081939,160.652258 C131.565708,160.77028 133.454058,160.416214 136.404606,157.113727 C139.355153,153.808051 141.831487,148.499192 143.484856,144.369489 C143.798518,143.517818 144.246151,142.295068 144.770338,140.850097 C144.69591,142.494961 144.616165,144.123876 144.544927,145.785752 C144.190861,149.679411 145.37108,153.09992 147.376389,156.168489 C148.792652,158.292883 151.7432,160.652258 154.339681,160.652258 C158.82345,160.652258 160.710737,160.535299 163.662348,157.230686 C166.610769,153.927136 168.735163,148.499192 170.505491,144.486448 C171.328455,142.600224 172.745781,139.06382 174.204574,135.250968 C174.963742,140.134523 176.191808,144.969168 178.056766,149.443367 C179.473029,152.864939 181.123209,155.343399 183.837713,157.584752 C185.962107,159.235995 190.799942,160.652258 193.632467,160.652258 C195.519754,160.652258 197.055102,159.828231 198.233195,158.646949 C201.301764,155.57838 202.247002,151.213696 202.247002,146.139818 C202.247002,137.525282 202.127917,129.854922 202.247002,119.707165 C202.247002,116.402552 202.481983,108.380253 200.476674,105.547727 C198.470302,102.715202 195.87382,101.298939 192.688292,101.416961 C189.501701,101.534983 187.614414,102.596117 187.732436,106.726883 C188.205586,125.843241 188.322545,128.320637 188.440567,146.139818 L188.440567,148.499192 C188.440567,152.037723 187.143389,152.27483 185.727127,148.97128 C182.067384,140.474766 180.415078,130.445032 180.535226,120.887384 C180.535226,109.20428 183.483647,97.9953893 190.327854,91.0331606 C194.457557,86.7854355 199.178433,83.8348881 206.493664,84.0709319 C211.096518,84.1889538 215.580287,85.4871946 219.120944,89.4999392 C222.897645,93.746601 224.429803,100.000698 224.429803,106.490839 C224.429803,113.453068 223.60365,120.297275 218.293727,125.843241 C215.815268,128.438659 213.102891,129.972944 210.034321,131.389207 C208.73608,131.979316 208.145971,133.277557 208.263993,134.574735 C208.500036,136.463085 210.270365,136.817151 212.394759,136.817151 C214.51809,136.817151 216.759443,136.225978 218.058747,135.754954 C222.660538,134.220669 227.262328,131.153163 230.802985,127.613569 C236.110781,122.407847 239.579136,115.729509 240.323418,106.936345 C241.262277,109.193647 242.77955,111.260625 244.607294,112.744937 C245.669491,113.57109 247.084691,114.397243 248.263847,114.987353 C247.320735,118.761927 246.731689,120.061231 245.904472,123.246759 C245.550406,125.016024 245.904472,126.668331 247.792822,127.022397 C249.563151,127.376462 250.860328,125.371153 252.040547,122.421669 C252.748679,120.651341 252.984723,120.061231 254.282964,115.813506 C256.643401,115.813506 258.176623,115.577462 260.654019,114.515265 C262.897499,113.57109 263.722589,115.813506 263.486545,119.471122 C262.897499,128.202616 262.070282,135.990998 261.716217,145.785752 C261.362151,149.679411 262.543433,153.09992 264.548742,156.168489 C265.963942,158.292883 268.914489,160.652258 271.510971,160.652258 C275.99474,160.652258 277.882027,160.535299 280.833637,157.230686 C283.782058,153.927136 285.906453,148.499192 287.676781,144.486448 C288.169071,143.358328 288.874012,141.63691 289.673584,139.624158 C290.393411,145.496545 292.142474,151.429538 296.172231,155.932445 C300.654937,160.889365 308.090316,162.65863 315.051482,161.124345 C316.939832,160.77028 319.064226,159.828231 320.834555,158.411968 C331.100333,150.505564 337.590474,133.866603 340.420873,121.122365 C340.437886,121.036241 340.442139,120.94799 340.454898,120.861866 C340.619703,120.547141 340.788762,120.221783 341.008856,119.825187 C342.89827,124.663022 345.612774,131.979316 347.500061,137.053195 C343.251273,141.656049 341.008856,143.188207 339.712742,149.207324 C338.649482,153.808051 341.482007,160.181234 347.144932,161.006324 C350.802547,161.597496 354.225182,160.77028 356.821664,159.1201 C360.362321,156.640577 362.721696,152.156808 363.546786,147.318973 C363.901915,144.369489 363.783893,141.182898 363.193783,138.823523 C362.95774,137.761326 362.721696,136.699129 362.249608,135.51891 C366.733377,131.979316 369.919968,127.967635 372.398428,122.775735 C372.636599,122.332355 372.795024,121.848572 372.869453,121.363725 C373.129951,120.888448 373.357489,120.432309 373.694543,119.825187 C375.582893,124.663022 378.297397,131.979316 380.184684,137.053195 C375.935895,141.656049 373.694543,143.188207 372.397365,149.207324 C371.334105,153.808051 374.16663,160.181234 379.829555,161.006324 C383.488234,161.597496 386.909805,160.77028 389.50735,159.1201 C393.046944,156.640577 395.407382,152.156808 396.232472,147.318973 C396.586538,144.369489 396.469579,141.182898 395.878406,138.823523 C395.642363,137.761326 395.407382,136.699129 394.934231,135.51891 C399.418,131.979316 402.604591,127.967635 405.083051,122.775735 C405.909204,121.24145 405.909204,119.235078 404.020854,118.290903" id="Fill-69" fill="#FFFFFF" fill-rule="nonzero"></path>
            <path d="M351.510147,151.812843 C351.503768,151.835172 351.499515,151.8575 351.493135,151.879828 C351.499515,151.8575 351.503768,151.835172 351.510147,151.812843" id="Fill-71" fill="#FFFFFF" fill-rule="nonzero"></path>
            <path d="M349.859223,143.542485 C349.682722,143.705164 349.488145,143.886982 349.285062,144.087938 C349.488145,143.886982 349.682722,143.705164 349.859223,143.542485" id="Fill-73" fill="#FFFFFF" fill-rule="nonzero"></path>
            <path d="M348.977674,154.715012 C348.947902,154.723518 348.917068,154.733088 348.886233,154.739467 C348.917068,154.733088 348.947902,154.723518 348.977674,154.715012" id="Fill-75" fill="#FFFFFF" fill-rule="nonzero"></path>
            <path d="M348.241472,154.81985 C348.260611,154.81985 348.27656,154.81347 348.294635,154.81347 C348.255295,154.814533 348.214891,154.81347 348.17555,154.812407 C348.196815,154.81347 348.220207,154.81985 348.241472,154.81985" id="Fill-77" fill="#FFFFFF" fill-rule="nonzero"></path>
            <path d="M349.578841,154.472057 C349.560766,154.48269 349.543754,154.494386 349.525678,154.502892 C349.543754,154.494386 349.560766,154.48269 349.578841,154.472057" id="Fill-79" fill="#FFFFFF" fill-rule="nonzero"></path>
            <path d="M346.955991,154.559245 C347.148441,154.658128 347.367472,154.72405 347.618402,154.753821 C347.367472,154.72405 347.148441,154.658128 346.955991,154.559245" id="Fill-81" fill="#FFFFFF" fill-rule="nonzero"></path>
            <path d="M351.296219,152.443037 C351.28346,152.472809 351.271764,152.504707 351.257942,152.535541 C351.271764,152.504707 351.28346,152.473872 351.296219,152.443037" id="Fill-83" fill="#FFFFFF" fill-rule="nonzero"></path>
            <path d="M350.585004,153.633038 C350.567992,153.65324 350.55098,153.671316 350.532905,153.691518 C350.55098,153.671316 350.567992,153.65324 350.585004,153.633038" id="Fill-85" fill="#FFFFFF" fill-rule="nonzero"></path>
            <path d="M350.98681,153.060898 C350.969798,153.090669 350.951723,153.119377 350.932584,153.148085 C350.951723,153.119377 350.968735,153.090669 350.98681,153.060898" id="Fill-87" fill="#FFFFFF" fill-rule="nonzero"></path>
            <path d="M350.095905,154.125222 C350.090588,154.129475 350.085272,154.132664 350.081019,154.136918 C350.085272,154.132664 350.090588,154.129475 350.095905,154.125222" id="Fill-89" fill="#FFFFFF" fill-rule="nonzero"></path>
            <path d="M247.253537,99.7327567 C246.796335,99.7327567 246.363588,99.9656107 246.141366,100.354764 C245.433235,101.534983 245.787301,103.423333 246.731476,105.547727 C247.085542,106.372818 248.146675,107.553036 249.325831,108.496148 C249.562938,104.839596 249.679897,102.833224 248.6177,100.70883 C248.306164,100.023027 247.763902,99.7327567 247.253537,99.7327567" id="Fill-91" fill="#FFFFFF" fill-rule="nonzero"></path>
            <path d="M366.418652,88.0638998 C362.686608,86.6593328 358.789759,84.2499849 354.745117,81.7449436 C347.905163,77.5057246 340.831292,73.1219022 333.354445,73.1219022 C325.743628,73.1219022 318.631479,77.5206102 311.754311,81.7747148 C305.474696,85.6577416 299.54383,89.327053 293.992547,89.327053 C292.166929,89.327053 290.686871,90.8071114 290.686871,92.6327294 C290.686871,94.4583474 292.166929,95.9384058 293.992547,95.9384058 C301.422611,95.9384058 308.443319,91.5960506 315.231173,87.3972355 C321.604355,83.4557294 327.623472,79.733255 333.354445,79.733255 C338.948258,79.733255 344.931224,83.4387173 351.264002,87.3642745 C355.209762,89.80871 359.234202,92.2967392 363.361779,93.9586151 C364.258107,91.9341674 365.318178,89.8214691 366.418652,88.0638998" id="Fill-93" fill="#FFFFFF" fill-rule="nonzero"></path>
            <path d="M412.67154,73.173045 C404.605647,72.6127068 397.009715,77.2676606 389.725319,81.7705681 C386.310127,83.8811399 382.999134,85.9257895 379.794467,87.3548114 C381.361713,88.6360401 382.823696,90.3755341 383.92417,92.7104538 C387.074611,91.1761691 390.161255,89.2729331 393.201117,87.3930888 C399.90391,83.2495633 406.198411,79.3569672 412.214338,79.7663224 C414.042083,79.8971034 415.614645,78.519118 415.741173,76.697753 C415.746489,76.620135 415.749679,76.542517 415.749679,76.4659623 C415.748616,74.7445438 414.415287,73.2931934 412.67154,73.173045" id="Fill-95" fill="#FFFFFF" fill-rule="nonzero"></path>
        </g>
    </g>
</svg>