<?xml version="1.0" encoding="UTF-8"?>
<svg width="428px" height="347px" viewBox="0 0 428 347" version="1.1" xmlns="http://www.w3.org/2000/svg" xmlns:xlink="http://www.w3.org/1999/xlink">
    <!-- Generator: Sketch 42 (36781) - http://www.bohemiancoding.com/sketch -->
    <title>logo-d</title>
    <desc>Created with Sketch.</desc>
    <defs>
        <polygon id="path-1" points="0 211.954704 0 0.480145787 329.247231 0.480145787 329.247231 211.954704 2.08629469e-16 211.954704"></polygon>
    </defs>
    <g id="Page-1" stroke="none" stroke-width="1" fill="none" fill-rule="evenodd">
        <g id="logo-d">
            <path d="M158.401067,229.856967 C156.430881,231.823773 153.871545,233.201922 150.721326,233.201922 C145.995998,233.201922 137.922913,230.842101 134.379351,228.085803 C129.848096,224.346101 127.094687,220.218579 124.729423,214.513803 C118.82233,200.346221 116.656338,185.003057 116.656338,170.049445 C116.656338,146.440848 117.839836,123.616549 130.638249,109.847176 C139.498023,100.007952 151.312209,94.696191 167.460112,94.696191 C182.226978,94.696191 196.404695,99.6149373 207.232921,109.059415 C220.622217,120.66634 229.681262,143.094161 229.681262,167.687893 C229.681262,203.298161 216.68531,223.759176 208.021343,232.808907 C194.630314,246.578281 178.485877,252.679534 164.30816,252.876907 C161.551286,252.876907 157.021764,252.876907 153.476468,251.891773 C150.130444,250.910101 147.571108,249.138937 148.16199,245.989624 C148.555334,244.022818 150.523788,241.86037 154.46416,241.86037 C177.894994,241.86037 191.677634,228.283176 198.964031,205.657982 C202.703399,194.24843 202.703399,182.051116 202.703399,171.029385 C202.703399,151.16049 197.978071,132.666281 193.452015,124.601684 C187.740727,114.173803 177.894994,107.092609 166.472419,106.697863 C154.264889,106.306579 147.571108,109.256788 140.678055,116.337982 C129.260679,127.94837 128.865602,148.407654 128.865602,167.885266 C128.668063,183.818818 131.424938,199.560191 137.527836,213.726042 C139.891367,219.231713 142.057359,218.84043 142.057359,212.938281 L142.057359,209.002937 C141.861553,179.294818 141.664015,175.163833 140.875594,143.291534 C140.678055,136.404251 143.830006,134.636549 149.146217,134.439176 C154.46416,134.240072 158.796144,136.603355 162.142168,141.324728 C165.489926,146.046101 165.094849,159.424191 165.094849,164.933325 C164.899043,181.852012 165.094849,194.641445 165.094849,209.002937 C165.094849,217.464012 163.519739,224.742579 158.401067,229.856967" id="Fill-1" fill="#31363B" fill-rule="nonzero"></path>
            <path d="M263.852643,219.080048 C273.665453,219.080048 282.935898,213.349301 291.901372,207.809003 C300.315817,202.609779 308.264141,197.696227 315.832983,197.696227 C323.221615,197.696227 331.12142,202.589003 339.483882,207.765719 C348.062943,213.075749 356.922716,218.562376 366.207023,219.036764 C366.517194,219.080048 366.83776,219.085242 367.158327,219.06966 C367.229372,219.073122 367.293485,219.074854 367.355866,219.076585 C367.390521,219.076585 367.425177,219.078316 367.459833,219.078316 L367.461566,219.078316 L367.466764,219.078316 L367.471963,219.078316 C367.477161,219.078316 367.487558,219.080048 367.496222,219.078316 C367.702424,219.078316 367.903428,219.062734 368.100967,219.038496 C377.440724,218.569301 386.293566,213.099988 394.865696,207.803809 C403.716805,202.337958 412.030748,197.194137 419.975606,197.742973 C422.387655,197.916107 424.463542,196.096466 424.631623,193.693361 C424.638554,193.589481 424.642019,193.489063 424.642019,193.385182 C424.640287,191.115391 422.879768,189.200525 420.578619,189.041242 C409.927137,188.29157 399.894262,194.444764 390.275526,200.385003 C382.10887,205.428406 374.394473,210.194794 367.158327,210.341958 C359.982829,210.194794 352.259768,205.411093 344.082716,200.352107 C335.049663,194.758137 325.70644,188.973719 315.832983,188.973719 C305.782781,188.973719 296.389307,194.777182 287.307736,200.391928 C279.014586,205.516704 271.18236,210.35754 263.852643,210.35754 C261.442327,210.35754 259.487736,212.310496 259.487736,214.717063 C259.487736,217.127093 261.442327,219.080048 263.852643,219.080048" id="Fill-3" fill="#31363B" fill-rule="nonzero"></path>
            <path d="M264.932173,258.916179 C274.514521,258.916179 283.5701,253.320478 292.325906,247.91003 C300.544546,242.830269 308.305728,238.032716 315.699558,238.032716 C322.913177,238.032716 330.629307,242.809493 338.797696,247.866746 C347.175752,253.053851 355.82759,258.410627 364.893566,258.874627 C365.198538,258.916179 365.51044,258.923104 365.825809,258.907522 C365.895121,258.909254 365.957501,258.910985 366.018149,258.914448 C366.051072,258.914448 366.085728,258.916179 366.120384,258.916179 L366.123849,258.916179 L366.129048,258.916179 L366.153307,258.916179 C366.354311,258.916179 366.553582,258.900597 366.744189,258.876358 C375.867347,258.419284 384.513987,253.076358 392.885113,247.906567 C401.528287,242.567104 409.648157,237.551403 417.405874,238.077731 C419.764206,238.250866 421.789841,236.469313 421.954457,234.123343 C421.961388,234.022925 421.964853,233.922507 421.964853,233.82209 C421.963121,231.60597 420.244189,229.736119 417.996756,229.580299 C407.593064,228.854866 397.795849,234.857433 388.402376,240.659164 C380.426327,245.584836 372.890408,250.238687 365.825809,250.382388 C358.816659,250.238687 351.272076,245.569254 343.289096,240.626269 C334.465712,235.162149 325.340821,229.514507 315.699558,229.514507 C305.883283,229.514507 296.711606,235.182925 287.839704,240.664358 C279.740627,245.669672 272.090343,250.396239 264.932173,250.396239 C262.57904,250.396239 260.669501,252.304179 260.669501,254.655343 C260.669501,257.006507 262.57904,258.916179 264.932173,258.916179" id="Fill-5" fill="#31363B" fill-rule="nonzero"></path>
            <path d="M266.561866,176.716155 C276.372943,176.716155 285.645121,170.98714 294.610594,165.446842 C303.02504,160.245887 310.973364,155.332334 318.542206,155.332334 C325.929104,155.332334 333.82891,160.22511 342.193104,165.403558 C350.772165,170.713588 359.630206,176.198484 368.914513,176.672872 C369.226416,176.716155 369.546983,176.721349 369.86755,176.705767 C369.938594,176.70923 370.002708,176.710961 370.065088,176.714424 L370.169056,176.714424 L370.174254,176.714424 L370.179453,176.714424 C370.186384,176.716155 370.196781,176.714424 370.205445,176.714424 C370.409914,176.714424 370.612651,176.700573 370.808457,176.674603 C380.148214,176.20714 389.002789,170.736096 397.573185,165.441648 C406.426028,159.975797 414.739971,154.821588 422.683096,155.379081 C425.096878,155.550484 427.171032,153.732573 427.339113,151.329469 C427.346044,151.225588 427.349509,151.12517 427.349509,151.02129 C427.349509,148.751499 425.587258,146.836633 423.286109,146.677349 C412.63636,145.922484 402.603485,152.080872 392.984748,158.02111 C384.818092,163.066245 377.101963,167.830901 369.86755,167.978066 C362.690319,167.830901 354.968991,163.048931 346.791938,157.988215 C337.757153,152.394245 328.41393,146.609827 318.542206,146.609827 C308.492003,146.609827 299.09853,152.415021 290.016959,158.028036 C281.723809,163.152812 273.889849,167.993648 266.561866,167.993648 C264.149817,167.993648 262.195226,169.946603 262.195226,172.354901 C262.195226,174.7632 264.149817,176.716155 266.561866,176.716155" id="Fill-7" fill="#31363B" fill-rule="nonzero"></path>
            <path d="M15.8380794,119.206472 C16.6334316,119.519845 17.477302,119.677397 18.3246381,119.677397 C19.0073587,119.677397 19.6900794,119.575248 20.3485409,119.369218 C22.2996664,118.754591 23.8539822,117.312382 24.611213,115.404442 C25.4221603,113.3528 26.2954883,111.268263 27.2052049,109.213158 C27.9364437,107.559725 27.9832291,105.72277 27.3316988,104.038173 C26.6819012,102.355307 25.4117636,101.025636 23.7604113,100.295009 C22.1090591,99.5643821 20.2705652,99.5193672 18.5845571,100.172084 C16.9002818,100.823069 15.5712291,102.088681 14.8399903,103.738651 C13.8782899,105.909755 12.9339174,108.163964 12.0345976,110.438949 C11.3692049,112.11489 11.3969296,113.951845 12.1177717,115.607009 C12.836881,117.265636 14.1572696,118.543367 15.8380794,119.206472" id="Fill-9" fill="#31363B" fill-rule="nonzero"></path>
            <g id="Group-13" transform="translate(0.000000, 134.897612)">
                <g id="Fill-11-Clipped">
                    <mask id="mask-2" fill="white">
                        <use xlink:href="#path-1"></use>
                    </mask>
                    <g id="path-1"></g>
                    <path d="M221.006551,191.053928 C180.396802,203.80354 137.187862,199.953033 99.3436518,180.213988 C61.4994413,160.480137 33.6326559,127.262585 20.8775628,86.6833612 C12.9275061,61.3936299 11.3887854,34.3690925 16.427749,8.53052537 C16.7725749,6.75936119 16.4069555,4.96049552 15.3984696,3.46115224 C14.388251,1.9635403 12.8547287,0.948973134 11.082081,0.606167164 C7.42935223,-0.108877612 3.86326316,2.29249552 3.15281781,5.94389851 C-2.31587854,33.9812716 -0.648931174,63.3015701 7.97518219,90.7347045 C21.8132713,134.750645 52.0383887,170.783361 93.0882672,192.18969 C118.239765,205.308078 145.574583,211.954704 173.112138,211.954704 C190.51285,211.954704 208.000202,209.298824 225.059555,203.94551 C269.11583,190.119003 305.176996,159.919182 326.601255,118.905391 C327.519636,117.149809 328.394696,115.380376 329.247231,113.604018 C324.653595,110.965451 320.359733,108.955361 316.627296,108.659301 C298.072543,146.721152 264.52566,177.395361 221.006551,191.053928" id="Fill-11" fill="#31363B" fill-rule="nonzero" mask="url(#mask-2)"></path>
                </g>
            </g>
            <path d="M320.708198,111.177194 C323.662611,112.401254 326.573704,113.935224 329.448408,115.597313 C326.573704,113.935224 323.662611,112.401254 320.708198,111.177194" id="Fill-14" fill="#31363B" fill-rule="nonzero"></path>
            <g id="Group-18" transform="translate(29.457490, 0.584179)" fill-rule="nonzero" fill="#31363B">
                <path d="M270.015843,58.6395582 C262.854207,58.7884537 255.96462,60.8383642 250.09045,64.5711403 C246.17607,67.0573493 242.776329,70.2187821 239.9796,73.975797 C239.691956,74.3636179 239.128798,74.5350209 238.667875,74.384394 C234.230191,72.9023642 229.619228,72.2444537 224.9996,72.4470209 C220.392102,72.6392 215.869511,73.678006 211.554855,75.534006 C211.097398,75.7383045 210.523843,75.6101851 210.198078,75.2431403 C207.101576,71.7406328 203.445381,68.876991 199.329997,66.7335881 C195.221543,64.5884537 190.780394,63.2293493 186.133041,62.6926328 C185.658256,62.6354985 185.211195,62.2269015 185.117624,61.7542448 C184.17845,57.1575284 182.442191,52.853409 179.962564,48.9665433 C177.482936,45.0606328 174.317122,41.662006 170.553495,38.8641552 C170.168815,38.5784836 169.986871,38.0002149 170.137624,37.5483343 C171.62956,33.1039761 172.282823,28.5072597 172.078353,23.8932299 C171.780313,16.8362746 169.468766,9.92475224 165.394968,3.90833433 C164.265187,2.23585672 162.461349,1.16242388 160.449576,0.968513433 C137.295989,-1.2926209 114.203049,1.1191403 91.8240211,8.1432 C55.2152923,19.6306627 24.2225474,42.2316179 2.1987417,73.4944836 C1.15733279,74.9678567 0.753591903,76.759797 1.06202915,78.5378866 C1.3704664,80.3177075 2.35469312,81.8707224 3.82410202,82.902603 C5.30044211,83.9500657 7.10081457,84.350006 8.88212632,84.0435582 C10.6686364,83.7336478 12.2212194,82.7485134 13.2539644,81.2751403 C33.5571061,52.4569313 62.1274057,31.6271403 95.8787579,21.0365134 C115.414272,14.9058269 135.544134,12.5806328 155.765835,14.1232597 C157.453576,17.3781851 158.418742,20.9222448 158.569495,24.4714985 C158.697721,27.4355582 158.27492,30.3926925 157.313219,33.2632597 C155.294515,39.2987224 157.372134,45.9072597 162.485608,49.7075582 C164.913252,51.5116179 166.951017,53.7000358 168.548653,56.2122149 C170.142823,58.7122746 171.258742,61.4841552 171.861754,64.458603 C173.138823,70.6914388 178.247098,75.3764537 184.57526,76.1122746 C187.574726,76.4602746 190.432102,77.334603 193.072879,78.7110209 C195.713657,80.0874388 198.06679,81.9330507 200.064701,84.188991 C204.213009,88.8861254 211.138985,90.4339463 216.916118,87.9425433 C219.678191,86.7461851 222.59275,86.0744239 225.571422,85.9463045 C228.563956,85.8251104 231.513171,86.2423642 234.374013,87.199797 C240.435325,89.2272 247.045932,87.1478567 250.837284,82.0317373 C252.637657,79.6130507 254.826175,77.5752597 257.342191,75.9772299 C260.341657,74.0744836 263.803778,72.8400358 267.442645,72.3639164 C275.245414,81.9122746 281.840426,92.2674388 287.205155,103.30129 C293.656345,104.96511 299.700329,108.246006 305.5693,111.793528 C298.530693,93.2006328 288.480491,76.1417075 275.564248,60.9976478 C274.190143,59.3874985 272.117721,58.5356776 270.015843,58.6395582 Z" id="Fill-16"></path>
            </g>
            <path d="M342.98915,139.959045 C338.078413,137.701373 333.363482,134.789254 328.729992,131.918687 C328.109652,131.53606 327.49451,131.153433 326.879368,130.776 C328.012615,134.813493 328.977781,138.859642 329.780065,142.910985 C334.969781,144.612896 339.909976,147.267045 344.725409,150.146269 C344.250623,146.742448 343.670138,143.345552 342.98915,139.959045" id="Fill-19" fill="#31363B" fill-rule="nonzero"></path>
            <path d="M338.176662,131.082448 C339.250994,131.707463 340.330525,132.315164 341.415253,132.896896 C340.330525,132.315164 339.250994,131.707463 338.176662,131.082448" id="Fill-21" fill="#31363B" fill-rule="nonzero"></path>
            <path d="M329.043974,208.039272 C327.754776,213.847928 326.134614,219.566555 324.216411,225.172645 C328.560525,226.304943 332.715764,228.183451 336.756638,230.380525 C338.480768,225.444466 339.967504,220.451272 341.228978,215.416525 C339.650403,214.467749 338.083958,213.499928 336.526177,212.537301 C333.972039,210.954854 331.466419,209.407033 329.043974,208.039272" id="Fill-23" fill="#31363B" fill-rule="nonzero"></path>
            <path d="M339.235919,170.17289 C336.986753,168.78089 334.779174,167.416591 332.628777,166.175218 C332.968405,173.259875 332.821117,180.306442 332.219838,187.275099 C336.655789,189.267875 340.928858,191.812949 345.12915,194.399576 C345.931433,187.79277 346.345571,181.146143 346.368097,174.483934 C343.961247,173.095397 341.58732,171.628949 339.235919,170.17289" id="Fill-25" fill="#31363B" fill-rule="nonzero"></path>
            <path d="M349.636146,127.234364 C350.590915,127.655081 351.538753,128.034245 352.476194,128.361469 C351.538753,128.034245 350.590915,127.655081 349.636146,127.234364" id="Fill-27" fill="#31363B" fill-rule="nonzero"></path>
            <path d="M363.481513,129.183684 C366.260913,128.536161 369.109626,127.351922 372.022452,125.864699 C369.109626,127.351922 366.260913,128.536161 363.481513,129.183684" id="Fill-29" fill="#31363B" fill-rule="nonzero"></path>
            <path d="M391.370304,114.496006 C391.628491,114.354036 391.890143,114.21726 392.150062,114.077021 C391.890143,114.21726 391.628491,114.354036 391.370304,114.496006" id="Fill-31" fill="#31363B" fill-rule="nonzero"></path>
            <path d="M273.8772,133.192609 C269.839791,135.315236 265.727872,137.04831 261.518917,137.896669 C265.727872,137.04831 269.839791,135.315236 273.8772,133.192609" id="Fill-33" fill="#31363B" fill-rule="nonzero"></path>
            <path d="M279.026369,130.289493 C277.891389,130.966448 276.751211,131.62609 275.600636,132.261493 C276.751211,131.62609 277.891389,130.966448 279.026369,130.289493" id="Fill-35" fill="#31363B" fill-rule="nonzero"></path>
            <path d="M308.037145,108.356836 L308.037145,108.356836 C311.121517,108.356836 314.153906,108.921254 317.144708,109.868299 C314.153906,108.921254 311.121517,108.356836 308.037145,108.356836" id="Fill-37" fill="#31363B" fill-rule="nonzero"></path>
            <path d="M387.776144,116.545224 C388.01527,116.404985 388.25093,116.268209 388.490055,116.129701 C388.25093,116.268209 388.01527,116.404985 387.776144,116.545224" id="Fill-39" fill="#31363B" fill-rule="nonzero"></path>
            <path d="M385.997605,117.610519 C386.210738,117.480669 386.425605,117.354281 386.638738,117.22443 C386.425605,117.354281 386.210738,117.480669 385.997605,117.610519" id="Fill-41" fill="#31363B" fill-rule="nonzero"></path>
            <path d="M393.1809,113.53234 C393.446018,113.395564 393.714601,113.262251 393.981451,113.127206 C393.714601,113.262251 393.446018,113.395564 393.1809,113.53234" id="Fill-43" fill="#31363B" fill-rule="nonzero"></path>
            <path d="M384.23778,118.682394 C384.37467,118.59929 384.509828,118.516185 384.644986,118.433081 C384.509828,118.516185 384.37467,118.59929 384.23778,118.682394" id="Fill-45" fill="#31363B" fill-rule="nonzero"></path>
            <path d="M389.566466,115.503821 C389.819454,115.360119 390.070709,115.219881 390.323697,115.079642 C390.070709,115.219881 389.819454,115.360119 389.566466,115.503821" id="Fill-47" fill="#31363B" fill-rule="nonzero"></path>
            <path d="M305.180808,117.301128 C304.22084,117.44483 303.257407,117.657785 302.287043,117.927875 C303.257407,117.657785 304.22084,117.44483 305.180808,117.301128" id="Fill-49" fill="#31363B" fill-rule="nonzero"></path>
            <path d="M261.51909,137.896322 C259.716985,138.261636 257.895819,138.462472 256.055592,138.462472 C257.895819,138.462472 259.716985,138.261636 261.51909,137.896322" id="Fill-51" fill="#31363B" fill-rule="nonzero"></path>
            <path d="M416.165887,110.438257 C415.446777,109.309421 414.21996,108.523391 412.781741,108.422973 C412.152737,108.381421 411.523733,108.364107 410.898194,108.36757 C410.641741,108.369301 410.385287,108.384884 410.130567,108.39354 C409.742421,108.407391 409.356008,108.417779 408.971328,108.448943 C408.701012,108.467988 408.432429,108.504346 408.165579,108.530316 C407.794761,108.571869 407.425676,108.608227 407.058324,108.66363 C406.781077,108.703451 406.505563,108.75366 406.230049,108.803869 C405.87136,108.866197 405.514405,108.926794 405.155717,109.001242 C404.876737,109.060107 404.597757,109.12763 404.318777,109.193421 C403.968753,109.278257 403.618729,109.361361 403.268704,109.456585 C402.987992,109.532764 402.707279,109.614137 402.4283,109.69551 C402.081741,109.799391 401.735182,109.903272 401.388623,110.01754 C401.111377,110.10757 400.830664,110.202794 400.553417,110.299749 C400.208591,110.419212 399.865498,110.543869 399.524138,110.673719 C399.245158,110.7776 398.967911,110.884943 398.690664,110.995749 C398.349304,111.130794 398.007943,111.271033 397.666583,111.414734 C397.392802,111.532466 397.117287,111.650197 396.843506,111.773122 C396.500413,111.923749 396.159053,112.07957 395.817692,112.238854 C395.549109,112.36351 395.277061,112.49163 395.008478,112.619749 C394.665385,112.784227 394.324024,112.95563 393.980931,113.127033 C393.714081,113.262078 393.447231,113.395391 393.180381,113.532167 C392.835555,113.712227 392.494194,113.894018 392.151101,114.07754 C391.889449,114.217779 391.62953,114.354555 391.369611,114.496525 C391.019587,114.686973 390.671296,114.882615 390.323004,115.079988 C390.070016,115.220227 389.818761,115.360466 389.565773,115.504167 C389.207085,115.710197 388.848397,115.91969 388.489709,116.129182 C388.252316,116.26769 388.014923,116.404466 387.775798,116.544704 C387.396316,116.769779 387.018567,116.996585 386.639085,117.225122 C386.425951,117.353242 386.211085,117.47963 385.997951,117.611212 C385.545692,117.883033 385.095166,118.158316 384.646372,118.4336 C384.509482,118.516704 384.374324,118.599809 384.237433,118.682913 C383.650016,119.044764 383.062599,119.406615 382.478648,119.768466 C378.905628,121.974197 375.419247,124.127988 372.021239,125.864525 C369.110146,127.353481 366.261433,128.535988 363.482032,129.18351 C362.092332,129.507272 360.718227,129.697719 359.363182,129.725421 C358.015069,129.697719 356.65136,129.507272 355.266858,129.181779 C354.345012,128.965361 353.414502,128.688346 352.475328,128.362854 C351.537887,128.033899 350.590049,127.654734 349.635279,127.234018 C345.866453,125.571928 341.974599,123.243272 337.970113,120.774376 C337.410421,120.429839 336.850729,120.081839 336.285838,119.733839 C335.156057,119.034376 334.02281,118.333182 332.882632,117.638913 C331.744186,116.946376 330.59881,116.260764 329.448235,115.595928 C326.57353,113.93557 323.662437,112.4016 320.708024,111.17754 C320.420381,111.056346 320.129271,110.950734 319.839895,110.836466 C318.945773,110.485003 318.046453,110.156048 317.143668,109.868645 C314.154599,108.9216 311.122211,108.357182 308.037838,108.357182 C305.523555,108.357182 303.052591,108.719033 300.616283,109.350973 C293.309093,111.246794 286.32247,115.563033 279.510858,119.775391 C277.956543,120.734555 276.417822,121.685063 274.896429,122.595749 C273.881012,123.203451 272.872526,123.793839 271.872704,124.356525 C270.87115,124.917481 269.879992,125.454197 268.894032,125.956287 C264.459814,128.208764 260.178081,129.739272 256.055765,129.739272 C254.849741,129.739272 253.758081,130.22751 252.96966,131.017003 C252.772121,131.214376 252.593644,131.430794 252.437692,131.662794 C252.122324,132.125063 251.895328,132.654854 251.779231,133.221003 C251.722049,133.504943 251.690858,133.799272 251.690858,134.100525 C251.690858,135.303809 252.179506,136.394555 252.96966,137.184048 C253.562275,137.776167 254.324704,138.198615 255.177239,138.373481 C255.461417,138.432346 255.754259,138.46351 256.055765,138.46351 C257.895992,138.46351 259.717158,138.260943 261.519263,137.89563 C265.728219,137.047272 269.840138,135.314197 273.877547,133.193301 C274.454567,132.890316 275.028121,132.578675 275.601676,132.260107 C276.750518,131.626436 277.890696,130.965063 279.025676,130.289839 C279.595765,129.952227 280.162389,129.611152 280.727279,129.266615 C281.857061,128.581003 282.983377,127.885003 284.104494,127.192466 C287.072769,125.357242 289.983862,123.56357 292.839506,122.00363 C294.031668,121.354376 295.213433,120.738018 296.386534,120.185719 C298.379247,119.247331 300.345968,118.47169 302.286696,117.928048 C303.257061,117.657958 304.220494,117.445003 305.180462,117.301301 C306.138696,117.155869 307.09,117.07969 308.037838,117.07969 C308.959684,117.07969 309.891927,117.155869 310.831101,117.29957 C312.23813,117.515988 313.667684,117.883033 315.111101,118.371272 C316.556251,118.861242 318.016996,119.470675 319.496802,120.171869 C320.974874,120.873063 322.472008,121.664287 323.984737,122.51957 C324.107765,122.588824 324.232526,122.663272 324.357287,122.732525 C325.242745,123.238078 326.135134,123.757481 327.032721,124.295928 C328.567976,125.217003 330.120559,126.177899 331.687004,127.147451 C332.759603,127.812287 333.835668,128.478854 334.916931,129.138496 C335.998194,129.798137 337.084656,130.449122 338.176316,131.082794 C339.250648,131.707809 340.330178,132.31551 341.414907,132.897242 C341.430502,132.905899 341.44783,132.914555 341.465158,132.923212 C342.014453,133.21754 342.565482,133.504943 343.119976,133.78369 C348.100024,136.301063 353.187506,138.151869 358.410146,138.418496 C358.720316,138.46351 359.040883,138.466973 359.363182,138.453122 C359.432494,138.454854 359.496607,138.458316 359.558988,138.460048 C359.593644,138.460048 359.6283,138.461779 359.662955,138.461779 L359.664688,138.461779 L359.669887,138.461779 L359.673352,138.461779 L359.697611,138.461779 C359.903814,138.461779 360.104818,138.446197 360.304089,138.420227 C361.471992,138.361361 362.629498,138.224585 363.783538,138.020287 C364.937579,137.815988 366.082955,137.542436 367.219668,137.211749 C368.358113,136.881063 369.489628,136.493242 370.615943,136.056943 C371.740526,135.620645 372.861644,135.135869 373.974097,134.614734 C376.756964,133.309301 379.501709,131.768406 382.215263,130.151331 C383.301725,129.503809 384.382988,128.842436 385.45732,128.181063 C385.996219,127.850376 386.533385,127.517958 387.068818,127.187272 C387.600785,126.858316 388.129287,126.532824 388.657789,126.2056 C388.831069,126.101719 389.000883,125.996107 389.172429,125.892227 C389.541514,125.665421 389.910599,125.438615 390.277951,125.215272 C390.473757,125.095809 390.66783,124.978078 390.863636,124.860346 C391.198065,124.65951 391.530761,124.458675 391.861725,124.25957 C392.086988,124.126257 392.307053,123.996406 392.532316,123.864824 C392.835555,123.684764 393.138794,123.506436 393.4403,123.33157 C393.67596,123.194794 393.908154,123.063212 394.142081,122.929899 C394.431457,122.765421 394.719101,122.599212 395.006745,122.439928 C395.24587,122.304884 395.48153,122.176764 395.718923,122.048645 C396.003101,121.892824 396.287279,121.737003 396.569725,121.586376 C396.807117,121.461719 397.042777,121.340525 397.28017,121.2176 C397.55915,121.073899 397.83813,120.930197 398.117109,120.789958 C398.356235,120.668764 398.593628,120.554496 398.832753,120.438496 C399.106534,120.306913 399.380316,120.177063 399.654097,120.050675 C399.893223,119.938137 400.134081,119.832525 400.374939,119.725182 C400.643522,119.605719 400.912105,119.489719 401.182421,119.375451 C401.419814,119.275033 401.658939,119.178078 401.896332,119.082854 C402.166648,118.977242 402.435231,118.873361 402.703814,118.771212 C402.939474,118.684645 403.175134,118.599809 403.410794,118.518436 C403.679377,118.424943 403.94796,118.336645 404.216543,118.251809 C404.448737,118.177361 404.682664,118.104645 404.914858,118.037122 C405.183441,117.959212 405.450291,117.886496 405.717142,117.817242 C405.949336,117.758376 406.179798,117.697779 406.410259,117.645839 C406.677109,117.58351 406.94396,117.53157 407.21081,117.477899 C407.439538,117.434615 407.668267,117.391331 407.896996,117.353242 C408.165579,117.309958 408.432429,117.275331 408.701012,117.244167 C408.924543,117.214734 409.148073,117.185301 409.371603,117.166257 C409.641919,117.142018 409.912235,117.129899 410.182551,117.117779 C410.400883,117.109122 410.620947,117.095272 410.841012,117.09354 C410.898194,117.091809 410.955377,117.084884 411.012559,117.084884 C411.402437,117.084884 411.790583,117.098734 412.176996,117.124704 C412.388397,117.140287 412.592866,117.11951 412.800802,117.107391 C412.930761,117.097003 413.062453,117.090078 413.188947,117.069301 C413.343166,117.043331 413.490453,117.00351 413.637741,116.96369 C413.759036,116.930794 413.882065,116.89963 413.998162,116.856346 C414.141984,116.804406 414.277142,116.735152 414.414032,116.66763 C414.524931,116.612227 414.63583,116.563749 414.739798,116.49969 C414.87149,116.420048 414.992785,116.324824 415.115814,116.233063 C415.209385,116.160346 415.308154,116.094555 415.398259,116.014913 C415.514356,115.90757 415.618324,115.788107 415.722291,115.668645 C415.798534,115.58554 415.881709,115.505899 415.952753,115.412406 C416.053255,115.280824 416.134696,115.13366 416.219603,114.989958 C416.275053,114.896466 416.340899,114.809899 416.387684,114.712943 C416.470858,114.546734 416.529773,114.368406 416.590421,114.188346 C416.621611,114.100048 416.663198,114.018675 416.68919,113.928645 C416.7637,113.653361 416.813951,113.369421 416.834745,113.075093 C416.841676,112.972943 416.845142,112.869063 416.845142,112.768645 C416.845142,111.916824 416.595619,111.115212 416.165887,110.438257" id="Fill-53" fill="#31363B" fill-rule="nonzero"></path>
            <path d="M393.439953,123.33209 C393.138447,123.506955 392.835208,123.685284 392.533702,123.865343 C392.835208,123.685284 393.138447,123.506955 393.439953,123.33209" id="Fill-55" fill="#31363B" fill-rule="nonzero"></path>
            <path d="M395.006745,122.439236 C394.719101,122.600251 394.431457,122.764728 394.142081,122.929206 C394.431457,122.764728 394.719101,122.600251 395.006745,122.439236" id="Fill-57" fill="#31363B" fill-rule="nonzero"></path>
            <path d="M391.861032,124.260263 C391.531801,124.457636 391.197372,124.658472 390.864675,124.861039 C391.197372,124.658472 391.531801,124.457636 391.861032,124.260263" id="Fill-59" fill="#31363B" fill-rule="nonzero"></path>
            <path d="M388.657789,126.206293 C388.129287,126.531785 387.600785,126.859009 387.068818,127.186233 C387.600785,126.859009 388.129287,126.531785 388.657789,126.206293" id="Fill-61" fill="#31363B" fill-rule="nonzero"></path>
            <path d="M385.45784,128.181063 C384.383508,128.842436 383.302245,129.503809 382.215783,130.151331 C383.302245,129.503809 384.383508,128.842436 385.45784,128.181063" id="Fill-63" fill="#31363B" fill-rule="nonzero"></path>
            <path d="M390.277258,125.215618 C389.909906,125.438961 389.540821,125.665767 389.171736,125.892573 C389.540821,125.665767 389.909906,125.438961 390.277258,125.215618" id="Fill-65" fill="#31363B" fill-rule="nonzero"></path>
            <path d="M401.181555,119.375624 C400.912972,119.488161 400.642656,119.605893 400.374073,119.725355 C400.642656,119.605893 400.912972,119.488161 401.181555,119.375624" id="Fill-67" fill="#31363B" fill-rule="nonzero"></path>
            <path d="M399.653577,120.050328 C399.381529,120.176716 399.107747,120.306567 398.832233,120.439881 C399.107747,120.306567 399.379796,120.176716 399.653577,120.050328" id="Fill-69" fill="#31363B" fill-rule="nonzero"></path>
            <path d="M396.570418,121.587069 C396.287972,121.737696 396.003794,121.893516 395.719616,122.049337 C396.003794,121.893516 396.287972,121.737696 396.570418,121.587069" id="Fill-71" fill="#31363B" fill-rule="nonzero"></path>
            <path d="M398.117109,120.789093 C397.83813,120.929331 397.55915,121.073033 397.28017,121.216734 C397.55915,121.073033 397.83813,120.929331 398.117109,120.789093" id="Fill-73" fill="#31363B" fill-rule="nonzero"></path>
            <path d="M367.219495,137.211576 C366.082782,137.542263 364.937406,137.815815 363.783365,138.020113 C364.937406,137.815815 366.082782,137.542263 367.219495,137.211576" id="Fill-75" fill="#31363B" fill-rule="nonzero"></path>
            <path d="M319.840068,110.837331 C318.944214,110.485869 318.046627,110.155182 317.143841,109.867779 C318.046627,110.155182 318.944214,110.485869 319.840068,110.837331" id="Fill-77" fill="#31363B" fill-rule="nonzero"></path>
            <path d="M280.727106,129.266615 C281.856887,128.581003 282.983203,127.885003 284.104321,127.192466 C287.072596,125.357242 289.983689,123.56357 292.839333,122.00363 C289.983689,123.56357 287.072596,125.357242 284.104321,127.192466 C282.983203,127.885003 281.856887,128.581003 280.727106,129.266615" id="Fill-79" fill="#31363B" fill-rule="nonzero"></path>
            <path d="M363.481513,129.183684 C362.091812,129.507445 360.717707,129.697893 359.362662,129.723863 C358.016282,129.697893 356.652573,129.507445 355.268071,129.181952 C356.652573,129.507445 358.016282,129.697893 359.362662,129.723863 C360.717707,129.697893 362.091812,129.507445 363.481513,129.183684" id="Fill-81" fill="#31363B" fill-rule="nonzero"></path>
            <path d="M305.180808,117.301128 C306.139043,117.155696 307.090347,117.079516 308.036452,117.079516 C307.090347,117.079516 306.139043,117.155696 305.180808,117.301128" id="Fill-83" fill="#31363B" fill-rule="nonzero"></path>
            <path d="M382.21561,130.150812 C379.502055,131.769618 376.75731,133.308782 373.974444,134.614215 C376.75731,133.308782 379.502055,131.769618 382.21561,130.150812" id="Fill-85" fill="#31363B" fill-rule="nonzero"></path>
            <path d="M402.704507,118.772078 C402.435924,118.874227 402.165608,118.976376 401.895292,119.083719 C402.165608,118.976376 402.435924,118.874227 402.704507,118.772078" id="Fill-87" fill="#31363B" fill-rule="nonzero"></path>
            <path d="M416.834225,113.075785 C416.841156,112.971904 416.844622,112.869755 416.844622,112.767606 C416.844622,111.915785 416.5951,111.114173 416.165367,110.438949 C416.5951,111.114173 416.844622,111.915785 416.844622,112.767606 C416.844622,112.869755 416.841156,112.971904 416.834225,113.075785" id="Fill-89" fill="#31363B" fill-rule="nonzero"></path>
            <path d="M373.97479,134.614561 C372.860604,135.135696 371.741219,135.620472 370.616636,136.05677 C371.741219,135.620472 372.860604,135.135696 373.97479,134.614561" id="Fill-91" fill="#31363B" fill-rule="nonzero"></path>
            <path d="M395.008478,112.619403 C395.277061,112.491284 395.549109,112.364896 395.817692,112.238507 C395.549109,112.364896 395.277061,112.491284 395.008478,112.619403" id="Fill-93" fill="#31363B" fill-rule="nonzero"></path>
            <path d="M410.840492,117.093021 C411.287553,117.087827 411.732881,117.094752 412.176476,117.125916 C411.790063,117.098215 411.401917,117.084364 411.013772,117.084364 C410.954857,117.084364 410.897674,117.09129 410.840492,117.093021" id="Fill-95" fill="#31363B" fill-rule="nonzero"></path>
            <path d="M404.318951,109.193767 C404.59793,109.127976 404.87691,109.060454 405.15589,109.001588 C404.87691,109.060454 404.59793,109.127976 404.318951,109.193767" id="Fill-97" fill="#31363B" fill-rule="nonzero"></path>
            <path d="M416.387511,114.712424 C416.340726,114.81111 416.276612,114.895946 416.21943,114.989439 C416.276612,114.895946 416.340726,114.81111 416.387511,114.712424" id="Fill-99" fill="#31363B" fill-rule="nonzero"></path>
            <path d="M406.229355,108.803349 C406.50487,108.754872 406.780384,108.702931 407.059364,108.66311 C406.780384,108.702931 406.50487,108.754872 406.229355,108.803349" id="Fill-101" fill="#31363B" fill-rule="nonzero"></path>
            <path d="M416.68867,113.927952 C416.662679,114.019713 416.621091,114.101087 416.589901,114.187654 C416.621091,114.101087 416.662679,114.019713 416.68867,113.927952" id="Fill-103" fill="#31363B" fill-rule="nonzero"></path>
            <path d="M410.129874,108.39406 C410.384594,108.385403 410.641048,108.36809 410.897501,108.366358 C410.641048,108.36809 410.384594,108.385403 410.129874,108.39406" id="Fill-105" fill="#31363B" fill-rule="nonzero"></path>
            <path d="M408.165232,108.531009 C408.432083,108.503307 408.702398,108.468681 408.970981,108.447904 C408.702398,108.468681 408.432083,108.503307 408.165232,108.531009" id="Fill-107" fill="#31363B" fill-rule="nonzero"></path>
            <path d="M398.690664,110.996269 C398.967911,110.885463 399.245158,110.778119 399.522405,110.672507 C399.245158,110.778119 398.967911,110.885463 398.690664,110.996269" id="Fill-109" fill="#31363B" fill-rule="nonzero"></path>
            <path d="M402.428819,109.69603 C402.707799,109.614657 402.986779,109.531552 403.267491,109.455373 C402.986779,109.531552 402.707799,109.614657 402.428819,109.69603" id="Fill-111" fill="#31363B" fill-rule="nonzero"></path>
            <path d="M396.842813,111.772257 C397.116594,111.651063 397.392109,111.5316 397.667623,111.4156 C397.390376,111.5316 397.116594,111.651063 396.842813,111.772257" id="Fill-113" fill="#31363B" fill-rule="nonzero"></path>
            <path d="M400.553764,110.299576 C400.831011,110.202621 401.10999,110.107397 401.387237,110.017367 C401.10999,110.107397 400.831011,110.202621 400.553764,110.299576" id="Fill-115" fill="#31363B" fill-rule="nonzero"></path>
            <path d="M405.716622,117.816722 C405.451504,117.885976 405.182921,117.958693 404.914338,118.036603 C405.182921,117.958693 405.451504,117.885976 405.716622,117.816722" id="Fill-117" fill="#31363B" fill-rule="nonzero"></path>
            <path d="M410.182377,117.118472 C409.912062,117.130591 409.641746,117.14271 409.37143,117.165218 C409.641746,117.14271 409.912062,117.130591 410.182377,117.118472" id="Fill-119" fill="#31363B" fill-rule="nonzero"></path>
            <path d="M407.21081,117.478591 C406.94396,117.530531 406.677109,117.584203 406.410259,117.646531 C406.677109,117.584203 406.94396,117.530531 407.21081,117.478591" id="Fill-121" fill="#31363B" fill-rule="nonzero"></path>
            <path d="M415.95258,115.412406 C415.881535,115.505899 415.798361,115.58554 415.722118,115.668645 C415.798361,115.58554 415.881535,115.505899 415.95258,115.412406" id="Fill-123" fill="#31363B" fill-rule="nonzero"></path>
            <path d="M404.215676,118.25129 C403.948826,118.336125 403.67851,118.426155 403.409927,118.517916 C403.67851,118.426155 403.947093,118.336125 404.215676,118.25129" id="Fill-125" fill="#31363B" fill-rule="nonzero"></path>
            <path d="M408.701705,117.243648 C408.433122,117.276543 408.164539,117.309439 407.895956,117.352722 C408.164539,117.309439 408.433122,117.276543 408.701705,117.243648" id="Fill-127" fill="#31363B" fill-rule="nonzero"></path>
            <path d="M414.739278,116.49969 C414.63531,116.563749 414.524411,116.612227 414.415245,116.66763 C414.524411,116.612227 414.63531,116.563749 414.739278,116.49969" id="Fill-129" fill="#31363B" fill-rule="nonzero"></path>
            <path d="M415.397566,116.014394 C415.307461,116.094036 415.210424,116.159827 415.115121,116.232543 C415.210424,116.159827 415.307461,116.094036 415.397566,116.014394" id="Fill-131" fill="#31363B" fill-rule="nonzero"></path>
            <path d="M413.189294,117.069475 C413.0628,117.090251 412.931108,117.097176 412.799415,117.105833 C412.93284,117.097176 413.0628,117.090251 413.189294,117.069475" id="Fill-133" fill="#31363B" fill-rule="nonzero"></path>
            <path d="M413.998162,116.856346 C413.882065,116.89963 413.759036,116.930794 413.637741,116.96369 C413.759036,116.930794 413.882065,116.89963 413.998162,116.856346" id="Fill-135" fill="#31363B" fill-rule="nonzero"></path>
            <path d="M320.708198,111.177194 C320.420554,111.057731 320.129445,110.950388 319.840068,110.837851 C320.129445,110.950388 320.420554,111.057731 320.708198,111.177194" id="Fill-137" fill="#31363B" fill-rule="nonzero"></path>
        </g>
    </g>
</svg>