<?xml version="1.0" encoding="UTF-8"?>
<svg width="93px" height="24px" viewBox="0 0 93 24" version="1.1" xmlns="http://www.w3.org/2000/svg" xmlns:xlink="http://www.w3.org/1999/xlink">
    <!-- Generator: Sketch 42 (36781) - http://www.bohemiancoding.com/sketch -->
    <title>Slice</title>
    <desc>Created with Sketch.</desc>
    <defs></defs>
    <g id="Page-1" stroke="none" stroke-width="1" fill="none" fill-rule="evenodd">
        <g id="logo" transform="translate(0.000000, -16.000000)" fill-rule="nonzero" fill="#FFFFFF">
            <path d="M57.2154137,23.8001268 C57.1984615,23.5200659 57.1442612,23.2838139 57.0224569,23.0408122 C56.9190653,22.814103 56.7052421,22.7761931 56.5618813,22.8551869 C56.5175353,22.8796625 56.4799442,22.9152583 56.4544417,22.9598067 C56.2920264,23.2298248 56.3732342,23.6618536 56.5897881,24.1478861 C56.6250635,24.2298846 56.6909389,24.3272139 56.7763409,24.4287681 C56.8876088,24.5609758 57.0320036,24.7003669 57.184826,24.8224077 C57.2120172,24.4041228 57.232318,24.0802237 57.2153658,23.8001407 L57.2154137,23.8001268 Z M35.2637608,19.7202223 C34.397545,19.7202223 33.6669193,18.9646583 33.6669193,18.0733554 C33.6669193,17.1555372 34.397545,16.3999731 35.2637608,16.3999731 C36.156558,16.3999731 36.8874275,17.1555372 36.8874275,18.0733554 C36.8874275,18.9646583 36.156558,19.7202223 35.2637608,19.7202223 Z M92.6653335,27.0633516 C93.0984413,27.2793661 93.0984413,27.7383967 92.9089567,28.0894203 C92.3405025,29.2772565 91.609633,30.1950746 90.5812456,31.0048856 C90.6897665,31.2749037 90.7436612,31.5179199 90.7977995,31.7609362 C90.9333897,32.3007291 90.9602151,33.0297778 90.8790073,33.7045797 C90.6897665,34.8114106 90.1483817,35.8372361 89.3365482,36.4045173 C88.740781,36.782056 87.956017,36.9713118 87.1168704,36.8360597 C85.8180344,36.6472903 85.1683727,35.1891926 85.4122397,34.1366088 C85.7097576,32.7595166 86.2238291,32.4089796 87.198322,31.3559092 C86.765458,30.1950746 86.1428654,28.5212059 85.7097576,27.414375 C85.6324516,27.5532762 85.580264,27.6576347 85.5205167,27.7663716 C85.5034459,27.877298 85.4671099,27.987981 85.4124835,28.0894203 C84.8440294,29.2772565 84.1131599,30.1950746 83.0847725,31.0048856 C83.1930495,31.2749037 83.2471881,31.5179199 83.3013264,31.7609362 C83.4366727,32.3007291 83.463742,33.0297778 83.3822904,33.7045797 C83.1930495,34.8114106 82.6519085,35.8372361 81.8398312,36.4045173 C81.2443078,36.782056 80.4592998,36.9713118 79.6203972,36.8360597 C78.3215612,36.6472903 77.6718995,35.1891926 77.9157665,34.1366088 C78.2130404,32.7595166 78.7273562,32.4089796 79.7018489,31.3559092 C79.2689849,30.1950746 78.6463922,28.5212059 78.2130404,27.414375 C78.1625601,27.5051108 78.1237851,27.5795482 78.0859858,27.6515531 C78.0830594,27.6712571 78.0820839,27.6914477 78.0781819,27.7111517 C77.4290078,30.6268602 75.9404433,34.4336285 73.5859071,36.2425063 C73.1798683,36.566528 72.692622,36.782056 72.2595142,36.8630613 C70.6629165,37.2140849 68.9575544,36.8093011 67.9294108,35.6752251 C67.0051546,34.6450212 66.6039933,33.287633 66.4388954,31.9441106 C66.2555073,32.4046009 66.0938236,32.7984379 65.9809131,33.0565365 C65.5748745,33.9745978 65.087628,35.2164376 64.4113846,35.972245 C63.7344099,36.7282956 63.3015459,36.7550542 62.2731585,36.7550542 C61.6776351,36.7550542 61.0009041,36.2152612 60.676317,35.7292288 C60.2163837,35.0271819 59.9454475,34.2446159 60.0266553,33.3537996 C60.1078628,31.1128929 60.2975915,29.3310169 60.4326938,27.3333697 C60.4868323,26.4965569 60.2975915,25.9835225 59.7830319,26.199537 C59.2148218,26.4425532 58.8631654,26.4965569 58.3217807,26.4965569 C58.024019,27.4683786 57.9698805,27.6033878 57.8074649,28.0084148 C57.5367725,28.6832167 57.2392548,29.1420041 56.8332161,29.0609989 C56.4001083,28.9799934 56.3189005,28.601968 56.4001083,28.1971842 C56.5898369,27.4683786 56.7249392,27.1711155 56.9412493,26.3075443 C56.6708007,26.1725351 56.3462135,25.9835225 56.1025904,25.79451 C55.683383,25.4549195 55.3353846,24.9820231 55.12005,24.465583 C54.9493431,26.4773395 54.1538489,28.0052525 52.9364644,29.196251 C52.1243872,30.006062 51.0689307,30.7078657 50.0134741,31.0588893 C49.7154686,31.1666532 49.2013968,31.3019055 48.7143943,31.3019055 C48.2271479,31.3019055 47.8211092,31.2209 47.7669709,30.7888712 C47.7399016,30.4920945 47.8752477,30.1950746 48.1730094,30.0600657 C48.8768099,29.7360439 49.4989147,29.3850204 50.0673686,28.791224 C51.2852408,27.5223823 51.4747255,25.9565207 51.4747255,24.3636573 C51.4747255,22.8788012 51.1233131,21.4479488 50.2570972,20.4763702 C49.44502,19.5583088 48.4166326,19.2612889 47.3609321,19.2342871 C45.6831268,19.1802835 44.6003571,19.8553287 43.6531775,20.8271505 C42.0834053,22.4200138 41.4071619,24.9844557 41.4071619,27.6573912 C41.379605,29.8440512 41.7585743,32.1387181 42.5979649,34.0826051 C42.9227956,34.8384125 43.2203135,34.7841656 43.2203135,33.9745978 L43.2203135,33.4348051 C43.1932443,29.3580185 43.1664188,28.791224 43.0578982,24.417661 C43.0308289,23.4725978 43.4636929,23.2298248 44.1945624,23.2028229 C44.9251881,23.1758211 45.5207115,23.4998428 45.9808885,24.1478861 C46.4408218,24.7959296 46.3869271,26.6313226 46.3869271,27.3873732 C46.359614,29.7090421 46.3869271,31.4639163 46.3869271,33.4348051 C46.3869271,34.5956394 46.1701294,35.5942198 45.4663291,36.2962667 C45.1961243,36.566528 44.8439803,36.7550542 44.4111163,36.7550542 C43.7614546,36.7550542 42.6518594,36.4310325 42.1646131,36.0532505 C41.5420204,35.5404594 41.1635388,34.9734214 40.8387078,34.1906122 C40.4109651,33.1669763 40.1292986,32.0608752 39.9551775,30.9435841 C39.620592,31.8159129 39.2955172,32.6249941 39.106764,33.0565365 C38.7007255,33.9745978 38.2134791,35.2164376 37.5372358,35.972245 C36.8602608,36.7282956 36.4273968,36.7550542 35.3990094,36.7550542 C34.8034862,36.7550542 34.126755,36.2152612 33.8019241,35.7292288 C33.3419908,35.0271819 33.0712984,34.2446159 33.1525062,33.3537996 C33.1688452,32.9735849 33.1871353,32.6009113 33.204206,32.2245888 C33.0839796,32.5551785 32.9813115,32.8349271 32.9093706,33.0297778 C32.5301576,33.9745978 31.9621911,35.1891926 31.2854601,35.9454864 C30.6087289,36.7010505 30.1756211,36.782056 29.1472337,36.7550542 C28.5519544,36.7550542 27.875467,36.2152612 27.5506362,35.7292288 C27.0633899,35.0271819 26.8470798,34.2716177 26.873905,33.380558 C26.8892688,33.0837815 26.9068271,32.7254601 26.925361,32.3187303 C26.1727874,33.889457 25.2017087,35.3237151 24.0057846,36.2425063 C23.5997461,36.566528 23.1124998,36.782056 22.6793918,36.8630613 C21.0827943,37.2140849 19.3776758,36.8093011 18.3492885,35.6752251 C16.969001,34.1366088 16.7526909,31.8689435 16.7526909,30.006062 C16.7792724,28.3591952 17.2126242,26.7933336 17.9703191,25.3357225 C18.5929117,24.1746447 19.621299,23.2298248 20.9472042,22.905803 C22.3277356,22.5820247 23.3831922,23.1758211 24.3303718,23.9858753 C25.1695183,24.6879222 25.1695183,26.7395731 25.0883106,27.414375 C24.9532083,28.763979 24.4388927,29.9520583 23.491469,30.9508819 C22.7879127,31.787938 21.9216969,32.2469687 21.1908274,32.2737273 C20.8933096,32.3007291 20.622861,32.2469687 20.3792378,32.1117165 C20.3521686,32.8945255 20.514584,34.0015996 20.7847887,34.7304052 C21.0018304,35.2974431 21.3805559,35.6214649 21.8946277,35.5942198 C22.4089433,35.567218 22.923015,35.2701981 23.3022282,34.9734214 C25.3587592,33.2727941 26.2793573,30.2760801 27.0368083,27.9274093 C27.0643654,27.8447012 27.0911906,27.7627227 27.1180161,27.682447 C27.2689697,23.8306758 27.4294342,19.3887569 27.4964977,17.5334166 C27.523567,16.5888398 27.9566748,16.3728254 28.6873005,16.3998272 C29.41817,16.426829 29.9866241,16.7778525 30.4192443,17.4524111 C30.8523521,18.1276996 30.6360422,19.9633359 30.6087289,20.7189 C30.4736266,23.2298248 30.1214826,32.0577129 30.0134495,34.5686376 C29.959311,35.1081871 30.2568289,35.324445 30.7172498,34.4066268 C31.8809835,32.1387181 32.5301576,30.2490782 33.3154094,27.9004077 C33.3517456,27.7753723 33.389545,27.6517963 33.4305147,27.5340586 C33.4839216,26.4491212 33.5365968,25.3668597 33.585614,24.282652 C33.6395087,23.3378321 34.0728606,23.1218175 34.8034862,23.1488193 C35.5343557,23.1758211 36.1025658,23.5268447 36.5086046,24.2016466 C36.9414686,24.9034503 36.67102,26.7125713 36.6439507,27.4683786 C36.5086046,29.9790602 36.3188759,32.2737273 36.2649814,34.5686376 C36.2376683,35.1891926 36.7251585,35.162434 37.0770587,34.4336285 C38.1593406,32.1927218 38.8090025,30.3030819 39.6208358,27.9274093 C39.6579037,27.8162397 39.6952154,27.7060431 39.7342339,27.5999821 C39.7900796,24.5052345 40.5782578,21.7566451 42.2731339,19.9360909 C43.6261083,18.451478 45.601919,17.5874202 48.2000787,17.5874202 C51.8205289,17.5874202 54.4167376,19.4230565 55.0237227,22.5859168 C55.2751495,21.8121083 55.8409211,21.3669434 56.6434876,21.3669434 C58.024019,21.3669434 58.6192984,22.5820247 58.6192984,23.8508664 C58.6192984,24.2016466 58.5919853,24.660434 58.5654039,24.9844557 C58.781714,25.0387026 58.9441294,25.0387026 59.3501679,24.84969 C59.7018243,24.6879222 59.8915528,24.5256683 60.1890706,24.3098971 C60.70363,23.8776248 61.0821117,23.7698609 61.6776351,23.7698609 C62.4085046,23.7966196 62.9767149,24.1478861 63.3827534,24.8224448 C63.7344099,25.4167278 63.5993076,26.3075443 63.545169,27.0363498 C63.3556842,29.9790602 63.1932688,32.2737273 63.1391303,34.5686376 C63.112061,35.1891926 63.5993076,35.162434 63.9509638,34.4336285 C65.0337335,32.1927218 65.6831514,30.3030819 66.4949849,27.9274093 C66.5837525,27.66177 66.672764,27.4017256 66.787869,27.1934954 C66.9841821,26.5576149 67.2380477,25.9368167 67.5504415,25.3357225 C68.1730339,24.1746447 69.2011775,23.2298248 70.5273266,22.905803 C71.9078578,22.5820247 72.9630706,23.1758211 73.910494,23.9858753 C74.7493968,24.6879222 74.7493968,26.7395731 74.668189,27.414375 C74.5330867,28.763979 74.0187711,29.9520583 73.0713475,30.9508819 C72.3677911,31.787938 71.5018193,32.2469687 70.7709498,32.2737273 C70.4734319,32.3007291 70.2029833,32.2469687 69.9593601,32.1117165 C69.932047,32.8945255 70.0944624,34.0015996 70.364911,34.7304052 C70.5817089,35.2974431 70.9604344,35.6214649 71.47475,35.5942198 C71.9890656,35.567218 72.5028936,35.2701981 72.8818628,34.9734214 C74.9388814,33.2727941 75.8592358,30.2760801 76.6169307,27.9274093 C76.69887,27.6819606 76.7730055,27.4408904 76.8659188,27.2414175 C77.047356,26.7261939 77.2144048,26.3304106 77.4012071,25.79451 C77.3473124,25.4167278 77.2387915,25.1194647 77.1307585,24.7416827 C76.8059275,23.6078502 76.5623044,22.6630301 77.1307585,21.9069795 C77.5909356,21.2591794 78.0779381,21.0971685 78.4569076,21.0699235 C78.8897716,21.0429217 79.2416718,21.1509289 79.5665025,21.7179669 C80.053505,22.5820247 79.7557433,23.3648337 80.1888514,24.3636573 C80.5948899,25.2814756 81.6232773,27.4413768 82.1646622,28.601968 C82.2997644,28.9259897 82.46218,29.2500114 82.5975261,29.5740332 C83.1930495,29.0609989 83.5447057,28.6294564 83.9507445,27.9274093 C84.0758482,27.7313423 84.1919289,27.5450054 84.310936,27.3907789 C84.512858,26.8006314 84.6935635,26.3807653 84.8979241,25.79451 C84.8437856,25.4167278 84.7355087,25.1194647 84.6272317,24.7416827 C84.3024007,23.6078502 84.0587775,22.6630301 84.6272317,21.9069795 C85.0874087,21.2591794 85.574655,21.0971685 85.9533807,21.0699235 C86.3862447,21.0429217 86.7381447,21.1509289 87.0632195,21.7179669 C87.5504661,22.5820247 87.2522165,23.3648337 87.6853245,24.3636573 C88.0913631,25.2814756 89.1199943,27.4413768 89.6611353,28.601968 C89.7964814,28.9259897 89.958897,29.2500114 90.0939993,29.5740332 C90.6897665,29.0609989 91.0411789,28.6294564 91.4472177,27.9274093 C91.8261869,27.3333697 92.1239486,26.8203354 92.6653335,27.0633516 Z M12.4495592,19.7202224 C14.2900239,21.3130858 15.5347213,24.3908052 15.5347213,27.7653013 C15.5347213,32.6518986 13.748639,35.4593567 12.5578362,36.7011966 C10.7173716,38.5908366 8.49818142,39.4278926 6.54968369,39.4548944 C6.17071431,39.4548944 5.54812172,39.4548944 5.06111922,39.3198854 C4.60094209,39.1848763 4.24904195,38.94186 4.33024968,38.5100744 C4.38463202,38.2400563 4.65508057,37.9430365 5.19646544,37.9430365 C8.41697372,37.9430365 10.311333,36.0803983 11.3131388,32.9754338 C11.8269667,31.4098155 11.8269667,29.73619 11.8269667,28.224332 C11.8269667,25.4976361 11.1773048,22.9597095 10.5549561,21.8531219 C9.77019197,20.4222694 8.41697372,19.4504476 6.84720149,19.3962007 C5.16939619,19.3421971 4.24904195,19.7472242 3.30161844,20.719046 C1.73209011,22.3119094 1.67795163,25.1193675 1.67795163,27.7923031 C1.65088239,29.9792062 2.02960792,32.1388643 2.8689983,34.0825079 C3.19382922,34.8383152 3.49134702,34.7843116 3.49134702,33.9747439 L3.49134702,33.4347077 C3.4640339,29.3579214 3.43745241,28.79137 3.32917544,24.417807 C3.30161844,23.4727438 3.73497021,23.2299708 4.46583975,23.2027257 C5.19646544,23.1757239 5.79174491,23.4997456 6.25192202,24.147789 C6.71209915,24.7958323 6.65796067,26.6314687 6.65796067,27.3875193 C6.63089142,29.7091882 6.65796067,31.4638191 6.65796067,33.4347077 C6.65796067,34.5955422 6.44116287,35.5943658 5.73760642,36.2964128 C5.46691399,36.5664308 5.11525771,36.754957 4.68214982,36.754957 C4.032488,36.754957 2.92313679,36.4309353 2.43564656,36.0533965 C1.81329784,35.5403622 1.43432844,34.9733242 1.1097414,34.1905151 C0.297664122,32.2468715 -9.75468202e-05,30.1412171 -9.75468202e-05,28.089323 C-9.75468202e-05,24.8495927 0.162317909,21.7181129 1.92157481,19.8282297 C3.13944686,18.4786258 4.76335755,17.7493338 6.98279158,17.7493338 C9.01249704,17.7493338 10.9609948,18.4246222 12.4495592,19.7202224 Z M88.1455016,34.5956394 C88.159158,34.510985 88.1667181,34.4287633 88.1691567,34.3482444 C88.1867151,33.7855852 87.9526028,33.3131751 87.7394628,32.8405221 C87.6370388,32.9344201 87.510228,33.059942 87.3826856,33.2010325 C87.3085498,33.2832542 87.2344142,33.3696115 87.1646683,33.4615635 C87.0698039,33.5865989 86.983475,33.7182023 86.917631,33.8505354 C86.8515429,33.9828687 86.8059399,34.1161749 86.7922833,34.2446159 C86.765458,34.757407 86.765458,35.3512034 87.2256351,35.4054505 C87.2692872,35.4146941 87.3117202,35.4180998 87.3531775,35.4190729 C87.3580548,35.4193161 87.3636638,35.4207757 87.3685411,35.4207757 C87.3726869,35.4207757 87.3765888,35.4193161 87.3804906,35.4193161 C87.4275569,35.418343 87.4729163,35.4127481 87.5163245,35.4022879 C87.5233968,35.4008285 87.5304688,35.398639 87.5372972,35.3964498 C87.5811931,35.3842868 87.6231383,35.3687181 87.6628888,35.3482843 C87.6672782,35.346095 87.67118,35.3434191 87.6750821,35.3409867 C87.715564,35.3193364 87.7543388,35.2937942 87.7901874,35.2643599 C87.7914067,35.2633867 87.7926259,35.2626571 87.7938452,35.261684 C87.8299376,35.2320063 87.8628596,35.1984365 87.8940745,35.162434 C87.8979766,35.1580555 87.9021222,35.1536767 87.9060241,35.1490548 C87.9352881,35.1142687 87.9616259,35.07705 87.9860126,35.0381284 C87.9899144,35.0315604 87.9940601,35.0252358 87.998206,35.0184244 C88.0213732,34.979503 88.041858,34.9393652 88.0601482,34.8980109 C88.0633183,34.8909565 88.0662447,34.8839019 88.0691711,34.8766043 C88.0867296,34.8342769 88.1018493,34.7917066 88.1140427,34.7481631 C88.1157498,34.7428113 88.1167252,34.737703 88.1181885,34.7323512 C88.1301378,34.6866184 88.1398927,34.6408856 88.1455016,34.5956394 Z M80.6490284,34.5956394 C80.7165796,34.1735841 80.6363472,33.8045594 80.5070977,33.4552387 C80.4810041,33.3851799 80.453447,33.3160942 80.4244268,33.2477383 C80.3666305,33.1107833 80.3039567,32.9757742 80.2429899,32.8405221 C80.2025078,32.8777406 80.1578803,32.9193381 80.1113016,32.9653141 C80.0644791,33.0108037 80.0154619,33.0601854 79.965469,33.1129726 C79.8657275,33.2185472 79.7625718,33.3367715 79.6679514,33.4615635 C79.573331,33.5865989 79.4870018,33.7182023 79.420914,33.8505354 C79.35507,33.9828687 79.3094667,34.1161749 79.2958101,34.2446159 C79.2755693,34.6294525 79.2704479,35.059292 79.463103,35.2733604 C79.4955374,35.3091195 79.5330929,35.3387972 79.576989,35.3609339 C79.6211289,35.383557 79.6713654,35.3988825 79.7289181,35.4054505 C79.7728142,35.4146941 79.815247,35.4180998 79.8567044,35.4190729 C79.8615817,35.4193161 79.8671906,35.4207757 79.8718241,35.4207757 C79.8762138,35.4207757 79.8798718,35.4193161 79.8840174,35.4193161 C79.9308399,35.418343 79.9761993,35.4127481 80.0198514,35.4022879 C80.0269236,35.4008285 80.0337518,35.398639 80.0408241,35.396693 C80.0844761,35.3842868 80.1266651,35.3687181 80.1664156,35.3482843 C80.1705612,35.346095 80.1744631,35.3434191 80.1786089,35.3409867 C80.2190908,35.3193364 80.2576218,35.2937942 80.293958,35.2643599 C80.2949335,35.2633867 80.2959089,35.2626571 80.2971282,35.261684 C80.3332206,35.2320063 80.3663865,35.1984365 80.3976016,35.162434 C80.4015034,35.1580555 80.4056491,35.1536767 80.4093071,35.1490548 C80.4385711,35.1142687 80.4649087,35.07705 80.4890516,35.0381284 C80.4934413,35.0315604 80.4975869,35.0252358 80.5014888,35.0181812 C80.5249,34.979503 80.5453849,34.9393652 80.563675,34.8980109 C80.5668452,34.8909565 80.5697716,34.8841453 80.5724541,34.8768475 C80.5902564,34.8345204 80.6053761,34.7917066 80.6178135,34.7481631 C80.6192766,34.7428113 80.6202521,34.7379462 80.6214716,34.7325944 C80.6334209,34.6868616 80.6431757,34.641129 80.6490284,34.5956394 Z M22.0029046,25.3624809 C20.9203788,26.7125713 20.514584,28.3591952 20.4875148,30.0330638 C20.4604456,30.6268602 20.7847887,30.815873 21.1908274,30.7888712 C21.5700406,30.7618694 22.0029046,30.5458549 22.2738409,30.2760801 C22.6793918,29.8710531 23.0583612,29.3580185 23.2210206,28.9259897 C23.6538846,27.7653985 24.0057846,26.3615479 23.491469,25.2814756 C23.1398128,24.5796719 22.3277356,24.9579403 22.0029046,25.3624809 Z M71.5830271,25.3624809 C70.500745,26.7125713 70.0944624,28.3591952 70.0673933,30.0330638 C70.0405679,30.6268602 70.364911,30.815873 70.7709498,30.7888712 C71.149919,30.7618694 71.5830271,30.5458549 71.8537195,30.2760801 C72.2595142,29.8710531 72.6387275,29.3580185 72.8008991,28.9259897 C73.2340069,27.7653985 73.5859071,26.3615479 73.0713475,25.2814756 C72.7196913,24.5796719 71.9078578,24.9579403 71.5830271,25.3624809 Z" id="text"></path>
        </g>
    </g>
</svg>