<?xml version="1.0" encoding="UTF-8"?>
<svg width="436px" height="221px" viewBox="0 0 436 221" version="1.1" xmlns="http://www.w3.org/2000/svg" xmlns:xlink="http://www.w3.org/1999/xlink">
    <!-- Generator: Sketch 42 (36781) - http://www.bohemiancoding.com/sketch -->
    <title>Logo-Couleur</title>
    <desc>Created with Sketch.</desc>
    <defs>
        <path d="M0.553958637,0.448695864 C0.552895377,0.448695864 0.552895377,0.448695864 0.552895377,0.447632603 C0.552895377,0.447632603 0.551832117,0.446569343 0.549705596,0.445506083 C0.550768856,0.446569343 0.552895377,0.447632603 0.553958637,0.448695864 Z M0.555021898,0.450822384 C0.553958637,0.449759124 0.553958637,0.449759124 0.553958637,0.448695864 C0.553958637,0.449759124 0.553958637,0.449759124 0.555021898,0.450822384 Z M0.558211679,0.454012165 C0.556085158,0.452948905 0.556085158,0.451885645 0.555021898,0.450822384 L0.556085158,0.450822384 C0.557148418,0.451885645 0.557148418,0.452948905 0.558211679,0.454012165 Z" id="path-1"></path>
        <path d="M0.987768856,0.771927007 L0.986705596,0.770863747 L0.987768856,0.771927007 Z" id="path-3"></path>
        <path d="M0.282827251,0.198829684 L0.282827251,0.197766423 L0.28176399,0.197766423 L0.282827251,0.198829684 Z M0.282827251,0.198829684 C0.283890511,0.199892944 0.284953771,0.199892944 0.286017032,0.200956204 C0.284953771,0.200956204 0.283890511,0.199892944 0.282827251,0.198829684 Z" id="path-5"></path>
        <path d="M0.0754914842,0.731523114 C0.0893138686,0.742155718 0.104199513,0.751725061 0.120148418,0.761294404 L0.0765547445,0.731523114 L0.0754914842,0.731523114 Z" id="path-7"></path>
        <path d="M1.63104136,0.675170316 C1.40456691,0.496542579 1.17383942,0.315788321 0.934605839,0.135034063 C0.993085158,0.178627737 1.05581752,0.223284672 1.11217032,0.266878345 C1.13449878,0.284953771 1.15682725,0.300902676 1.17915572,0.317914842 C1.33439173,0.43806326 1.48112165,0.556085158 1.63104136,0.675170316 Z" id="path-9"></path>
        <path d="M0.637956204,0.978199513 C0.447632603,0.837849148 0.24880292,0.700688564 0.049973236,0.5603382 C0.122274939,0.611374696 0.206272506,0.660284672 0.278574209,0.711321168 C0.283890511,0.715574209 0.289206813,0.71876399 0.292396594,0.721953771 C0.412545012,0.807014599 0.522060827,0.892075426 0.637956204,0.978199513 Z" id="path-11"></path>
        <path d="M0.839975669,0.741092457 C0.713447689,0.663474453 0.595425791,0.581603406 0.465708029,0.502922141 C0.507175182,0.527377129 0.547579075,0.549705596 0.587982968,0.575223844 C0.677296837,0.629450122 0.752788321,0.68686618 0.839975669,0.741092457 Z" id="path-13"></path>
        <polygon id="path-15" points="45.734017 0.545117967 45.734017 23.2817864 0.302284915 23.2817864 0.302284915 0.545117967"></polygon>
    </defs>
    <g id="Page-1" stroke="none" stroke-width="1" fill="none" fill-rule="evenodd">
        <g id="Logo-Couleur" transform="translate(0.000000, -1.000000)">
            <g id="Page-1">
                <g id="Group-11" transform="translate(107.389294, 0.629450)" fill-rule="nonzero">
                    <path d="M115.323449,9.73755085 C115.278792,9.73223455 115.235199,9.72798151 115.191605,9.72266521 C115.233072,9.73861411 115.281982,9.76413236 115.31707,9.7737017 L115.323449,9.73755085 Z" id="Fill-1" fill="#F27978"></path>
                    <path d="M46.3599584,91.4133825 C39.9931555,91.4133825 34.6130582,85.9258959 34.6130582,79.4304384 C34.6130582,72.7584798 39.8825764,67.331599 46.3599584,67.331599 C52.9021993,67.331599 58.2238173,72.7584798 58.2238173,79.4304384 C58.2238173,86.0375382 52.9021993,91.4133825 46.3599584,91.4133825 M179.04528,93.0667523 C179.04528,88.8987718 182.434954,85.5080345 186.602934,85.5080345 C190.803876,85.5080345 196.02661,82.3607839 201.57364,78.9338959 L201.57364,78.9317693 C200.866572,79.3677061 200.160567,79.8036428 199.466258,80.2268204 C197.19407,72.9690054 194.13826,65.9993338 190.277562,59.3975504 C187.909681,59.3284384 185.577951,59.7654384 183.472696,60.6809056 C181.721506,61.4422 180.131932,62.5150297 178.750756,63.8706866 C175.87889,66.6957693 171.541851,67.3422316 167.962917,65.481526 C166.247878,64.5905139 164.413754,64.0291124 162.513708,63.8122073 C160.614725,63.5974287 158.701919,63.7313995 156.829518,64.2130564 C152.981579,65.2050783 148.807219,63.5580881 146.677508,60.2109445 C145.636576,58.5820297 144.329829,57.1795893 142.794482,56.0440273 C141.26126,54.9084652 139.537715,54.0695528 137.67063,53.5506818 C133.790793,52.4661562 131.06353,49.0382049 130.878523,45.0180175 C130.792399,43.0743776 130.363905,41.2051659 129.60261,39.4603557 C128.840253,37.7081027 127.76636,36.1185285 126.40964,34.7341635 C123.592,31.8580443 122.943411,27.5241951 124.796674,23.9505771 C125.691939,22.2280954 126.255467,20.3950345 126.470245,18.5003046 C126.730744,16.2174847 126.468119,13.8602365 125.711078,11.6178204 C122.420287,10.8384506 119.106104,10.2345187 115.77491,9.78901265 C115.766404,11.5136209 115.050829,13.8092 115.316645,15.1744263 C104.984944,19.4232146 90.8659097,12.8682146 78.9148635,14.7533752 C69.3391409,16.2642681 61.4231676,22.1547304 52.9830071,25.9378107 C48.2876494,28.0409397 42.588574,29.7442827 38.0123015,31.7059981 C34.9224669,34.2280516 31.9570338,36.9404287 29.1404572,39.8484457 C28.3600241,40.6597134 27.3031433,41.1169153 26.1697078,41.136054 C25.0862455,41.1509397 24.030428,40.7447742 23.2276664,39.9962389 C20.4823282,43.1339202 17.9347564,46.4374701 15.5690022,49.8686112 C16.4132309,50.4789226 17.0075934,51.3571757 17.2298148,52.3853484 C17.4679852,53.4900759 17.2617127,54.6213849 16.6482114,55.5719397 C15.8805375,56.7627912 15.1234961,57.9919202 14.3972893,59.2231757 C13.7455107,60.3289664 12.643973,61.0711221 11.3755034,61.2603825 C11.1702942,61.2901538 10.9629584,61.3061027 10.7577491,61.3061027 C10.1197929,61.3061027 9.4882163,61.1529932 8.91299246,60.8733557 C7.20539635,64.11311 5.64027713,67.4326088 4.26760803,70.8403582 C5.16499976,71.2592827 5.89014331,71.954655 6.31332092,72.8637426 C6.79072482,73.8876623 6.84176131,75.0359835 6.45473455,76.0971173 C3.55735012,84.0747596 1.6892017,92.4085942 0.86836472,100.860451 C1.18202652,101.113507 1.4829292,101.364436 1.76575645,101.606859 C4.52385377,103.920514 5.84548637,107.67276 6.44941825,111.250631 C6.99061776,97.0008156 7.49672968,82.9232487 7.71150827,76.9339032 C7.88694623,70.8254725 11.3425423,67.3220297 17.1915375,67.3220297 C17.4105691,67.3220297 17.6359803,67.3262827 17.8624547,67.3347888 C22.588647,67.5081002 26.5322796,69.8600321 29.2691117,74.1375285 C31.4945156,77.6133265 31.3499122,83.0178788 30.9575691,89.2071173 C30.9097224,89.9609689 30.8661287,90.6297596 30.84699,91.1667061 L30.8448635,91.2092365 L30.842737,91.2517669 C30.454647,98.4946964 29.6550752,117.71738 29.0149925,133.272879 C30.4355083,129.468533 31.7901019,125.478117 33.2988684,120.953945 C33.3903088,120.642409 33.4987613,120.277711 33.6210363,119.896 C33.8421944,115.378207 34.061226,110.87211 34.2643088,106.35538 L34.265372,106.326672 L34.2674985,106.297964 C34.6109316,100.275657 38.1069316,96.8211246 43.8581068,96.8211246 C44.0782017,96.8211246 44.3014864,96.8253776 44.5290241,96.834947 C49.3509097,97.0114482 53.2796567,99.4048472 55.8633793,103.708925 C58.0058489,107.192166 57.7900071,112.390446 57.320046,118.326628 C57.2445545,119.27293 57.1807589,120.089514 57.1594937,120.666864 L57.1573672,120.709395 L57.1552406,120.751925 C56.9574742,124.437185 56.732063,128.029942 56.5140946,131.50574 C56.4694377,132.226631 56.4237175,132.944331 56.3801238,133.656716 C57.8708148,129.634402 59.2732552,125.521711 60.8181725,120.987969 C60.9074864,120.722154 60.9968002,120.457402 61.0861141,120.194777 C61.4933428,104.963572 65.749574,92.571273 73.3805934,84.3533338 C80.4172504,76.6127985 90.5788294,72.5213727 102.763793,72.5213727 C117.600528,72.5213727 129.111384,79.0678667 134.51062,90.075801 C136.035336,89.3985041 137.740805,89.0423119 139.577056,89.0423119 C146.771075,89.0423119 151.986367,94.3905114 152.849735,102.314991 C155.48662,100.334137 158.0108,99.5441343 161.524876,99.5441343 L161.613126,99.5441343 L161.701377,99.5473241 C166.523263,99.7248886 170.452009,102.118288 173.080389,106.497857 C175.196277,110.081044 174.830516,114.342592 174.537056,117.768417 C174.503031,118.173519 174.467944,118.572241 174.442426,118.913548 L174.146839,123.494073 C173.908669,127.164448 173.687511,130.574324 173.489744,133.816205 C175.003827,129.744981 176.42328,125.582317 177.990525,120.987969 C178.413703,119.715246 178.816679,118.556292 179.366384,117.459008 C180.290357,114.543548 181.472703,111.689757 182.882586,108.971 L182.896409,108.943356 L182.911294,108.916774 C184.742228,105.492013 187.119679,102.61802 189.904357,100.397932 C188.819832,100.543599 187.721484,100.62547 186.602934,100.62547 C182.434954,100.62547 179.04528,97.2347328 179.04528,93.0667523" id="Fill-3" fill="#F27978"></path>
                    <path d="M26.1694951,41.1359477 C27.3029307,41.116809 28.3608747,40.6596071 29.1402445,39.8483394 C44.8020693,23.6772129 64.8849307,13.3667774 87.2187141,10.0292032 C100.160719,8.09406934 113.10804,8.63101582 125.710865,11.6177141 C126.467906,13.8601302 126.730532,16.2173783 126.470033,18.5001983 C126.255254,20.3949282 125.69279,22.2279891 124.796461,23.9504708 C122.944262,27.5240888 123.591787,31.857938 126.409427,34.7340572 C127.76721,36.1184221 128.841103,37.7079964 129.602398,39.4602494 C130.363692,41.2050596 130.792186,43.0742713 130.87831,45.0179112 C131.063318,49.0380985 133.791644,52.4660499 137.670417,53.5505754 C139.537502,54.0694465 141.261047,54.9083589 142.795332,56.0439209 C144.329617,57.179483 145.636364,58.5819234 146.677296,60.2108382 C148.807006,63.5579818 152.982429,65.204972 156.830369,64.2129501 C158.701707,63.7312932 160.614512,63.5973224 162.513495,63.812101 C164.414605,64.0290061 166.247665,64.5914708 167.962704,65.4814197 C171.542702,67.3421253 175.878678,66.695663 178.750544,63.8705803 C180.132782,62.5149234 181.721293,61.4420937 183.472483,60.6807993 C185.577738,59.7653321 187.909468,59.3283321 190.278412,59.397444 C194.139111,65.9992275 197.194921,72.968899 199.466045,80.2267141 C200.344298,79.6940207 201.231057,79.1464416 202.127386,78.592483 C203.676556,77.6334221 205.273573,76.6477798 206.914184,75.692972 C204.285804,67.8280353 200.773855,60.2937725 196.401729,53.1592956 C195.708483,52.0322397 194.517631,51.2900839 193.203442,51.163556 C188.693091,50.5521813 184.161476,51.1582397 180.101948,52.9232518 C177.398077,54.0992178 174.951515,55.7504611 172.828184,57.8333881 C172.581507,58.0747482 172.167899,58.135354 171.86168,57.975865 C169.223731,56.6063856 166.399712,55.741955 163.471493,55.4091545 C160.561349,55.0731642 157.619308,55.2815633 154.726176,56.0215925 C154.372111,56.1130328 153.998906,55.9641764 153.808583,55.6664635 C152.210502,53.1624854 150.197751,51.0008771 147.825617,49.2454343 C145.456673,47.4931813 142.803838,46.2002567 139.940478,45.4028114 C139.607678,45.3103078 139.345052,44.9806971 139.33123,44.6340742 C139.195133,41.6548187 138.531658,38.7786995 137.358882,36.0897141 C136.189296,33.3900961 134.536989,30.9424708 132.449809,28.8127603 C132.208449,28.5671472 132.145717,28.1503491 132.304142,27.8441302 C133.678938,25.1987384 134.543369,22.374719 134.872979,19.4560693 C135.383344,14.9925024 134.614607,10.420483 132.650765,6.23761679 C132.115945,5.09354866 131.104785,4.25463625 129.882035,3.93884793 C115.525894,0.222753041 100.752955,-0.541731144 85.9672567,1.6634708 C61.782337,5.2774927 40.0312202,16.4470426 23.0669015,33.9642567 C22.2800888,34.7755243 21.8558479,35.844101 21.8749866,36.97541 C21.8941253,38.1045925 22.350264,39.16041 23.1562153,39.9387165 C23.9664197,40.728719 25.0551983,41.1508333 26.1694951,41.1359477" id="Fill-5" fill="#5D364C"></path>
                    <path d="M211.413476,94.4931161 C211.238038,93.3182134 211.037082,92.1507535 210.826556,90.9864835 C210.577754,91.1406562 210.328951,91.2927024 210.080148,91.4479384 C207.910033,92.789773 205.714401,94.1347973 203.478364,95.3777487 C206.642627,95.3926343 209.427306,96.2485589 211.811136,97.4298411 C211.690987,96.4516416 211.560206,95.4723788 211.413476,94.4931161" id="Fill-7" fill="#5D364C"></path>
                    <path d="M195.467655,165.84469 C195.452769,165.840437 195.438946,165.837247 195.424061,165.832994 C194.764839,165.638417 194.11944,165.414069 193.487864,165.167393 C193.432574,165.146128 193.376221,165.124863 193.320932,165.103597 C192.701051,164.855858 192.096056,164.583663 191.505946,164.288077 C191.4581,164.264685 191.41238,164.239167 191.364533,164.215775 C190.759538,163.907429 190.170491,163.576755 189.601647,163.2195 L189.601647,163.218437 C187.920633,166.005242 186.101394,168.730378 184.140742,171.380023 C167.932401,193.283186 144.205747,207.55533 117.332905,211.571264 C76.2081217,217.722225 37.063129,198.249675 16.1254063,165.187595 C15.7638978,165.051498 15.4087689,164.894135 15.0578929,164.72614 C14.9898443,164.693179 14.9207324,164.657028 14.8526837,164.623004 C14.5804891,164.486906 14.314674,164.342303 14.0520487,164.18813 C13.9648613,164.13922 13.8787372,164.09031 13.7936764,164.03821 C13.4821411,163.847887 13.1769854,163.651184 12.8792725,163.441721 C12.8654501,163.430026 12.8495012,163.421519 12.8346156,163.409824 C12.8303625,163.406634 12.8250462,163.402381 12.8197299,163.398128 C12.1371168,162.911155 11.4991606,162.375271 10.9164939,161.814933 C10.9164939,161.814933 10.9154307,161.814933 10.9154307,161.81387 C10.6528054,161.560814 10.3986861,161.303505 10.1605158,161.041943 C10.1477567,161.030247 10.1360608,161.016425 10.1254282,161.002602 C10.124365,161.002602 10.1233017,161.001539 10.1222384,161.000476 C9.90108029,160.755926 9.691618,160.508186 9.49385158,160.260446 L9.49278832,160.260446 C9.23441606,159.937215 8.99092944,159.615047 8.77508759,159.29288 C8.02974209,158.211544 7.39497567,157.100437 6.87185158,155.955305 C6.31470316,156.655994 5.74585888,157.322658 5.17063504,157.965931 L5.17063504,157.966994 C5.16319221,157.976563 5.15362287,157.984006 5.14405353,157.994639 C4.60923358,158.592191 4.06271776,159.155719 3.51407543,159.703298 C3.48005109,159.736259 3.44709002,159.774536 3.41306569,159.807498 C21.7830146,196.799388 59.9785158,221.157619 102.2059,221.157619 C107.609389,221.157619 113.08199,220.757833 118.583299,219.936996 C147.688988,215.588262 173.3848,200.130583 190.937102,176.411371 C193.344324,173.159921 195.549526,169.804271 197.56653,166.363561 L197.565467,166.363561 C196.854146,166.221084 196.154521,166.045646 195.467655,165.84469" id="Fill-9" fill="#5D364C"></path>
                </g>
                <g id="Group-14" transform="translate(116.958637, 161.181762)">
                    <g id="Fill-12-Clipped">
                        <g>
                            <mask id="mask-2" fill="white">
                                <use xlink:href="#path-1"></use>
                            </mask>
                            <g id="path-1"></g>
                            <path d="M0.553958637,0.448695864 C0.552895377,0.448695864 0.552895377,0.448695864 0.552895377,0.447632603 L0.552895377,0.447632603 C0.552895377,0.447632603 0.551832117,0.446569343 0.549705596,0.445506083 L0.549705596,0.445506083 C0.550768856,0.446569343 0.552895377,0.447632603 0.553958637,0.448695864 M0.555021898,0.450822384 C0.553958637,0.449759124 0.553958637,0.449759124 0.553958637,0.448695864 L0.553958637,0.448695864 C0.553958637,0.449759124 0.553958637,0.449759124 0.555021898,0.450822384 M0.558211679,0.454012165 C0.557148418,0.452948905 0.557148418,0.451885645 0.556085158,0.450822384 L0.556085158,0.450822384 L0.555021898,0.450822384 L0.555021898,0.450822384 C0.556085158,0.451885645 0.556085158,0.452948905 0.558211679,0.454012165" id="Fill-12" mask="url(#mask-2)"></path>
                        </g>
                    </g>
                </g>
                <g id="Group-17" transform="translate(115.895377, 160.118501)">
                    <g id="Fill-15-Clipped">
                        <g>
                            <mask id="mask-4" fill="white">
                                <use xlink:href="#path-3"></use>
                            </mask>
                            <g id="path-3"></g>
                            <path d="M0.987768856,0.771927007 L0.986705596,0.770863747 L0.987768856,0.771927007 Z" id="Fill-15" mask="url(#mask-4)"></path>
                        </g>
                    </g>
                </g>
                <g id="Group-20" transform="translate(118.021898, 162.245022)">
                    <g id="Fill-18-Clipped">
                        <g>
                            <mask id="mask-6" fill="white">
                                <use xlink:href="#path-5"></use>
                            </mask>
                            <g id="path-5"></g>
                            <path d="M0.282827251,0.198829684 L0.282827251,0.197766423 L0.28176399,0.197766423 L0.282827251,0.198829684 L0.282827251,0.198829684 Z M0.282827251,0.198829684 C0.283890511,0.199892944 0.284953771,0.199892944 0.286017032,0.200956204 L0.286017032,0.200956204 C0.284953771,0.200956204 0.283890511,0.199892944 0.282827251,0.198829684 L0.282827251,0.198829684 Z" id="Fill-18" mask="url(#mask-6)"></path>
                        </g>
                    </g>
                </g>
                <path d="M123.514913,165.816939 C138.721663,189.828547 163.534969,206.661021 191.732634,211.727457 C197.920809,210.723739 203.894205,208.345226 209.141395,204.590854 C209.250911,204.512172 209.359364,204.433491 209.468879,204.35481 C216.046208,199.580771 224.385359,197.631815 232.391709,199.030002 C236.641561,199.773221 241.079609,199.842333 245.58039,199.132075 C260.73185,196.741866 272.561685,186.23579 277.385697,172.746206 C278.565916,169.444783 280.189514,166.33262 282.251176,163.5607 C278.946563,166.264571 275.823767,166.500615 271.51012,166.500615 C267.022098,166.500615 262.691439,163.0716 260.544716,159.850985 C257.76748,155.604323 256.555364,151.130124 256.9392,146.553851 C257.181624,139.943562 257.638826,134.182817 258.081142,128.61027 C258.270402,126.216871 258.466042,123.75117 258.640417,121.259951 C258.386298,121.31524 258.133242,121.362024 257.884439,121.403491 C257.331544,123.119593 257.026388,123.903216 256.483062,125.261 C255.646276,127.353496 253.424062,132.911158 248.192821,132.911158 C247.757947,132.911158 247.317758,132.868627 246.885011,132.78463 C244.945624,132.413552 243.30395,131.358798 242.258765,129.811754 C241.436865,128.595384 240.588383,126.491192 241.212517,123.371586 L241.239098,123.238678 L241.273123,123.107897 C241.432612,122.49227 241.584658,121.940437 241.731388,121.432199 C239.910023,125.366262 237.389033,128.920742 234.185429,132.060549 C229.982361,136.262554 224.679882,139.641596 219.629395,141.338559 C218.68203,141.677739 215.642169,142.665508 212.393909,142.665508 C210.033471,142.665508 208.296103,142.19342 207.017001,141.488479 C207.025507,143.372576 207.031887,145.264116 207.031887,147.20244 C207.031887,151.700031 206.470485,158.240145 201.618828,163.091802 C199.390235,165.321459 196.630011,166.500615 193.63268,166.500615 C190.015468,166.500615 184.035692,164.863194 180.9012,162.425138 L180.845911,162.382608 L180.791685,162.337951 C177.578512,159.68299 175.438169,156.693102 173.640196,152.346493 C173.496655,152.001997 173.355242,151.653248 173.215955,151.300245 C171.660405,154.796245 169.760359,158.647374 167.230862,161.480963 C163.050123,166.162498 159.571135,166.500615 154.338831,166.500615 C149.850809,166.500615 145.519086,163.0716 143.372364,159.849922 C143.017235,159.306596 142.686561,158.757953 142.382468,158.208248 C141.587149,159.403352 140.784388,160.45598 139.97312,161.364004 C136.123055,165.675525 132.79505,166.519754 128.346368,166.519754 C127.923191,166.519754 127.478748,166.512311 127.00666,166.500615 C125.79667,166.489982 124.600502,166.226294 123.456434,165.792484 C123.476636,165.798863 123.494711,165.809496 123.514913,165.816939" id="Fill-21" fill="#F27978" fill-rule="nonzero"></path>
                <g id="Group-25" transform="translate(120.148418, 163.308282)">
                    <g id="Fill-23-Clipped">
                        <g>
                            <mask id="mask-8" fill="white">
                                <use xlink:href="#path-7"></use>
                            </mask>
                            <g id="path-7"></g>
                            <path d="M0.0754914842,0.731523114 C0.0893138686,0.742155718 0.104199513,0.751725061 0.120148418,0.761294404 L0.120148418,0.761294404 L0.0765547445,0.731523114 L0.0754914842,0.731523114 Z" id="Fill-23" mask="url(#mask-8)"></path>
                        </g>
                    </g>
                </g>
                <g id="Group-28" transform="translate(120.148418, 163.308282)">
                    <path d="M0.121211679,0.762357664 L0.122274939,0.762357664 L0.121211679,0.762357664 Z" id="Fill-26"></path>
                </g>
                <path d="M101.385808,97.3269175 C101.495323,97.3694479 101.600586,97.4162314 101.709039,97.4608883 C101.964221,97.5682776 102.216214,97.6756669 102.463954,97.790499 C102.584102,97.8447253 102.701061,97.9021414 102.820146,97.9595574 C103.053,98.0711998 103.283727,98.1881584 103.510202,98.3061803 C103.619718,98.3635964 103.72817,98.4199491 103.836623,98.4794917 C104.079046,98.6123993 104.31828,98.7484966 104.55326,98.8877837 C104.630878,98.9335039 104.710623,98.9781608 104.787177,99.0249443 C105.429387,99.411971 106.035445,99.81601 106.604289,100.224302 C106.609606,100.228555 106.614922,100.230682 106.619175,100.234935 C106.902002,100.438017 107.173134,100.640037 107.437885,100.843119 C107.461277,100.860132 107.482542,100.877144 107.504871,100.894156 C107.763243,101.092986 108.012046,101.290752 108.253406,101.485329 C108.254469,101.487455 108.256596,101.488518 108.257659,101.489582 C109.078496,93.0377253 110.946645,84.7038908 113.844029,76.7262484 C114.231056,75.6651146 114.180019,74.5167934 113.702615,73.4928737 C113.225211,72.4678908 112.37673,71.6917107 111.313469,71.3057472 C110.252336,70.9197837 109.102951,70.9718835 108.081158,71.4492873 C107.056175,71.9277545 106.279995,72.7772995 105.896158,73.8373701 C103.184844,81.2993311 101.303936,89.0494358 100.266194,96.9196888 L100.267258,96.9196888 C100.648968,97.0451535 101.020046,97.1823141 101.385808,97.3269175" id="Fill-29" fill="#5D364C" fill-rule="nonzero"></path>
                <g id="Group-33" transform="translate(106.326034, 100.575922)">
                    <g id="Fill-31-Clipped">
                        <g>
                            <mask id="mask-10" fill="white">
                                <use xlink:href="#path-9"></use>
                            </mask>
                            <g id="path-9"></g>
                            <path d="M1.63104136,0.675170316 C1.48112165,0.556085158 1.33439173,0.43806326 1.17915572,0.317914842 L1.17915572,0.317914842 C1.15682725,0.300902676 1.13449878,0.284953771 1.11217032,0.266878345 L1.11217032,0.266878345 C1.05581752,0.223284672 0.993085158,0.178627737 0.934605839,0.135034063 L0.934605839,0.135034063 C1.17383942,0.315788321 1.40456691,0.496542579 1.63104136,0.675170316" id="Fill-31" mask="url(#mask-10)"></path>
                        </g>
                    </g>
                </g>
                <g id="Group-36" transform="translate(106.326034, 99.512662)">
                    <g id="Fill-34-Clipped">
                        <g>
                            <mask id="mask-12" fill="white">
                                <use xlink:href="#path-11"></use>
                            </mask>
                            <g id="path-11"></g>
                            <path d="M0.637956204,0.978199513 C0.522060827,0.892075426 0.412545012,0.807014599 0.292396594,0.721953771 L0.292396594,0.721953771 C0.289206813,0.71876399 0.283890511,0.715574209 0.278574209,0.711321168 L0.278574209,0.711321168 C0.206272506,0.660284672 0.122274939,0.611374696 0.049973236,0.5603382 L0.049973236,0.5603382 C0.24880292,0.700688564 0.447632603,0.837849148 0.637956204,0.978199513" id="Fill-34" mask="url(#mask-12)"></path>
                        </g>
                    </g>
                </g>
                <g id="Group-39" transform="translate(104.199513, 98.449401)">
                    <g id="Fill-37-Clipped">
                        <g>
                            <mask id="mask-14" fill="white">
                                <use xlink:href="#path-13"></use>
                            </mask>
                            <g id="path-13"></g>
                            <path d="M0.839975669,0.741092457 C0.752788321,0.68686618 0.677296837,0.629450122 0.587982968,0.575223844 L0.587982968,0.575223844 C0.547579075,0.549705596 0.507175182,0.527377129 0.465708029,0.502922141 L0.465708029,0.502922141 C0.595425791,0.581603406 0.713447689,0.663474453 0.839975669,0.741092457" id="Fill-37" mask="url(#mask-14)"></path>
                        </g>
                    </g>
                </g>
                <g id="Group-102" transform="translate(0.000000, 41.033343)">
                    <g id="Group-44" transform="translate(390.216545, 56.352798)">
                        <g id="Fill-42-Clipped">
                            <g>
                                <mask id="mask-16" fill="white">
                                    <use xlink:href="#path-15"></use>
                                </mask>
                                <g id="path-15"></g>
                                <path d="M42.6572606,0.592873966 C34.5913676,0.0208399027 26.9943725,4.6885528 19.7110392,9.19146034 C13.5281803,13.0138813 7.6834382,16.6257766 2.20552092,16.737419 C1.57713406,16.7235966 0.94236764,16.6587377 0.302284915,16.557728 C0.993404136,18.0345966 1.70366204,19.5476161 2.38627518,21.0000297 C2.75628978,21.7879056 3.11141873,22.544947 3.45697835,23.2817864 C3.78871557,23.2562681 4.1204528,23.2275601 4.4500635,23.1860929 L4.45644307,23.1765236 L4.64464015,22.879874 C6.24165718,20.3620735 8.4287837,16.9139202 12.6594966,16.9139202 C13.7036182,16.9139202 14.7488032,17.1467742 15.7684698,17.6050394 L15.8567204,17.6454433 L15.9439078,17.689037 C16.3724017,17.9027523 16.7711243,18.1558083 17.145392,18.432256 C19.1825988,17.2892511 21.1942873,16.0452365 23.1868372,14.813981 C29.8896304,10.6715187 36.1841316,6.7661635 42.2000586,7.1872146 C44.0278032,7.31799562 45.6003652,5.93894696 45.7268932,4.11864526 C45.7322095,4.04102725 45.734336,3.96340925 45.734336,3.88579124 C45.734336,2.16543601 44.3999443,0.714085645 42.6572606,0.592873966" id="Fill-42" fill="#5D364C" fill-rule="nonzero" mask="url(#mask-16)"></path>
                            </g>
                        </g>
                    </g>
                    <path d="M353.142783,60.3245007 C353.253363,61.5153523 353.351182,62.5222599 353.625504,63.5089655 C356.813158,63.5270409 360.128404,64.7412842 363.562735,66.5105494 C362.955613,64.0735567 362.521803,61.4706954 362.80782,58.8986686 C359.787097,57.6801723 356.707895,56.8954861 353.557455,56.8954861 C353.261869,56.8954861 352.970535,56.9135616 352.677075,56.9273839 C352.935448,58.1511966 353.046027,59.2995178 353.142783,60.3245007" id="Fill-45" fill="#5D364C" fill-rule="nonzero"></path>
                    <path d="M420.995167,122.399553 C413.117472,121.848784 405.696978,126.399539 398.584829,130.79612 C392.544447,134.530291 386.838992,138.058188 381.488666,138.166641 C376.180871,138.058188 370.469036,134.517531 364.422274,130.771665 C361.258012,128.811013 358.042712,126.824843 354.759364,125.270356 C353.07516,125.758393 351.308021,126.011449 349.502605,126.011449 C348.477622,126.011449 347.43988,125.928514 346.417024,125.765836 C343.959829,125.400074 341.712097,124.329371 339.836506,122.700456 C333.779111,123.794551 328.026873,127.341587 322.435187,130.79931 C316.301238,134.593023 310.508596,138.17621 305.088094,138.17621 C303.305007,138.17621 301.860036,139.622244 301.860036,141.404269 C301.860036,143.187356 303.305007,144.632327 305.088094,144.632327 C312.343783,144.632327 319.200749,140.392045 325.83124,136.292113 C332.054503,132.442047 337.932206,128.80676 343.531335,128.80676 C348.993304,128.80676 354.835919,132.427162 361.021968,136.259152 C367.366442,140.190025 373.918253,144.25168 380.784788,144.601492 C381.013389,144.63339 381.250496,144.638707 381.488666,144.625947 C381.540766,144.628074 381.587549,144.6302 381.634333,144.632327 L381.710888,144.632327 L381.711951,144.632327 L381.716204,144.632327 L381.719394,144.632327 C381.723647,144.63339 381.73109,144.63339 381.737469,144.632327 C381.889515,144.632327 382.038372,144.621694 382.185102,144.602556 C389.090978,144.256996 395.639598,140.207037 401.978756,136.288923 C408.524187,132.242154 414.673021,128.442062 420.548598,128.840784 C422.333812,128.972629 423.86916,127.621225 423.991435,125.843454 C423.997815,125.766899 423.999941,125.691407 423.999941,125.614853 C423.998878,123.934901 422.697447,122.517575 420.995167,122.399553" id="Fill-47" fill="#5D364C" fill-rule="nonzero"></path>
                    <path d="M422.950397,91.6771774 C415.218368,91.1317248 407.918022,95.3943355 400.911136,99.7154255 C401.263076,102.072674 401.308796,104.756343 401.034475,107.401735 C401.852122,106.903065 402.668706,106.39908 403.479973,105.897221 C410.181703,101.754759 416.477268,97.8568465 422.492132,98.2704547 C424.320939,98.4033623 425.893501,97.0232504 426.018966,95.2018854 C426.025346,95.1242674 426.027472,95.0466494 426.027472,94.9690314 C426.027472,93.2486762 424.693081,91.7973258 422.950397,91.6771774" id="Fill-49" fill="#5D364C" fill-rule="nonzero"></path>
                    <path d="M293.992654,55.9686421 C301.421654,55.9686421 308.443425,51.6262869 315.232342,47.4274718 C321.604462,43.4859657 327.622515,39.7634912 333.355615,39.7634912 C338.948364,39.7634912 344.93133,43.4689535 351.264109,47.3945107 C355.490569,50.0122577 359.806342,52.6799779 364.243328,54.3280314 C364.497447,53.8687029 364.774958,53.4136275 365.106695,52.9659949 C366.326255,51.2583988 367.741454,49.919754 369.316143,48.9745156 C364.718605,47.9484693 359.848873,44.9362528 354.746286,41.7741165 C347.905269,37.5359608 340.831398,33.1521384 333.355615,33.1521384 C325.743734,33.1521384 318.631586,37.5508465 311.753355,41.8049511 C305.473739,45.6879779 299.542873,49.3572893 293.992654,49.3572893 C292.167036,49.3572893 290.688041,50.8373477 290.688041,52.6629657 C290.688041,54.4875204 292.167036,55.9686421 293.992654,55.9686421" id="Fill-51" fill="#5D364C" fill-rule="nonzero"></path>
                    <path d="M412.671859,33.2029623 C404.605966,32.6426241 397.008971,37.2975779 389.725638,41.8004854 C385.869192,44.1843151 382.145655,46.4852105 378.560341,47.9078528 C380.66347,48.6840328 382.410407,50.240646 383.765,52.6117165 C383.796898,52.6670061 383.819227,52.7212324 383.850061,52.7765219 C387.024956,51.2369209 390.138183,49.3166727 393.201436,47.4230061 C399.904229,43.2794805 406.19873,39.3868844 412.214657,39.7962397 C414.042402,39.9270207 415.614964,38.5490353 415.741492,36.7276703 C415.746808,36.6500523 415.748935,36.5724343 415.748935,36.4958796 C415.748935,34.7744611 414.414543,33.3231107 412.671859,33.2029623" id="Fill-53" fill="#5D364C" fill-rule="nonzero"></path>
                    <path d="M384.314812,111.243613 C384.314812,111.243613 384.313749,111.244676 384.313749,111.24574 C384.290357,111.442443 384.247827,111.641273 384.195727,111.840102 C384.189347,111.863494 384.184031,111.886886 384.177652,111.911341 C384.124489,112.100601 384.058566,112.286672 383.982012,112.471679 C383.968189,112.503577 383.95543,112.534411 383.941608,112.565246 C383.862927,112.746 383.772549,112.921438 383.672603,113.090496 C383.654527,113.121331 383.636452,113.148976 383.618377,113.177684 C383.512051,113.347805 383.397218,113.510484 383.270691,113.66253 C383.253678,113.682732 383.23454,113.701871 383.218591,113.72101 C383.082493,113.878372 382.93789,114.024039 382.781591,114.15482 C382.776274,114.159073 382.769895,114.162263 382.764579,114.167579 C382.608279,114.29517 382.440284,114.406813 382.263783,114.501443 C382.246771,114.512075 382.228695,114.523771 382.21062,114.533341 C382.037309,114.622655 381.854428,114.690703 381.663041,114.743866 C381.632206,114.753436 381.602435,114.763005 381.5716,114.769384 C381.381277,114.815105 381.184574,114.83956 380.979364,114.843813 C380.961289,114.843813 380.94534,114.850192 380.926201,114.850192 C380.904936,114.850192 380.881545,114.843813 380.860279,114.842749 C380.678462,114.838496 380.494518,114.823611 380.303131,114.783207 C378.296759,114.5461 378.296759,111.950681 378.413717,109.709328 C378.533866,108.587589 379.211163,107.377599 380.037316,106.286693 C380.341408,105.884781 380.664639,105.507324 380.988934,105.147942 C381.323861,104.774737 381.658788,104.421735 381.970323,104.117642 C382.173406,103.916686 382.366919,103.734869 382.544484,103.57219 C382.677391,103.867776 382.811362,104.163363 382.94427,104.458949 C383.476963,105.643421 383.983075,106.845968 384.24251,108.142083 C384.436024,109.112839 384.491313,110.136759 384.314812,111.243613 M351.630189,111.243613 L351.630189,111.243613 C351.604671,111.44138 351.562141,111.641273 351.508978,111.841165 C351.504725,111.864557 351.499408,111.886886 351.493029,111.910277 C351.439866,112.100601 351.37288,112.287735 351.296326,112.472742 C351.283566,112.50464 351.271871,112.534411 351.258048,112.565246 C351.178304,112.746 351.087927,112.921438 350.986917,113.090496 C350.969905,113.121331 350.951829,113.148976 350.932691,113.177684 C350.827428,113.347805 350.711532,113.510484 350.585004,113.661467 C350.569055,113.682732 350.549917,113.701871 350.532905,113.722073 C350.397871,113.878372 350.253267,114.025102 350.095905,114.15482 C350.090588,114.159073 350.085272,114.162263 350.081019,114.166516 C349.923656,114.29517 349.755661,114.406813 349.57916,114.501443 C349.561085,114.512075 349.544073,114.523771 349.525997,114.533341 C349.352686,114.622655 349.168742,114.690703 348.978418,114.743866 C348.94652,114.753436 348.917812,114.763005 348.886978,114.769384 C348.696654,114.815105 348.498888,114.83956 348.294742,114.843813 C348.275603,114.843813 348.260717,114.850192 348.241579,114.850192 C348.220313,114.850192 348.196922,114.843813 348.175656,114.842749 C347.993839,114.838496 347.809895,114.823611 347.618508,114.783207 L347.617445,114.783207 C346.86572,114.694956 346.395759,114.274968 346.107615,113.664657 C346.012985,113.461574 345.93643,113.23829 345.877951,112.997993 C345.641907,112.038932 345.670615,110.830005 345.729094,109.709328 C345.818408,108.86829 346.222447,107.978341 346.766836,107.124543 C347.674861,105.7019 348.974165,104.384521 349.859861,103.57219 C350.390428,104.753472 350.950766,105.932628 351.320781,107.187275 C351.412221,107.499873 351.493029,107.817788 351.556824,108.142083 C351.686542,108.788545 351.754591,109.459462 351.732262,110.162277 C351.72163,110.514217 351.687605,110.873599 351.630189,111.243613 M249.326469,68.5260657 C248.147313,67.5829538 247.085116,66.4027348 246.731051,65.5776448 C245.787939,63.4532506 245.43281,61.5649002 246.140941,60.3846813 C246.611965,59.558528 248.028228,59.4415693 248.618338,60.738747 C249.680535,62.8631411 249.563576,64.8695134 249.326469,68.5260657 M95.9320263,70.8865036 C97.3482891,69.1183017 100.890009,67.4649319 102.423231,70.532438 C104.665647,75.2533139 103.131362,81.3893893 101.244075,86.4622044 C100.53488,88.3505547 98.8825737,90.5929708 97.1143718,92.3632993 C95.9320263,93.542455 94.0458024,94.4866302 92.3924326,94.6046521 C90.6221041,94.722674 89.2079679,93.8965207 89.3249265,91.3011022 C89.4429484,83.9848078 91.2132769,76.7875985 95.9320263,70.8865036 M312.102423,70.8865036 C313.518686,69.1183017 317.058279,67.4649319 318.591501,70.532438 C320.83498,75.2533139 319.300695,81.3893893 317.412345,86.4622044 C316.704214,88.3505547 315.050844,90.5929708 313.281579,92.3632993 C312.102423,93.542455 310.214073,94.4866302 308.561766,94.6046521 C306.791437,94.722674 305.376238,93.8965207 305.493197,91.3011022 C305.611218,83.9848078 307.38261,76.7875985 312.102423,70.8865036 M404.020216,78.32082 C401.660841,77.2586229 400.3626,79.5010389 398.710294,82.0975207 C396.939965,85.16609 395.406744,87.0523139 392.810262,89.2947299 C392.221216,87.8784672 391.513085,86.4622044 390.922975,85.0459416 C388.562537,79.9731265 384.078768,70.532438 382.30844,66.5207567 C380.42009,62.1550097 381.719394,58.733438 379.595,54.9567372 C378.178737,52.4782774 376.643389,52.0061898 374.757165,52.1242117 C373.104858,52.2432968 370.980464,52.9514282 368.974092,55.7828905 C366.496695,59.0875036 367.558892,63.2172068 368.974092,68.1730633 C369.44618,69.8243066 369.918267,71.1236107 370.154311,72.774854 C369.263299,75.3373114 368.476486,77.1724988 367.596107,79.7519684 C367.077236,80.4260754 366.571124,81.2405328 366.025671,82.0975207 C364.255343,85.16609 362.721058,87.0523139 360.125639,89.2947299 C359.53553,87.8784672 358.827399,86.4622044 358.238352,85.0459416 C355.877914,79.9731265 351.394145,70.532438 349.623817,66.5207567 C347.735467,62.1550097 349.033708,58.733438 346.909313,54.9567372 C345.493051,52.4782774 343.958766,52.0061898 342.072542,52.1242117 C340.420236,52.2432968 338.295841,52.9514282 336.289469,55.7828905 C333.812073,59.0875036 334.87427,63.2172068 336.289469,68.1730633 C336.760493,69.8243066 337.233644,71.1236107 337.468625,72.774854 C336.655231,75.1172165 335.926897,76.8471411 335.135832,79.0991265 C334.730729,79.971 334.407498,81.024691 334.050243,82.0975207 C330.746693,92.3632993 326.733948,105.461603 317.765347,112.894856 C316.113041,114.192034 313.871688,115.490275 311.629272,115.608297 C309.387919,115.727382 307.736676,114.311119 306.791437,111.832659 C305.611218,108.647131 304.903087,103.808234 305.023236,100.386662 C306.084369,100.977835 307.263525,101.212815 308.561766,101.094793 C311.747294,100.977835 315.523995,98.9714623 318.591501,95.3127835 C322.721204,90.9470365 324.964683,85.754073 325.553729,79.8551046 C325.907795,76.9056204 325.907795,67.9380827 322.249116,64.8695134 C318.119413,61.3288564 313.518686,58.733438 307.499569,60.1486375 C301.717559,61.5649002 297.23379,65.6946034 294.519287,70.769545 C293.15725,73.3968613 292.051459,76.1103017 291.194472,78.8896642 C290.693676,79.7998151 290.305586,80.9364404 289.918559,82.0975207 C286.378965,92.4813212 283.547503,100.740727 278.825564,110.535482 C277.293406,113.72101 275.169012,113.837968 275.287034,111.125591 C275.523077,101.094793 276.231209,91.0650584 277.057362,78.2027981 C277.293406,75.0172701 277.882452,71.1236107 276.349231,68.5260657 C274.578902,65.5776448 272.100442,64.0422968 268.914914,63.9253382 C266.318433,63.9253382 264.667189,64.3963625 262.42371,66.2857762 C261.126532,67.2288881 260.300379,67.9380827 258.767158,68.6451509 C256.996829,69.4713041 256.288698,69.4713041 255.344523,69.2341971 C255.461481,67.8179343 255.580566,65.8126253 255.580566,64.2794039 C255.580566,58.733438 252.985148,53.4224526 246.966031,53.4224526 C243.466841,53.4224526 240.999014,55.368219 239.903856,58.7504501 C237.257401,44.9259392 225.937931,36.9025766 210.152768,36.9025766 C198.824793,36.9025766 190.210257,40.6792774 184.311289,47.1683552 C176.92163,55.1257956 173.485172,67.1395742 173.241686,80.6663723 C173.071564,81.1299538 172.908885,81.6116107 172.74727,82.0975207 C169.207676,92.4813212 166.37515,100.740727 161.655338,110.535482 C160.122116,113.72101 157.996659,113.837968 158.115744,111.125591 C158.350725,101.094793 159.177941,91.0650584 159.768051,80.0911484 C159.886073,76.7875985 161.065228,68.8801314 159.177941,65.8126253 C157.407613,62.8631411 154.929153,61.3288564 151.743625,61.2108345 C148.558097,61.0928127 146.668683,62.0369878 146.432639,66.166691 C146.219987,70.9056423 145.98926,75.6360876 145.756406,80.3782287 C145.577778,80.8928467 145.414036,81.432983 145.25561,81.9794988 C141.831912,92.2452774 139.00045,100.504684 133.927635,110.41746 C131.920199,114.429141 130.621958,113.483903 130.858002,111.125591 C131.33009,100.150618 132.865437,61.5649002 133.454484,50.589927 C133.573569,47.2874404 134.516681,39.2640779 132.62833,36.3124672 C130.741043,33.3640462 128.262583,31.8297616 125.077055,31.7117397 C121.890464,31.5937178 120.003177,32.5378929 119.885155,36.6665328 C119.591695,44.7760195 118.893133,64.1911533 118.234975,81.0268175 C118.118017,81.3776934 118.001058,81.7360122 117.880909,82.0975207 C114.57736,92.3632993 110.564615,105.461603 101.598141,112.894856 C99.9447708,114.192034 97.7023547,115.490275 95.4610019,115.608297 C93.2196491,115.727382 91.5673426,114.311119 90.6221041,111.832659 C89.4429484,108.647131 88.734817,103.808234 88.8528389,100.386662 C89.915036,100.977835 91.095255,101.212815 92.3924326,101.094793 C95.5790238,100.977835 99.3546613,98.9714623 102.423231,95.3127835 C106.552934,90.9470365 108.79535,85.754073 109.385459,79.8551046 C109.739525,76.9056204 109.739525,67.9380827 106.079783,64.8695134 C101.951143,61.3288564 97.3482891,58.733438 91.3302355,60.1486375 C85.5492891,61.5649002 81.0644569,65.6946034 78.3510165,70.769545 C75.0474667,77.140601 73.158053,83.9848078 73.0410944,91.1830803 C73.0410944,99.325528 73.9852696,109.237241 80.0022599,115.962363 C84.487092,120.919282 91.9214083,122.688547 98.8825737,121.154263 C100.770924,120.800197 102.895318,119.858148 104.665647,118.441886 C109.878812,114.425951 114.113778,108.156968 117.395,101.291496 C117.314192,103.069268 117.237637,104.63545 117.170652,105.932628 C117.053693,109.82735 117.996805,113.129837 120.121199,116.198406 C121.536399,118.3228 124.486946,120.682175 127.082364,120.682175 C131.566133,120.800197 133.454484,120.446131 136.405031,117.143645 C139.354515,113.837968 141.831912,108.529109 143.485282,104.399406 C143.798944,103.547735 144.246576,102.324985 144.770764,100.880015 C144.695272,102.524878 144.616591,104.153793 144.544289,105.815669 C144.190223,109.709328 145.370442,113.129837 147.376815,116.198406 C148.793077,118.3228 151.743625,120.682175 154.339043,120.682175 C158.823875,120.682175 160.710099,120.565217 163.66171,117.260603 C166.611194,113.957054 168.735588,108.529109 170.505917,104.516365 C171.327817,102.630141 172.746206,99.0937372 174.205,95.2808856 C174.963104,100.16444 176.192233,104.999085 178.057192,109.473285 C179.472391,112.894856 181.123635,115.373316 183.838138,117.614669 C185.962532,119.265912 190.800367,120.682175 193.632892,120.682175 C195.52018,120.682175 197.054464,119.858148 198.23362,118.676866 C201.302189,115.608297 202.247428,111.243613 202.247428,106.169735 C202.247428,97.5551995 202.128343,89.8848394 202.247428,79.7370827 C202.247428,76.4324696 202.482408,68.4101703 200.477099,65.5776448 C198.470727,62.7451192 195.874245,61.3288564 192.688717,61.4468783 C189.502126,61.5649002 187.613776,62.6260341 187.731798,66.7568005 C188.204948,85.8731582 188.321907,88.3505547 188.439929,106.169735 L188.439929,108.529109 C188.439929,112.06764 187.142751,112.304747 185.726489,109.001197 C182.06781,100.504684 180.415503,90.4749489 180.534588,80.9173017 C180.534588,69.2341971 183.484073,58.0253066 190.328279,51.0630779 C194.457982,46.8153528 199.178858,43.8648054 206.49409,44.1008491 C211.096944,44.218871 215.580712,45.5171119 219.121369,49.5298564 C222.897007,53.7765182 224.430228,60.0306156 224.430228,66.5207567 C224.430228,73.4829854 223.604075,80.3271922 218.294153,85.8731582 C215.815693,88.4685766 213.102253,90.0028613 210.034746,91.4191241 C208.736506,92.0092336 208.146396,93.3074745 208.264418,94.6046521 C208.500462,96.4930024 210.27079,96.8470681 212.395184,96.8470681 C214.518515,96.8470681 216.759868,96.2558954 218.059172,95.784871 C222.6599,94.2505864 227.262754,91.1830803 230.802347,87.6434866 C236.111206,82.437764 239.579562,75.7594258 240.323844,66.9662628 C241.261639,69.2235645 242.779975,71.2905426 244.606656,72.774854 C245.668854,73.6010073 247.085116,74.4271606 248.264272,75.0172701 C247.320097,78.7918443 246.731051,80.0911484 245.903834,83.2766764 C245.549768,85.0459416 245.903834,86.6982482 247.793248,87.0523139 C249.563576,87.4063796 250.860754,85.4010706 252.040973,82.4515864 C252.749104,80.6812579 252.985148,80.0911484 254.282326,75.8434234 C256.642764,75.8434234 258.177048,75.6073796 260.654445,74.5451825 C262.896861,73.6010073 263.721951,75.8434234 263.485907,79.5010389 C262.896861,88.2325328 262.070708,96.0209148 261.715579,105.815669 C261.362576,109.709328 262.542795,113.129837 264.548104,116.198406 C265.964367,118.3228 268.914914,120.682175 271.510333,120.682175 C275.995165,120.682175 277.882452,120.565217 280.833,117.260603 C283.782484,113.957054 285.906878,108.529109 287.676143,104.516365 C288.168433,103.388246 288.874437,101.666827 289.674009,99.6540754 C290.392773,105.526462 292.1429,111.459455 296.171593,115.962363 C300.655362,120.919282 308.090742,122.688547 315.050844,121.154263 C316.940257,120.800197 319.064652,119.858148 320.83498,118.441886 C331.099695,110.535482 337.5909,93.8965207 340.421299,81.1522822 C340.438311,81.0661582 340.442564,80.9779075 340.455323,80.8917835 C340.620128,80.5770584 340.789187,80.2517007 341.009282,79.8551046 C342.898695,84.6929392 345.612136,92.0092336 347.499423,97.0831119 C343.250635,101.685966 341.009282,103.218124 339.712104,109.237241 C338.649907,113.837968 341.482433,120.211151 347.145357,121.036241 C350.802973,121.627414 354.224545,120.800197 356.82209,119.150017 C360.362746,116.670494 362.721058,112.186725 363.547211,107.348891 C363.901277,104.399406 363.783255,101.212815 363.193145,98.8534404 C362.957102,97.7912433 362.721058,96.7290462 362.24897,95.5488273 C366.733802,92.0092336 369.91933,87.9975523 372.39779,82.8056521 C372.637024,82.3622725 372.794386,81.8784891 372.869878,81.3936423 C373.129313,80.918365 373.356851,80.4622263 373.694968,79.8551046 C375.583318,84.6929392 378.296759,92.0092336 380.184046,97.0831119 C375.936321,101.685966 373.694968,103.218124 372.396727,109.237241 C371.33453,113.837968 374.167055,120.211151 379.82998,121.036241 C383.488659,121.627414 386.909167,120.800197 389.506712,119.150017 C393.047369,116.670494 395.406744,112.186725 396.231834,107.348891 C396.5859,104.399406 396.468941,101.212815 395.877768,98.8534404 C395.641725,97.7912433 395.406744,96.7290462 394.934656,95.5488273 C399.418425,92.0092336 402.605017,87.9975523 405.082413,82.8056521 C405.908566,81.2713674 405.908566,79.2649951 404.020216,78.32082" id="Fill-55" fill="#5D364C" fill-rule="nonzero"></path>
                    <path d="M351.509509,111.841697 C351.504193,111.864026 351.498877,111.887417 351.492497,111.909746 C351.498877,111.887417 351.504193,111.864026 351.509509,111.841697" id="Fill-57" fill="#5D364C" fill-rule="nonzero"></path>
                    <path d="M351.296645,112.472955 C351.282822,112.502726 351.271126,112.534624 351.258367,112.565458 C351.27219,112.534624 351.282822,112.503789 351.296645,112.472955" id="Fill-59" fill="#5D364C" fill-rule="nonzero"></path>
                    <path d="M350.585323,113.661892 C350.568311,113.683158 350.550236,113.701233 350.53216,113.722498 C350.550236,113.701233 350.568311,113.683158 350.585323,113.661892" id="Fill-61" fill="#5D364C" fill-rule="nonzero"></path>
                    <path d="M348.241791,114.849767 C348.26093,114.849767 348.275816,114.843387 348.294954,114.843387 C348.255614,114.844451 348.21521,114.843387 348.175869,114.842324 C348.197134,114.843387 348.219463,114.849767 348.241791,114.849767" id="Fill-63" fill="#5D364C" fill-rule="nonzero"></path>
                    <path d="M349.859542,103.572402 L349.859542,103.572402 C350.390109,104.752621 350.950447,105.93284 351.320462,107.186424 C350.950447,105.93284 350.390109,104.752621 349.859542,103.572402" id="Fill-65" fill="#5D364C" fill-rule="nonzero"></path>
                    <path d="M346.10804,113.664976 C346.396184,114.274224 346.866145,114.695275 347.61787,114.783526 L347.618933,114.783526 L347.61787,114.783526 C346.866145,114.695275 346.396184,114.274224 346.10804,113.664976" id="Fill-67" fill="#5D364C" fill-rule="nonzero"></path>
                    <path d="M350.987129,113.090815 C350.969054,113.120587 350.952042,113.149295 350.932903,113.178003 C350.952042,113.149295 350.969054,113.120587 350.987129,113.090815" id="Fill-69" fill="#5D364C" fill-rule="nonzero"></path>
                    <path d="M351.62987,111.243613 L351.62987,111.243613 C351.68835,110.873599 351.721311,110.514217 351.733007,110.162277 C351.721311,110.514217 351.68835,110.873599 351.62987,111.243613" id="Fill-71" fill="#5D364C" fill-rule="nonzero"></path>
                    <path d="M348.977993,114.743866 C348.947158,114.753436 348.916324,114.763005 348.886552,114.769384 C348.917387,114.763005 348.947158,114.753436 348.977993,114.743866" id="Fill-73" fill="#5D364C" fill-rule="nonzero"></path>
                    <path d="M350.09633,114.155139 C350.091014,114.159392 350.084634,114.162582 350.080381,114.166835 C350.084634,114.162582 350.091014,114.159392 350.09633,114.155139" id="Fill-75" fill="#5D364C" fill-rule="nonzero"></path>
                    <path d="M349.57916,114.501974 C349.561085,114.512607 349.544073,114.524303 349.525997,114.532809 C349.544073,114.524303 349.561085,114.512607 349.57916,114.501974" id="Fill-77" fill="#5D364C" fill-rule="nonzero"></path>
                    <path d="M264.594143,40.5315905 C264.545233,40.5390333 264.49526,40.5443496 264.44635,40.5507292 L257.109854,41.2354689 C255.844574,41.3524275 254.719645,40.423138 254.601623,39.1546684 C254.481474,37.887262 255.435219,36.7846611 256.682423,36.6475005 L264.018919,35.9606343 C265.284199,35.8436757 266.409129,36.7729652 266.526087,38.0414348 C266.641983,39.2588679 265.784995,40.3433934 264.594143,40.5315905" id="Fill-81" fill="#FED8B2" fill-rule="nonzero"></path>
                    <path d="M222.289035,23.1010321 C221.96155,23.1531319 221.617054,23.1339932 221.281064,23.03511 C220.059378,22.6746647 219.360816,21.3923727 219.722324,20.1738764 L221.808441,13.1085114 C222.167823,11.8900151 223.456494,11.1925163 224.669674,11.5497718 C225.891361,11.9112803 226.589923,13.192509 226.228414,14.4110054 L224.142297,21.4763703 C223.882862,22.3578131 223.140706,22.9670613 222.289035,23.1010321" id="Fill-83" fill="#F8BBBC" fill-rule="nonzero"></path>
                    <path d="M239.704069,121.764043 C238.759894,121.764043 237.956069,121.045279 237.867819,120.087281 L237.334062,114.210641 C237.241558,113.196291 237.990094,112.299962 239.003381,112.206395 C240.044313,112.120271 240.915123,112.862427 241.009753,113.875714 L241.54351,119.751291 C241.636013,120.766704 240.887478,121.663033 239.874191,121.7566 C239.815712,121.761916 239.760422,121.764043 239.704069,121.764043" id="Fill-85" fill="#B2E3F9" fill-rule="nonzero"></path>
                    <path d="M180.531186,141.485289 C180.083553,141.485289 179.634857,141.323673 179.280792,140.997253 C178.531193,140.307197 178.48441,139.139737 179.174466,138.390138 L183.171261,134.053099 C183.862381,133.305627 185.030904,133.258844 185.779439,133.946773 C186.529037,134.637892 186.575821,135.804289 185.885765,136.553888 L181.886843,140.889863 C181.524271,141.285396 181.028792,141.485289 180.531186,141.485289" id="Fill-87" fill="#B9E0D4" fill-rule="nonzero"></path>
                    <path d="M158.014734,9.94414234 C157.399107,10.0419623 156.745201,9.88991606 156.218888,9.46992822 L150.462396,4.87132725 C149.469311,4.07494526 149.306632,2.62465815 150.099824,1.63263625 C150.896206,0.642740876 152.343304,0.474745742 153.339579,1.26900122 L159.095007,5.86760219 C160.087029,6.66292092 160.250771,8.11320803 159.456515,9.10629319 C159.082248,9.57306448 158.56444,9.85801825 158.014734,9.94414234" id="Fill-89" fill="#82CFD2" fill-rule="nonzero"></path>
                    <path d="M196.123899,17.2727706 C194.94368,17.4588411 193.801738,16.7081793 193.524227,15.5247706 L191.834707,8.35414282 C191.543373,7.11544453 192.308921,5.87355645 193.547619,5.58328637 C194.789507,5.2930163 196.028205,6.05643723 196.320602,7.29619878 L198.009059,14.4668265 C198.300393,15.7055248 197.534845,16.9474129 196.296147,17.2387462 C196.238731,17.2515054 196.181315,17.2632012 196.123899,17.2727706" id="Fill-91" fill="#FCF6DC" fill-rule="nonzero"></path>
                    <path d="M219.705631,135.485736 C219.604621,135.359208 219.51956,135.216731 219.451512,135.062559 L217.118718,129.644184 C216.716806,128.708515 217.149553,127.622926 218.086285,127.21995 C219.021955,126.816975 220.097974,127.256101 220.510519,128.185391 L222.842249,133.602702 C223.243098,134.538371 222.812478,135.62396 221.875745,136.027999 C221.095312,136.363989 220.211743,136.117313 219.705631,135.485736" id="Fill-93" fill="#7FC9A2" fill-rule="nonzero"></path>
                    <path d="M115.997344,20.3161406 C116.649122,20.7010409 117.394468,20.9019971 118.146193,20.9019971 C118.352465,20.9019971 118.559801,20.8860482 118.76501,20.8562769 C120.03348,20.6670165 121.135018,19.9248608 121.786796,18.8190701 C122.513003,17.5888779 123.270045,16.3586856 124.037718,15.1678341 C124.65122,14.2183426 124.857492,13.0859703 124.618259,11.9812428 C124.380088,10.8765153 123.72512,9.93127689 122.776692,9.32096545 C121.825074,8.70746423 120.694828,8.50331825 119.5901,8.7404253 C118.486436,8.97965888 117.541198,9.63462725 116.929823,10.5841187 C116.105796,11.8632209 115.288149,13.1901698 114.500273,14.5266881 C113.927176,15.498508 113.76556,16.6361966 114.048388,17.7302915 C114.332278,18.8254496 115.024461,19.7441066 115.997344,20.3161406" id="Fill-95" fill="#5D364C" fill-rule="nonzero"></path>
                    <g id="Group-99" transform="translate(0.000000, 37.214112)" fill-rule="nonzero" fill="#5D364C">
                        <path d="M54.2803973,9.01070608 C47.7902562,3.34778151 39.2937428,0.396170803 30.444227,0.396170803 C20.7685579,0.396170803 13.687244,3.5838253 8.37838516,9.48279367 C0.708025061,17.7432633 -0.000106326034,31.4306136 -0.000106326034,45.5911148 C-0.000106326034,54.5597158 1.29813455,63.7632973 4.83772822,72.2587474 C6.253991,75.6803192 7.90629757,78.1587791 10.619738,80.4011951 C12.7441321,82.0513752 17.5819667,83.467638 20.4144922,83.467638 C22.3017793,83.467638 23.836064,82.6436112 25.016283,81.4633922 C28.0837891,78.3948229 29.0290275,74.0290759 29.0290275,68.9551976 C29.0290275,60.3406623 28.9110056,52.6713655 29.0290275,42.5236088 C29.0290275,39.2189956 29.264008,31.1956331 27.258699,28.3631075 C25.2523268,25.530582 22.655845,24.1143192 19.4713803,24.2323411 C16.2847891,24.3514263 14.3953754,25.4125601 14.5144606,29.5433265 C14.9865482,48.6596842 15.1035068,51.1360175 15.222592,68.9551976 L15.222592,71.3156355 C15.222592,74.8541659 13.9243511,75.0902097 12.5080883,71.7866599 C8.84940949,63.2912097 7.19816618,53.8515844 7.31618808,44.292874 C7.31618808,32.6097693 7.55223187,20.3386818 14.3953754,13.376453 C18.5261418,9.12872798 22.5378231,7.35839951 29.8530543,7.59444331 C36.6983243,7.83155036 42.598356,12.0792754 46.0188645,18.3333727 C48.7333681,23.170144 51.5658937,34.2631392 51.5658937,46.1812243 C51.5658937,52.7893873 51.5658937,60.1046185 49.3245409,66.947762 C44.9577307,80.519217 36.6983243,88.6606015 22.655845,88.6606015 C20.2954071,88.6606015 19.1173146,89.9588423 18.8802075,91.1390613 C18.5261418,93.0263484 20.0604265,94.0885455 22.0657355,94.678655 C24.1901297,95.2687645 26.9046333,95.2687645 28.5569399,95.2687645 C37.05239,95.1507426 46.7269959,91.4920637 54.7524849,83.2326574 C59.9443852,77.8047134 67.7317039,65.5336258 67.7317039,44.1748521 C67.7317039,29.4253046 62.3048231,15.9729348 54.2803973,9.01070608" id="Fill-97"></path>
                    </g>
                    <path d="M153.749253,46.224818 C157.642912,46.224818 160.829503,42.9223314 160.829503,39.0265455 C160.829503,35.0148642 157.642912,31.7123776 153.749253,31.7123776 C149.973615,31.7123776 146.787024,35.0148642 146.787024,39.0265455 C146.787024,42.9223314 149.973615,46.224818 153.749253,46.224818" id="Fill-100" fill="#5D364C" fill-rule="nonzero"></path>
                </g>
            </g>
        </g>
    </g>
</svg>