<?xml version="1.0" encoding="UTF-8"?>
<svg width="82px" height="70px" viewBox="0 0 82 70" version="1.1" xmlns="http://www.w3.org/2000/svg" xmlns:xlink="http://www.w3.org/1999/xlink">
    <!-- Generator: Sketch 43.2 (39069) - http://www.bohemiancoding.com/sketch -->
    <title>noun_806247_cc</title>
    <desc>Created with Sketch.</desc>
    <defs></defs>
    <g id="Page-1" stroke="none" stroke-width="1" fill="none" fill-rule="evenodd">
        <g id="noun_806247_cc" fill-rule="nonzero" fill="#778F9B">
            <path d="M75.1,46.8 L6.6,46.8 L6.6,6.8 L75.1,6.8 L75.1,46.8 Z M7.1,46.3 L74.6,46.3 L74.6,7.3 L7.1,7.3 L7.1,46.3 Z" id="Shape"></path>
            <path d="M77.6,0.8 L4.1,0.8 C2,0.8 0.4,2.5 0.4,4.5 L0.4,53.4 C0.4,55.5 2.1,57.1 4.1,57.1 L29,57.1 L29,61 C29,61.1 28.9,61.6 28.4,62 L24.8,64.4 L24.7,64.5 C24.5,64.7 23,66.5 23.6,68.2 C23.8,68.8 24.5,69.7 26.2,70 L40.9,70 L55.5,70 L55.6,70 C57.3,69.7 57.9,68.9 58.2,68.2 C58.8,66.6 57.3,64.7 57.1,64.5 L57,64.5 L53.4,62.1 C52.9,61.6 52.8,61.1 52.8,61.1 L52.8,57.2 L77.7,57.2 C79.8,57.2 81.4,55.5 81.4,53.5 L81.4,4.5 C81.4,2.4 79.7,0.8 77.6,0.8 Z M50.7,61.2 C50.7,61.3 50.8,62.5 51.9,63.6 L55.5,66 C55.9,66.5 56.3,67.2 56.1,67.6 C56,67.7 55.8,67.9 55.2,68.1 L40.9,68.1 L26.4,68.1 C25.8,68 25.5,67.8 25.5,67.6 C25.4,67.3 25.8,66.5 26.1,66 L29.6,63.7 L29.8,63.6 C30.9,62.5 31,61.3 31,61.2 L31,57.1 L50.7,57.1 L50.7,61.2 L50.7,61.2 Z M79.3,53.4 C79.3,54.3 78.5,55.1 77.6,55.1 L4.1,55.1 C3.2,55.1 2.4,54.3 2.4,53.4 L2.4,4.5 C2.4,3.6 3.2,2.8 4.1,2.8 L77.7,2.8 C78.6,2.8 79.4,3.6 79.4,4.5 L79.4,53.4 L79.3,53.4 Z" id="Shape"></path>
        </g>
    </g>
</svg>