<?xml version="1.0" encoding="UTF-8"?>
<svg width="1931px" height="1114px" viewBox="0 0 1931 1114" version="1.1" xmlns="http://www.w3.org/2000/svg" xmlns:xlink="http://www.w3.org/1999/xlink">
    <!-- Generator: Sketch 43.2 (39069) - http://www.bohemiancoding.com/sketch -->
    <title>Macbook</title>
    <desc>Created with Sketch.</desc>
    <defs>
        <rect id="path-1" x="0" y="0" width="1440" height="900" rx="2"></rect>
    </defs>
    <g id="Page-1" stroke="none" stroke-width="1" fill="none" fill-rule="evenodd">
        <g id="Subtle_Devices" transform="translate(-2219.000000, -447.000000)">
            <g id="Macbook" transform="translate(2224.000000, 450.000000)">
                <g id="Body">
                    <path d="M427,-234.001286 C427,-243.941701 435.061961,-252 444.999601,-252 L1434.00164,-252 C1466.58554,-252 1493,-225.575543 1493,-193.001184 L1493,1260.00118 C1493,1292.58533 1466.58292,1319 1434.00164,1319 L444.999601,1319 C435.058696,1319 427,1310.94514 427,1301.00129 L427,-234.001286 Z" id="Rectangle-2" stroke="#CCD2D5" stroke-width="6" fill="#EAF0F2" transform="translate(960.000000, 533.500000) rotate(-90.000000) translate(-960.000000, -533.500000) "></path>
                    <g id="Group" transform="translate(952.000000, 39.000000)">
                        <path d="M9,13 C6.243,13 4,10.757 4,8 C4,5.243 6.243,3 9,3 C11.757,3 14,5.243 14,8 C14,10.757 11.757,13 9,13" id="Fill-9" fill="#BAC1C4"></path>
                        <path d="M8,0 C3.58857143,0 0,3.58857143 0,8 C0,12.4114286 3.58857143,16 8,16 C12.4114286,16 16,12.4114286 16,8 C16,3.58857143 12.4114286,0 8,0 M8,4.57142857 C9.89371429,4.57142857 11.4285714,6.10628571 11.4285714,8 C11.4285714,9.89371429 9.89371429,11.4285714 8,11.4285714 C6.10628571,11.4285714 4.57142857,9.89371429 4.57142857,8 C4.57142857,6.10628571 6.10628571,4.57142857 8,4.57142857" id="Fill-11" fill="#D0D8DB"></path>
                    </g>
                    <rect id="Rectangle-3" fill="#DEE3E6" x="239" y="85" width="1444" height="904" rx="2"></rect>
                    <g id="Group-2" transform="translate(0.000000, 1069.000000)">
                        <path d="M3.00855923,2.33359909e-07 C1.8992626,-0.000529464903 1,0.900772795 1,1.99155622 L1,13.1181818 C1,13.1181818 53.9980469,32.4697443 242,34.9990411 C430.507813,34.6943536 1612,34.9990411 1612,34.9990411 C1612,34.9990411 1842.58789,36.2822443 1919.57617,12.3174005 L1919.57617,2.91434055 C1919.57617,1.81023302 1918.6739,0.914746184 1917.56761,0.914217924 L3.00855923,2.33359909e-07 Z" id="Path-37" stroke="#CBD2D4" stroke-width="12"></path>
                        <path d="M1921,12 C1921,12 1901.21574,36 1490.55208,35.1428571 C1355.17473,34.8602957 1161.21131,34.8549032 962,34.974646 C760.437856,34.8548859 566.051594,34.8598226 430.447683,35.1428571 C19.7842483,36 0,12 0,12 L961,12 L1921,12 Z" id="Combined-Shape" fill="#CCD2D5"></path>
                        <path d="M0,2.0085302 C0,0.899249601 0.886031265,0 1.9981412,0 L1919.00186,0 C1920.1054,0 1921,0.901950359 1921,2.0085302 L1921,12 L0,12 L0,2.0085302 Z" id="Rectangle-5" fill="#EAEFF1"></path>
                        <path d="M779,0 L1143,0 L1143,12 C1143,12 1097.15234,16 961.71875,16 C826.285156,16 779,12 779,12 L779,0 Z" id="Rectangle-10" fill="#D9E0E3"></path>
                    </g>
                </g>
                <g id="Screen" transform="translate(241.000000, 87.000000)">
                    <mask id="mask-2" fill="white">
                        <use xlink:href="#path-1"></use>
                    </mask>
                    <use id="Mask" fill="#343434" xlink:href="#path-1"></use>
                </g>
            </g>
        </g>
    </g>
</svg>