<?xml version="1.0" encoding="UTF-8"?>
<svg width="423px" height="878px" viewBox="0 0 423 878" version="1.1" xmlns="http://www.w3.org/2000/svg" xmlns:xlink="http://www.w3.org/1999/xlink">
    <!-- Generator: Sketch 43.2 (39069) - http://www.bohemiancoding.com/sketch -->
    <title>iPhone</title>
    <desc>Created with Sketch.</desc>
    <defs>
        <path d="M396,768.905808 C396,770.062849 395.065111,771 393.910864,771 L23.0891365,771 C21.9348886,771 21,770.062849 21,768.905808 L21,106.094192 C21,104.937151 21.9348886,104 23.0891365,104 L393.910864,104 C395.065111,104 396,104.937151 396,106.094192 L396,768.905808 Z" id="path-1"></path>
    </defs>
    <g id="Page-1" stroke="none" stroke-width="1" fill="none" fill-rule="evenodd">
        <g id="Subtle_Devices" transform="translate(-1524.000000, -678.000000)">
            <g id="iPhone" transform="translate(1527.000000, 681.000000)">
                <g id="Body">
                    <path d="M417,807.835947 C417,843.272386 388.240689,872 352.765152,872 L64.2348485,872 C28.7593106,872 0,843.272386 0,807.835947 L0,64.1640531 C0,28.727614 28.7593106,0 64.2348485,0 L352.765152,0 C388.240689,0 417,28.727614 417,64.1640531 L417,807.835947 Z" id="Fill-1" fill="#EAF0F2"></path>
                    <path d="M417,807.835947 C417,843.272386 388.240689,872 352.765152,872 L64.2348485,872 C28.7593106,872 0,843.272386 0,807.835947 L0,64.1640531 C0,28.727614 28.7593106,0 64.2348485,0 L352.765152,0 C388.240689,0 417,28.727614 417,64.1640531 L417,807.835947 L417,807.835947 Z" id="Stroke-3" stroke="#CCD2D5" stroke-width="6"></path>
                    <path d="M398,770.89325 C398,772.057229 397.055139,773 395.888579,773 L21.1114206,773 C19.9448607,773 19,772.057229 19,770.89325 L19,104.10675 C19,102.942771 19.9448607,102 21.1114206,102 L395.888579,102 C397.055139,102 398,102.942771 398,104.10675 L398,770.89325 Z" id="Fill-5" fill="#DEE3E6"></path>
                    <path d="M244,54 C244,56.2093333 242.531094,58 240.71875,58 L177.28125,58 C175.468906,58 174,56.2093333 174,54 C174,51.7906667 175.468906,50 177.28125,50 L240.71875,50 C242.531094,50 244,51.7906667 244,54" id="Fill-7" fill="#BAC1C4"></path>
                    <g id="Group" transform="translate(134.000000, 46.000000)">
                        <path d="M8,13 C5.243,13 3,10.757 3,8 C3,5.243 5.243,3 8,3 C10.757,3 13,5.243 13,8 C13,10.757 10.757,13 8,13" id="Fill-9" fill="#BAC1C4"></path>
                        <path d="M8,0 C3.58857143,0 0,3.58857143 0,8 C0,12.4114286 3.58857143,16 8,16 C12.4114286,16 16,12.4114286 16,8 C16,3.58857143 12.4114286,0 8,0 M8,4.57142857 C9.89371429,4.57142857 11.4285714,6.10628571 11.4285714,8 C11.4285714,9.89371429 9.89371429,11.4285714 8,11.4285714 C6.10628571,11.4285714 4.57142857,9.89371429 4.57142857,8 C4.57142857,6.10628571 6.10628571,4.57142857 8,4.57142857" id="Fill-11" fill="#D0D8DB"></path>
                    </g>
                    <path d="M214,25 C214,22.2388889 211.761111,20 209,20 C206.238889,20 204,22.2388889 204,25 C204,27.7611111 206.238889,30 209,30 C211.761111,30 214,27.7611111 214,25" id="Fill-13" fill="#BAC1C4"></path>
                    <path d="M236,818 C236,803.088286 223.911714,791 209,791 C194.088286,791 182,803.088286 182,818 C182,832.911714 194.088286,845 209,845 C223.911714,845 236,832.911714 236,818" id="Fill-17" stroke="#CCD2D5" stroke-width="4" fill="#EAF0F2"></path>
                    <mask id="mask-2" fill="white">
                        <use xlink:href="#path-1"></use>
                    </mask>
                    <use id="Mask" fill="#343434" xlink:href="#path-1"></use>
                </g>
                <g id="Screen" transform="translate(21.000000, 104.000000)"></g>
            </g>
        </g>
    </g>
</svg>