<?xml version="1.0" encoding="UTF-8"?>
<svg width="52px" height="89px" viewBox="0 0 52 89" version="1.1" xmlns="http://www.w3.org/2000/svg" xmlns:xlink="http://www.w3.org/1999/xlink">
    <!-- Generator: Sketch 43.2 (39069) - http://www.bohemiancoding.com/sketch -->
    <title>noun_806239_cc</title>
    <desc>Created with Sketch.</desc>
    <defs></defs>
    <g id="Page-1" stroke="none" stroke-width="1" fill="none" fill-rule="evenodd">
        <g id="noun_806239_cc">
            <circle id="Oval" fill="#778F9B" fill-rule="nonzero" cx="26.2" cy="80.1" r="3.2"></circle>
            <rect id="Rectangle-path" stroke="#778F9B" x="7.8" y="14.8" width="36.8" height="58.2"></rect>
            <path d="M42.5,89 L9.8,89 C4.8,89 0.8,85 0.8,80 L0.8,9.8 C0.8,4.8 4.8,0.8 9.8,0.8 L42.5,0.8 C47.5,0.8 51.5,4.8 51.5,9.8 L51.5,80 C51.5,84.9 47.5,89 42.5,89 Z M9.8,4.2 C6.7,4.2 4.2,6.7 4.2,9.8 L4.2,80 C4.2,83.1 6.7,85.6 9.8,85.6 L42.5,85.6 C45.6,85.6 48.1,83.1 48.1,80 L48.1,9.8 C48.1,6.7 45.6,4.2 42.5,4.2 L9.8,4.2 L9.8,4.2 Z" id="Shape" fill="#778F9B" fill-rule="nonzero"></path>
            <circle id="Oval" fill="#778F9B" fill-rule="nonzero" cx="16.4" cy="9.3" r="1.3"></circle>
            <path d="M30.1,10.5 L20.8,10.5 C20.1,10.5 19.5,9.9 19.5,9.2 L19.5,9.2 C19.5,8.5 20.1,7.9 20.8,7.9 L30.1,7.9 C30.8,7.9 31.4,8.5 31.4,9.2 L31.4,9.2 C31.4,10 30.8,10.5 30.1,10.5 Z" id="Shape" fill="#778F9B" fill-rule="nonzero"></path>
        </g>
    </g>
</svg>