<?xml version="1.0" encoding="UTF-8"?>
<svg width="884px" height="1249px" viewBox="0 0 884 1249" version="1.1" xmlns="http://www.w3.org/2000/svg" xmlns:xlink="http://www.w3.org/1999/xlink">
    <!-- Generator: Sketch 43.2 (39069) - http://www.bohemiancoding.com/sketch -->
    <title>iPad</title>
    <desc>Created with Sketch.</desc>
    <defs>
        <rect id="path-1" x="0" y="0" width="768" height="1024" rx="2"></rect>
    </defs>
    <g id="Page-1" stroke="none" stroke-width="1" fill="none" fill-rule="evenodd">
        <g id="Subtle_Devices" transform="translate(-366.000000, -307.000000)">
            <g id="iPad" transform="translate(369.000000, 310.000000)">
                <g id="Body">
                    <rect id="Rectangle-2" stroke="#CCD2D5" stroke-width="6" fill="#EAF0F2" x="0" y="0" width="878" height="1243" rx="59"></rect>
                    <rect id="Rectangle-3" fill="#DEE3E6" x="53" y="108" width="772" height="1028" rx="2"></rect>
                    <circle id="Oval-1" stroke="#CCD2D5" stroke-width="4" cx="439" cy="1191" r="26"></circle>
                    <g id="Group" transform="translate(431.000000, 46.000000)">
                        <path d="M8,13 C5.243,13 3,10.757 3,8 C3,5.243 5.243,3 8,3 C10.757,3 13,5.243 13,8 C13,10.757 10.757,13 8,13" id="Fill-9" fill="#BAC1C4"></path>
                        <path d="M8,0 C3.58857143,0 0,3.58857143 0,8 C0,12.4114286 3.58857143,16 8,16 C12.4114286,16 16,12.4114286 16,8 C16,3.58857143 12.4114286,0 8,0 M8,4.57142857 C9.89371429,4.57142857 11.4285714,6.10628571 11.4285714,8 C11.4285714,9.89371429 9.89371429,11.4285714 8,11.4285714 C6.10628571,11.4285714 4.57142857,9.89371429 4.57142857,8 C4.57142857,6.10628571 6.10628571,4.57142857 8,4.57142857" id="Fill-11" fill="#D0D8DB"></path>
                    </g>
                </g>
                <g id="Screen" transform="translate(55.000000, 110.000000)">
                    <mask id="mask-2" fill="white">
                        <use xlink:href="#path-1"></use>
                    </mask>
                    <use id="Mask" fill="#343434" xlink:href="#path-1"></use>
                </g>
            </g>
        </g>
    </g>
</svg>